NunitoSans-ExpandedExtraLight.ufo
<glyph name="dollar" format="2">
  <advance width="748"/>
  <unicode hex="0024"/>
  <outline>
    <contour>
      <point x="363" y="-115" type="line"/>
      <point x="409" y="-115" type="line"/>
      <point x="409" y="10" type="line"/>
      <point x="392" y="-4" type="line"/>
      <point x="566" y="-2"/>
      <point x="669" y="65"/>
      <point x="669" y="177" type="curve" smooth="yes"/>
      <point x="669" y="282"/>
      <point x="605" y="334"/>
      <point x="451" y="355" type="curve" smooth="yes"/>
      <point x="306" y="375" type="line" smooth="yes"/>
      <point x="188" y="391"/>
      <point x="139" y="432"/>
      <point x="139" y="515" type="curve" smooth="yes"/>
      <point x="139" y="608"/>
      <point x="230" y="665"/>
      <point x="380" y="665" type="curve" smooth="yes"/>
      <point x="479" y="665"/>
      <point x="550" y="639"/>
      <point x="625" y="575" type="curve"/>
      <point x="650" y="614" type="line"/>
      <point x="586" y="674"/>
      <point x="500" y="706"/>
      <point x="396" y="709" type="curve"/>
      <point x="409" y="696" type="line"/>
      <point x="409" y="820" type="line"/>
      <point x="363" y="820" type="line"/>
      <point x="363" y="696" type="line"/>
      <point x="380" y="709" type="line"/>
      <point x="204" y="709"/>
      <point x="91" y="633"/>
      <point x="91" y="513" type="curve" smooth="yes"/>
      <point x="91" y="407"/>
      <point x="158" y="350"/>
      <point x="305" y="330" type="curve" smooth="yes"/>
      <point x="452" y="310" type="line" smooth="yes"/>
      <point x="575" y="293"/>
      <point x="621" y="256"/>
      <point x="621" y="174" type="curve" smooth="yes"/>
      <point x="621" y="88"/>
      <point x="536" y="40"/>
      <point x="383" y="40" type="curve" smooth="yes"/>
      <point x="263" y="40"/>
      <point x="182" y="64"/>
      <point x="96" y="125" type="curve"/>
      <point x="71" y="86" type="line"/>
      <point x="148" y="28"/>
      <point x="251" y="-3"/>
      <point x="377" y="-4" type="curve"/>
      <point x="363" y="9" type="line"/>
    </contour>
  </outline>
</glyph>
<glyph name="parenleft" format="2">
  <advance width="337"/>
  <unicode hex="0028"/>
  <outline>
    <contour>
      <point x="258" y="-190" type="curve"/>
      <point x="295" y="-175" type="line"/>
      <point x="214" y="-32"/>
      <point x="174" y="113"/>
      <point x="174" y="263" type="curve" smooth="yes"/>
      <point x="174" y="413"/>
      <point x="214" y="558"/>
      <point x="295" y="701" type="curve"/>
      <point x="258" y="716" type="line"/>
      <point x="169" y="564"/>
      <point x="126" y="417"/>
      <point x="126" y="263" type="curve" smooth="yes"/>
      <point x="126" y="109"/>
      <point x="169" y="-38"/>
    </contour>
  </outline>
</glyph>
<glyph name="parenright" format="2">
  <advance width="337"/>
  <unicode hex="0029"/>
  <outline>
    <contour>
      <point x="79" y="-190" type="line"/>
      <point x="168" y="-38"/>
      <point x="211" y="109"/>
      <point x="211" y="263" type="curve" smooth="yes"/>
      <point x="211" y="417"/>
      <point x="168" y="564"/>
      <point x="79" y="716" type="curve"/>
      <point x="42" y="701" type="line"/>
      <point x="123" y="558"/>
      <point x="163" y="413"/>
      <point x="163" y="263" type="curve" smooth="yes"/>
      <point x="163" y="113"/>
      <point x="123" y="-32"/>
      <point x="42" y="-175" type="curve"/>
    </contour>
  </outline>
</glyph>
<glyph name="hyphen" format="2">
  <advance width="511"/>
  <unicode hex="002D"/>
  <outline>
    <contour>
      <point x="92" y="245" type="line"/>
      <point x="419" y="245" type="line"/>
      <point x="419" y="286" type="line"/>
      <point x="92" y="286" type="line"/>
    </contour>
  </outline>
</glyph>
<glyph name="one" format="2">
  <advance width="748"/>
  <unicode hex="0031"/>
  <outline>
    <contour>
      <point x="165" y="0" type="line"/>
      <point x="624" y="0" type="line"/>
      <point x="624" y="42" type="line"/>
      <point x="423" y="42" type="line"/>
      <point x="423" y="705" type="line"/>
      <point x="389" y="705" type="line"/>
      <point x="168" y="572" type="line"/>
      <point x="189" y="538" type="line"/>
      <point x="405" y="665" type="line"/>
      <point x="377" y="665" type="line"/>
      <point x="377" y="42" type="line"/>
      <point x="165" y="42" type="line"/>
    </contour>
  </outline>
</glyph>
<glyph name="four" format="2">
  <advance width="748"/>
  <unicode hex="0034"/>
  <outline>
    <contour>
      <point x="506" y="0" type="line"/>
      <point x="552" y="0" type="line"/>
      <point x="552" y="165" type="line"/>
      <point x="691" y="165" type="line"/>
      <point x="691" y="207" type="line"/>
      <point x="552" y="207" type="line"/>
      <point x="552" y="705" type="line"/>
      <point x="513" y="705" type="line"/>
      <point x="75" y="201" type="line"/>
      <point x="75" y="165" type="line"/>
      <point x="506" y="165" type="line"/>
    </contour>
    <contour>
      <point x="506" y="207" type="line"/>
      <point x="120" y="207" type="line"/>
      <point x="120" y="193" type="line"/>
      <point x="529" y="660" type="line"/>
      <point x="506" y="660" type="line"/>
    </contour>
  </outline>
</glyph>
<glyph name="five" format="2">
  <advance width="748"/>
  <unicode hex="0035"/>
  <outline>
    <contour>
      <point x="399" y="-8" type="curve" smooth="yes"/>
      <point x="570" y="-8"/>
      <point x="679" y="77"/>
      <point x="679" y="217" type="curve" smooth="yes"/>
      <point x="679" y="351"/>
      <point x="580" y="436"/>
      <point x="418" y="436" type="curve" smooth="yes"/>
      <point x="312" y="436"/>
      <point x="226" y="400"/>
      <point x="180" y="338" type="curve"/>
      <point x="194" y="338" type="line"/>
      <point x="194" y="663" type="line"/>
      <point x="628" y="663" type="line"/>
      <point x="628" y="705" type="line"/>
      <point x="148" y="705" type="line"/>
      <point x="148" y="293" type="line"/>
      <point x="190" y="293" type="line"/>
      <point x="242" y="360"/>
      <point x="315" y="392"/>
      <point x="409" y="392" type="curve" smooth="yes"/>
      <point x="549" y="392"/>
      <point x="630" y="322"/>
      <point x="630" y="213" type="curve" smooth="yes"/>
      <point x="630" y="99"/>
      <point x="542" y="36"/>
      <point x="399" y="36" type="curve" smooth="yes"/>
      <point x="303" y="36"/>
      <point x="222" y="64"/>
      <point x="141" y="125" type="curve"/>
      <point x="117" y="86" type="line"/>
      <point x="188" y="26"/>
      <point x="291" y="-8"/>
    </contour>
  </outline>
</glyph>
<glyph name="seven" format="2">
  <advance width="748"/>
  <unicode hex="0037"/>
  <outline>
    <contour>
      <point x="172" y="0" type="line"/>
      <point x="223" y="0" type="line"/>
      <point x="651" y="671" type="line"/>
      <point x="651" y="705" type="line"/>
      <point x="95" y="705" type="line"/>
      <point x="95" y="663" type="line"/>
      <point x="614" y="663" type="line"/>
      <point x="614" y="691" type="line"/>
    </contour>
  </outline>
</glyph>
<glyph name="eight" format="2">
  <advance width="748"/>
  <unicode hex="0038"/>
  <outline>
    <contour>
      <point x="374" y="-8" type="curve" smooth="yes"/>
      <point x="568" y="-8"/>
      <point x="675" y="63"/>
      <point x="675" y="183" type="curve" smooth="yes"/>
      <point x="675" y="283"/>
      <point x="601" y="349"/>
      <point x="475" y="363" type="curve"/>
      <point x="475" y="354" type="line"/>
      <point x="587" y="373"/>
      <point x="655" y="438"/>
      <point x="655" y="529" type="curve" smooth="yes"/>
      <point x="655" y="643"/>
      <point x="550" y="713"/>
      <point x="374" y="713" type="curve" smooth="yes"/>
      <point x="198" y="713"/>
      <point x="93" y="643"/>
      <point x="93" y="529" type="curve" smooth="yes"/>
      <point x="93" y="438"/>
      <point x="161" y="373"/>
      <point x="273" y="354" type="curve"/>
      <point x="273" y="363" type="line"/>
      <point x="147" y="349"/>
      <point x="73" y="283"/>
      <point x="73" y="183" type="curve" smooth="yes"/>
      <point x="73" y="63"/>
      <point x="180" y="-8"/>
    </contour>
    <contour>
      <point x="374" y="35" type="curve" smooth="yes"/>
      <point x="205" y="35"/>
      <point x="122" y="87"/>
      <point x="122" y="188" type="curve" smooth="yes"/>
      <point x="122" y="288"/>
      <point x="204" y="335"/>
      <point x="374" y="335" type="curve" smooth="yes"/>
      <point x="544" y="335"/>
      <point x="626" y="288"/>
      <point x="626" y="188" type="curve" smooth="yes"/>
      <point x="626" y="87"/>
      <point x="543" y="35"/>
    </contour>
    <contour>
      <point x="374" y="379" type="curve" smooth="yes"/>
      <point x="226" y="379"/>
      <point x="142" y="432"/>
      <point x="142" y="525" type="curve" smooth="yes"/>
      <point x="142" y="618"/>
      <point x="225" y="670"/>
      <point x="374" y="670" type="curve" smooth="yes"/>
      <point x="523" y="670"/>
      <point x="606" y="618"/>
      <point x="606" y="525" type="curve" smooth="yes"/>
      <point x="606" y="432"/>
      <point x="522" y="379"/>
    </contour>
  </outline>
</glyph>
<glyph name="colon" format="2">
  <advance width="252"/>
  <unicode hex="003A"/>
  <outline>
    <contour>
      <point x="88" y="410" type="line"/>
      <point x="164" y="410" type="line"/>
      <point x="164" y="484" type="line"/>
      <point x="88" y="484" type="line"/>
    </contour>
    <contour>
      <point x="88" y="0" type="line"/>
      <point x="164" y="0" type="line"/>
      <point x="164" y="74" type="line"/>
      <point x="88" y="74" type="line"/>
    </contour>
  </outline>
</glyph>
<glyph name="at" format="2">
  <advance width="1172"/>
  <unicode hex="0040"/>
  <outline>
    <contour>
      <point x="594" y="-162" type="curve" smooth="yes"/>
      <point x="753" y="-162"/>
      <point x="883" y="-119"/>
      <point x="967" y="-40" type="curve"/>
      <point x="936" y="-8" type="line"/>
      <point x="863" y="-80"/>
      <point x="741" y="-121"/>
      <point x="594" y="-121" type="curve" smooth="yes"/>
      <point x="311" y="-121"/>
      <point x="130" y="30"/>
      <point x="130" y="270" type="curve" smooth="yes"/>
      <point x="130" y="511"/>
      <point x="313" y="672"/>
      <point x="610" y="672" type="curve" smooth="yes"/>
      <point x="876" y="672"/>
      <point x="1044" y="542"/>
      <point x="1044" y="338" type="curve" smooth="yes"/>
      <point x="1044" y="197"/>
      <point x="965" y="98"/>
      <point x="853" y="98" type="curve" smooth="yes"/>
      <point x="798" y="98"/>
      <point x="772" y="121"/>
      <point x="772" y="170" type="curve" smooth="yes"/>
      <point x="772" y="184"/>
      <point x="774" y="198"/>
      <point x="777" y="211" type="curve" smooth="yes"/>
      <point x="838" y="484" type="line"/>
      <point x="789" y="484" type="line"/>
      <point x="768" y="389" type="line"/>
      <point x="776" y="389" type="line"/>
      <point x="761" y="456"/>
      <point x="701" y="492"/>
      <point x="605" y="492" type="curve" smooth="yes"/>
      <point x="444" y="492"/>
      <point x="333" y="388"/>
      <point x="333" y="238" type="curve" smooth="yes"/>
      <point x="333" y="122"/>
      <point x="400" y="59"/>
      <point x="521" y="59" type="curve" smooth="yes"/>
      <point x="618" y="59"/>
      <point x="697" y="100"/>
      <point x="737" y="170" type="curve"/>
      <point x="731" y="188" type="line"/>
      <point x="711" y="107"/>
      <point x="756" y="59"/>
      <point x="850" y="59" type="curve" smooth="yes"/>
      <point x="993" y="59"/>
      <point x="1091" y="173"/>
      <point x="1091" y="339" type="curve" smooth="yes"/>
      <point x="1091" y="568"/>
      <point x="905" y="713"/>
      <point x="613" y="713" type="curve" smooth="yes"/>
      <point x="291" y="713"/>
      <point x="81" y="538"/>
      <point x="81" y="269" type="curve" smooth="yes"/>
      <point x="81" y="5"/>
      <point x="282" y="-162"/>
    </contour>
    <contour>
      <point x="526" y="100" type="curve" smooth="yes"/>
      <point x="432" y="100"/>
      <point x="382" y="148"/>
      <point x="382" y="240" type="curve" smooth="yes"/>
      <point x="382" y="366"/>
      <point x="474" y="451"/>
      <point x="612" y="451" type="curve" smooth="yes"/>
      <point x="708" y="451"/>
      <point x="752" y="410"/>
      <point x="752" y="322" type="curve" smooth="yes"/>
      <point x="752" y="193"/>
      <point x="657" y="100"/>
    </contour>
  </outline>
</glyph>
<glyph name="A" format="2">
  <advance width="882"/>
  <unicode hex="0041"/>
  <anchor x="441" y="0" name="bottom"/>
  <anchor x="845" y="0" name="ogonek"/>
  <anchor x="441" y="705" name="top"/>
  <outline>
    <contour>
      <point x="40" y="0" type="line"/>
      <point x="90" y="0" type="line"/>
      <point x="201" y="204" type="line"/>
      <point x="166" y="193" type="line"/>
      <point x="712" y="193" type="line"/>
      <point x="679" y="204" type="line"/>
      <point x="790" y="0" type="line"/>
      <point x="842" y="0" type="line"/>
      <point x="464" y="705" type="line"/>
      <point x="418" y="705" type="line"/>
    </contour>
    <contour>
      <point x="439" y="654" type="line"/>
      <point x="441" y="654" type="line"/>
      <point x="666" y="228" type="line"/>
      <point x="693" y="236" type="line"/>
      <point x="185" y="236" type="line"/>
      <point x="214" y="228" type="line"/>
    </contour>
  </outline>
</glyph>
<glyph name="D" format="2">
  <advance width="896"/>
  <unicode hex="0044"/>
  <anchor x="447" y="0" name="bottom"/>
  <anchor x="211" y="358" name="center"/>
  <anchor x="447" y="705" name="top"/>
  <outline>
    <contour>
      <point x="118" y="0" type="line"/>
      <point x="401" y="0" type="line" smooth="yes"/>
      <point x="675" y="0"/>
      <point x="815" y="119"/>
      <point x="815" y="353" type="curve" smooth="yes"/>
      <point x="815" y="586"/>
      <point x="676" y="705"/>
      <point x="401" y="705" type="curve" smooth="yes"/>
      <point x="118" y="705" type="line"/>
    </contour>
    <contour>
      <point x="164" y="42" type="line"/>
      <point x="164" y="663" type="line"/>
      <point x="397" y="663" type="line" smooth="yes"/>
      <point x="649" y="663"/>
      <point x="766" y="565"/>
      <point x="766" y="353" type="curve" smooth="yes"/>
      <point x="766" y="140"/>
      <point x="649" y="42"/>
      <point x="397" y="42" type="curve" smooth="yes"/>
    </contour>
  </outline>
</glyph>
<glyph name="E" format="2">
  <advance width="702"/>
  <unicode hex="0045"/>
  <anchor x="395" y="0" name="bottom"/>
  <anchor x="607" y="0" name="ogonek"/>
  <anchor x="395" y="705" name="top"/>
  <anchor x="30" y="705" name="topleft"/>
  <outline>
    <contour>
      <point x="118" y="0" type="line"/>
      <point x="644" y="0" type="line"/>
      <point x="644" y="42" type="line"/>
      <point x="164" y="42" type="line"/>
      <point x="164" y="337" type="line"/>
      <point x="607" y="337" type="line"/>
      <point x="607" y="379" type="line"/>
      <point x="164" y="379" type="line"/>
      <point x="164" y="663" type="line"/>
      <point x="644" y="663" type="line"/>
      <point x="644" y="705" type="line"/>
      <point x="118" y="705" type="line"/>
    </contour>
  </outline>
</glyph>
<glyph name="G" format="2">
  <advance width="888"/>
  <unicode hex="0047"/>
  <anchor x="482" y="0" name="bottom"/>
  <anchor x="473" y="705" name="top"/>
  <outline>
    <contour>
      <point x="492" y="-8" type="curve" smooth="yes"/>
      <point x="598" y="-8"/>
      <point x="714" y="13"/>
      <point x="778" y="44" type="curve"/>
      <point x="778" y="356" type="line"/>
      <point x="488" y="356" type="line"/>
      <point x="488" y="314" type="line"/>
      <point x="732" y="314" type="line"/>
      <point x="732" y="57" type="line"/>
      <point x="743" y="80" type="line"/>
      <point x="670" y="51"/>
      <point x="585" y="36"/>
      <point x="496" y="36" type="curve" smooth="yes"/>
      <point x="256" y="36"/>
      <point x="130" y="144"/>
      <point x="130" y="349" type="curve" smooth="yes"/>
      <point x="130" y="553"/>
      <point x="253" y="669"/>
      <point x="469" y="669" type="curve" smooth="yes"/>
      <point x="579" y="669"/>
      <point x="663" y="639"/>
      <point x="740" y="572" type="curve"/>
      <point x="767" y="610" type="line"/>
      <point x="695" y="677"/>
      <point x="592" y="713"/>
      <point x="470" y="713" type="curve" smooth="yes"/>
      <point x="227" y="713"/>
      <point x="81" y="578"/>
      <point x="81" y="351" type="curve" smooth="yes"/>
      <point x="81" y="122"/>
      <point x="229" y="-8"/>
    </contour>
  </outline>
</glyph>
<glyph name="H" format="2">
  <advance width="928"/>
  <unicode hex="0048"/>
  <anchor x="464" y="0" name="bottom"/>
  <anchor x="464" y="547" name="center"/>
  <anchor x="464" y="705" name="top"/>
  <anchor x="30" y="705" name="topleft"/>
  <outline>
    <contour>
      <point x="118" y="0" type="line"/>
      <point x="164" y="0" type="line"/>
      <point x="164" y="337" type="line"/>
      <point x="764" y="337" type="line"/>
      <point x="764" y="0" type="line"/>
      <point x="810" y="0" type="line"/>
      <point x="810" y="705" type="line"/>
      <point x="764" y="705" type="line"/>
      <point x="764" y="379" type="line"/>
      <point x="164" y="379" type="line"/>
      <point x="164" y="705" type="line"/>
      <point x="118" y="705" type="line"/>
    </contour>
  </outline>
</glyph>
<glyph name="J" format="2">
  <advance width="359"/>
  <unicode hex="004A"/>
  <anchor x="220" y="0" name="bottom"/>
  <anchor x="218" y="705" name="top"/>
  <outline>
    <contour>
      <point x="-12" y="-6" type="line"/>
      <point x="48" y="-2" type="line" smooth="yes"/>
      <point x="173" y="6"/>
      <point x="241" y="71"/>
      <point x="241" y="183" type="curve" smooth="yes"/>
      <point x="241" y="705" type="line"/>
      <point x="195" y="705" type="line"/>
      <point x="195" y="185" type="line" smooth="yes"/>
      <point x="195" y="99"/>
      <point x="142" y="45"/>
      <point x="46" y="39" type="curve" smooth="yes"/>
      <point x="-16" y="35" type="line"/>
    </contour>
  </outline>
</glyph>
<glyph name="K" format="2">
  <advance width="724"/>
  <unicode hex="004B"/>
  <anchor x="370" y="0" name="bottom"/>
  <anchor x="370" y="705" name="top"/>
  <anchor x="30" y="705" name="topleft"/>
  <outline>
    <contour>
      <point x="118" y="0" type="line"/>
      <point x="164" y="0" type="line"/>
      <point x="164" y="339" type="line"/>
      <point x="166" y="339" type="line"/>
      <point x="655" y="0" type="line"/>
      <point x="731" y="0" type="line"/>
      <point x="191" y="369" type="line"/>
      <point x="191" y="348" type="line"/>
      <point x="700" y="705" type="line"/>
      <point x="628" y="705" type="line"/>
      <point x="166" y="376" type="line"/>
      <point x="164" y="376" type="line"/>
      <point x="164" y="705" type="line"/>
      <point x="118" y="705" type="line"/>
    </contour>
  </outline>
</glyph>
<glyph name="M" format="2">
  <advance width="1044"/>
  <unicode hex="004D"/>
  <anchor x="523" y="0" name="bottom"/>
  <anchor x="523" y="705" name="top"/>
  <outline>
    <contour>
      <point x="120" y="0" type="line"/>
      <point x="165" y="0" type="line"/>
      <point x="165" y="656" type="line"/>
      <point x="143" y="656" type="line"/>
      <point x="505" y="110" type="line"/>
      <point x="542" y="110" type="line"/>
      <point x="900" y="655" type="line"/>
      <point x="879" y="655" type="line"/>
      <point x="879" y="0" type="line"/>
      <point x="924" y="0" type="line"/>
      <point x="924" y="705" type="line"/>
      <point x="883" y="705" type="line"/>
      <point x="506" y="132" type="line"/>
      <point x="539" y="132" type="line"/>
      <point x="162" y="705" type="line"/>
      <point x="120" y="705" type="line"/>
    </contour>
  </outline>
</glyph>
<glyph name="N" format="2">
  <advance width="906"/>
  <unicode hex="004E"/>
  <anchor x="453" y="0" name="bottom"/>
  <anchor x="453" y="705" name="top"/>
  <outline>
    <contour>
      <point x="118" y="0" type="line"/>
      <point x="162" y="0" type="line"/>
      <point x="162" y="659" type="line"/>
      <point x="145" y="659" type="line"/>
      <point x="746" y="0" type="line"/>
      <point x="788" y="0" type="line"/>
      <point x="788" y="705" type="line"/>
      <point x="744" y="705" type="line"/>
      <point x="744" y="46" type="line"/>
      <point x="762" y="46" type="line"/>
      <point x="160" y="705" type="line"/>
      <point x="118" y="705" type="line"/>
    </contour>
  </outline>
</glyph>
<glyph name="O" format="2">
  <advance width="926"/>
  <unicode hex="004F"/>
  <anchor x="463" y="-8" name="Qtail"/>
  <anchor x="463" y="0" name="bottom"/>
  <anchor x="465" y="353" name="center"/>
  <anchor x="532" y="0" name="ogonek"/>
  <anchor x="463" y="705" name="top"/>
  <anchor x="29" y="705" name="topleft"/>
  <anchor x="555" y="705" name="topright"/>
  <outline>
    <contour>
      <point x="463" y="-8" type="curve" smooth="yes"/>
      <point x="699" y="-8"/>
      <point x="845" y="130"/>
      <point x="845" y="353" type="curve" smooth="yes"/>
      <point x="845" y="576"/>
      <point x="699" y="713"/>
      <point x="463" y="713" type="curve" smooth="yes"/>
      <point x="227" y="713"/>
      <point x="81" y="575"/>
      <point x="81" y="352" type="curve" smooth="yes"/>
      <point x="81" y="129"/>
      <point x="227" y="-8"/>
    </contour>
    <contour>
      <point x="463" y="36" type="curve" smooth="yes"/>
      <point x="254" y="36"/>
      <point x="130" y="154"/>
      <point x="130" y="352" type="curve" smooth="yes"/>
      <point x="130" y="550"/>
      <point x="255" y="669"/>
      <point x="463" y="669" type="curve" smooth="yes"/>
      <point x="672" y="669"/>
      <point x="796" y="551"/>
      <point x="796" y="353" type="curve" smooth="yes"/>
      <point x="796" y="155"/>
      <point x="671" y="36"/>
    </contour>
  </outline>
</glyph>
<glyph name="P" format="2">
  <advance width="759"/>
  <unicode hex="0050"/>
  <anchor x="390" y="0" name="bottom"/>
  <anchor x="390" y="705" name="top"/>
  <outline>
    <contour>
      <point x="118" y="0" type="line"/>
      <point x="164" y="0" type="line"/>
      <point x="164" y="295" type="line"/>
      <point x="444" y="295" type="line" smooth="yes"/>
      <point x="626" y="295"/>
      <point x="717" y="363"/>
      <point x="717" y="500" type="curve" smooth="yes"/>
      <point x="717" y="638"/>
      <point x="626" y="705"/>
      <point x="444" y="705" type="curve" smooth="yes"/>
      <point x="118" y="705" type="line"/>
    </contour>
    <contour>
      <point x="164" y="337" type="line"/>
      <point x="164" y="663" type="line"/>
      <point x="445" y="663" type="line" smooth="yes"/>
      <point x="599" y="663"/>
      <point x="668" y="613"/>
      <point x="668" y="500" type="curve" smooth="yes"/>
      <point x="668" y="387"/>
      <point x="598" y="337"/>
      <point x="445" y="337" type="curve" smooth="yes"/>
    </contour>
  </outline>
</glyph>
<glyph name="T" format="2">
  <advance width="722"/>
  <unicode hex="0054"/>
  <anchor x="361" y="0" name="bottom"/>
  <anchor x="361" y="358" name="center"/>
  <anchor x="361" y="705" name="top"/>
  <outline>
    <contour>
      <point x="338" y="0" type="line"/>
      <point x="384" y="0" type="line"/>
      <point x="384" y="663" type="line"/>
      <point x="722" y="663" type="line"/>
      <point x="722" y="705" type="line"/>
      <point x="0" y="705" type="line"/>
      <point x="0" y="663" type="line"/>
      <point x="338" y="663" type="line"/>
    </contour>
  </outline>
</glyph>
<glyph name="X" format="2">
  <advance width="778"/>
  <unicode hex="0058"/>
  <anchor x="390" y="0" name="bottom"/>
  <anchor x="390" y="705" name="top"/>
  <outline>
    <contour>
      <point x="28" y="0" type="line"/>
      <point x="88" y="0" type="line"/>
      <point x="399" y="339" type="line"/>
      <point x="377" y="339" type="line"/>
      <point x="689" y="0" type="line"/>
      <point x="749" y="0" type="line"/>
      <point x="412" y="368" type="line"/>
      <point x="412" y="356" type="line"/>
      <point x="731" y="705" type="line"/>
      <point x="671" y="705" type="line"/>
      <point x="386" y="389" type="line"/>
      <point x="397" y="389" type="line"/>
      <point x="106" y="705" type="line"/>
      <point x="46" y="705" type="line"/>
      <point x="366" y="356" type="line"/>
      <point x="366" y="368" type="line"/>
    </contour>
  </outline>
</glyph>
<glyph name="Y" format="2">
  <advance width="710"/>
  <unicode hex="0059"/>
  <anchor x="354" y="0" name="bottom"/>
  <anchor x="354" y="705" name="top"/>
  <anchor x="17" y="705" name="topleft"/>
  <outline>
    <contour>
      <point x="331" y="0" type="line"/>
      <point x="377" y="0" type="line"/>
      <point x="377" y="357" type="line"/>
      <point x="366" y="326" type="line"/>
      <point x="713" y="705" type="line"/>
      <point x="661" y="705" type="line"/>
      <point x="348" y="365" type="line"/>
      <point x="365" y="365" type="line"/>
      <point x="55" y="705" type="line"/>
      <point x="-3" y="705" type="line"/>
      <point x="344" y="326" type="line"/>
      <point x="331" y="357" type="line"/>
    </contour>
  </outline>
</glyph>
<glyph name="bracketleft" format="2">
  <advance width="338"/>
  <unicode hex="005B"/>
  <outline>
    <contour>
      <point x="136" y="-180" type="line"/>
      <point x="337" y="-180" type="line"/>
      <point x="337" y="-140" type="line"/>
      <point x="182" y="-140" type="line"/>
      <point x="182" y="665" type="line"/>
      <point x="337" y="665" type="line"/>
      <point x="337" y="705" type="line"/>
      <point x="136" y="705" type="line"/>
    </contour>
  </outline>
</glyph>
<glyph name="underscore" format="2">
  <advance width="617"/>
  <unicode hex="005F"/>
  <outline>
    <contour>
      <point x="21" y="-35" type="line"/>
      <point x="596" y="-35" type="line"/>
      <point x="596" y="0" type="line"/>
      <point x="21" y="0" type="line"/>
    </contour>
  </outline>
</glyph>
<glyph name="a" format="2">
  <advance width="635"/>
  <unicode hex="0061"/>
  <anchor x="322" y="0" name="bottom"/>
  <anchor x="531" y="0" name="ogonek"/>
  <anchor x="326" y="484" name="top"/>
  <outline>
    <contour>
      <point x="279" y="-8" type="curve" smooth="yes"/>
      <point x="391" y="-8"/>
      <point x="466" y="44"/>
      <point x="499" y="121" type="curve"/>
      <point x="485" y="120" type="line"/>
      <point x="485" y="0" type="line"/>
      <point x="530" y="0" type="line"/>
      <point x="530" y="319" type="line" smooth="yes"/>
      <point x="530" y="435"/>
      <point x="459" y="492"/>
      <point x="326" y="492" type="curve" smooth="yes"/>
      <point x="244" y="492"/>
      <point x="159" y="468"/>
      <point x="104" y="430" type="curve"/>
      <point x="125" y="390" type="line"/>
      <point x="181" y="430"/>
      <point x="251" y="450"/>
      <point x="326" y="450" type="curve" smooth="yes"/>
      <point x="431" y="450"/>
      <point x="484" y="409"/>
      <point x="484" y="320" type="curve" smooth="yes"/>
      <point x="484" y="201" type="line" smooth="yes"/>
      <point x="484" y="102"/>
      <point x="396" y="32"/>
      <point x="282" y="32" type="curve" smooth="yes"/>
      <point x="189" y="32"/>
      <point x="129" y="75"/>
      <point x="129" y="141" type="curve" smooth="yes"/>
      <point x="129" y="205"/>
      <point x="171" y="237"/>
      <point x="383" y="237" type="curve" smooth="yes"/>
      <point x="498" y="237" type="line"/>
      <point x="498" y="276" type="line"/>
      <point x="380" y="276" type="line" smooth="yes"/>
      <point x="145" y="276"/>
      <point x="79" y="231"/>
      <point x="79" y="140" type="curve" smooth="yes"/>
      <point x="79" y="54"/>
      <point x="162" y="-8"/>
    </contour>
  </outline>
</glyph>
<glyph name="c" format="2">
  <advance width="562"/>
  <unicode hex="0063"/>
  <anchor x="339" y="0" name="bottom"/>
  <anchor x="339" y="484" name="top"/>
  <outline>
    <contour>
      <point x="333" y="-8" type="curve" smooth="yes"/>
      <point x="413" y="-8"/>
      <point x="483" y="17"/>
      <point x="534" y="63" type="curve"/>
      <point x="510" y="99" type="line"/>
      <point x="460" y="56"/>
      <point x="400" y="34"/>
      <point x="332" y="34" type="curve" smooth="yes"/>
      <point x="198" y="34"/>
      <point x="114" y="114"/>
      <point x="114" y="242" type="curve" smooth="yes"/>
      <point x="114" y="369"/>
      <point x="198" y="450"/>
      <point x="332" y="450" type="curve" smooth="yes"/>
      <point x="399" y="450"/>
      <point x="458" y="429"/>
      <point x="510" y="386" type="curve"/>
      <point x="534" y="421" type="line"/>
      <point x="484" y="467"/>
      <point x="414" y="492"/>
      <point x="333" y="492" type="curve" smooth="yes"/>
      <point x="172" y="492"/>
      <point x="66" y="393"/>
      <point x="66" y="242" type="curve" smooth="yes"/>
      <point x="66" y="91"/>
      <point x="172" y="-8"/>
    </contour>
  </outline>
</glyph>
<glyph name="g" format="2">
  <advance width="706"/>
  <unicode hex="0067"/>
  <anchor x="355" y="484" name="top"/>
  <outline>
    <contour>
      <point x="358" y="-188" type="curve" smooth="yes"/>
      <point x="517" y="-188"/>
      <point x="599" y="-117"/>
      <point x="599" y="23" type="curve" smooth="yes"/>
      <point x="599" y="484" type="line"/>
      <point x="553" y="484" type="line"/>
      <point x="553" y="358" type="line"/>
      <point x="566" y="358" type="line"/>
      <point x="539" y="440"/>
      <point x="449" y="492"/>
      <point x="335" y="492" type="curve" smooth="yes"/>
      <point x="172" y="492"/>
      <point x="66" y="398"/>
      <point x="66" y="252" type="curve" smooth="yes"/>
      <point x="66" y="106"/>
      <point x="172" y="12"/>
      <point x="335" y="12" type="curve" smooth="yes"/>
      <point x="449" y="12"/>
      <point x="539" y="64"/>
      <point x="566" y="146" type="curve"/>
      <point x="553" y="146" type="line"/>
      <point x="553" y="16" type="line" smooth="yes"/>
      <point x="553" y="-89"/>
      <point x="485" y="-146"/>
      <point x="359" y="-146" type="curve" smooth="yes"/>
      <point x="265" y="-146"/>
      <point x="201" y="-132"/>
      <point x="126" y="-76" type="curve"/>
      <point x="104" y="-113" type="line"/>
      <point x="170" y="-167"/>
      <point x="258" y="-188"/>
    </contour>
    <contour>
      <point x="334" y="54" type="curve" smooth="yes"/>
      <point x="198" y="54"/>
      <point x="114" y="130"/>
      <point x="114" y="252" type="curve" smooth="yes"/>
      <point x="114" y="374"/>
      <point x="198" y="450"/>
      <point x="334" y="450" type="curve" smooth="yes"/>
      <point x="470" y="450"/>
      <point x="554" y="374"/>
      <point x="554" y="252" type="curve" smooth="yes"/>
      <point x="554" y="130"/>
      <point x="470" y="54"/>
    </contour>
  </outline>
</glyph>
<glyph name="m" format="2">
  <advance width="1044"/>
  <unicode hex="006D"/>
  <anchor x="523" y="0" name="bottom"/>
  <anchor x="523" y="484" name="top"/>
  <outline>
    <contour>
      <point x="109" y="0" type="line"/>
      <point x="155" y="0" type="line"/>
      <point x="155" y="256" type="line" smooth="yes"/>
      <point x="155" y="372"/>
      <point x="228" y="450"/>
      <point x="349" y="450" type="curve" smooth="yes"/>
      <point x="446" y="450"/>
      <point x="500" y="406"/>
      <point x="500" y="279" type="curve" smooth="yes"/>
      <point x="500" y="0" type="line"/>
      <point x="546" y="0" type="line"/>
      <point x="546" y="256" type="line" smooth="yes"/>
      <point x="546" y="372"/>
      <point x="619" y="450"/>
      <point x="740" y="450" type="curve" smooth="yes"/>
      <point x="837" y="450"/>
      <point x="891" y="406"/>
      <point x="891" y="279" type="curve" smooth="yes"/>
      <point x="891" y="0" type="line"/>
      <point x="937" y="0" type="line"/>
      <point x="937" y="282" type="line" smooth="yes"/>
      <point x="937" y="442"/>
      <point x="857" y="492"/>
      <point x="739" y="492" type="curve" smooth="yes"/>
      <point x="629.882" y="492"/>
      <point x="562.234" y="440.521"/>
      <point x="527" y="362" type="curve"/>
      <point x="538" y="362" type="line"/>
      <point x="514" y="459"/>
      <point x="444" y="492"/>
      <point x="348" y="492" type="curve" smooth="yes"/>
      <point x="243" y="492"/>
      <point x="179" y="440"/>
      <point x="144" y="362" type="curve"/>
      <point x="154" y="362" type="line"/>
      <point x="154" y="484" type="line"/>
      <point x="109" y="484" type="line"/>
    </contour>
  </outline>
</glyph>
<glyph name="q" format="2">
  <advance width="706"/>
  <unicode hex="0071"/>
  <anchor x="350" y="0" name="bottom"/>
  <anchor x="350" y="484" name="top"/>
  <outline>
    <contour>
      <point x="553" y="-180" type="line"/>
      <point x="599" y="-180" type="line"/>
      <point x="599" y="484" type="line"/>
      <point x="553" y="484" type="line"/>
      <point x="553" y="358" type="line"/>
      <point x="566" y="358" type="line"/>
      <point x="539" y="440"/>
      <point x="449" y="492"/>
      <point x="335" y="492" type="curve" smooth="yes"/>
      <point x="172" y="492"/>
      <point x="66" y="394"/>
      <point x="66" y="242" type="curve" smooth="yes"/>
      <point x="66" y="90"/>
      <point x="172" y="-8"/>
      <point x="335" y="-8" type="curve" smooth="yes"/>
      <point x="449" y="-8"/>
      <point x="539" y="44"/>
      <point x="566" y="126" type="curve"/>
      <point x="553" y="126" type="line"/>
    </contour>
    <contour>
      <point x="334" y="34" type="curve" smooth="yes"/>
      <point x="198" y="34"/>
      <point x="114" y="114"/>
      <point x="114" y="242" type="curve" smooth="yes"/>
      <point x="114" y="370"/>
      <point x="198" y="450"/>
      <point x="334" y="450" type="curve" smooth="yes"/>
      <point x="470" y="450"/>
      <point x="554" y="370"/>
      <point x="554" y="242" type="curve" smooth="yes"/>
      <point x="554" y="114"/>
      <point x="470" y="34"/>
    </contour>
  </outline>
</glyph>
<glyph name="r" format="2">
  <advance width="399"/>
  <unicode hex="0072"/>
  <anchor x="130" y="0" name="bottom"/>
  <anchor x="252" y="484" name="top"/>
  <outline>
    <contour>
      <point x="107" y="0" type="line"/>
      <point x="153" y="0" type="line"/>
      <point x="153" y="283" type="line" smooth="yes"/>
      <point x="153" y="377"/>
      <point x="225" y="442"/>
      <point x="352" y="452" type="curve" smooth="yes"/>
      <point x="391" y="455" type="line"/>
      <point x="385" y="496" type="line"/>
      <point x="360" y="494" type="line" smooth="yes"/>
      <point x="254" y="486"/>
      <point x="176" y="451"/>
      <point x="139" y="365" type="curve"/>
      <point x="152" y="365" type="line"/>
      <point x="152" y="484" type="line"/>
      <point x="107" y="484" type="line"/>
    </contour>
  </outline>
</glyph>
<glyph name="t" format="2">
  <advance width="387"/>
  <unicode hex="0074"/>
  <anchor x="248" y="0" name="bottom"/>
  <anchor x="183" y="271" name="center"/>
  <anchor x="148" y="635" name="top"/>
  <anchor x="273" y="705" name="topright"/>
  <outline>
    <contour>
      <point x="306" y="-8" type="curve" smooth="yes"/>
      <point x="346" y="-8"/>
      <point x="387" y="0"/>
      <point x="404" y="10" type="curve"/>
      <point x="393" y="48" type="line"/>
      <point x="369" y="39"/>
      <point x="340" y="34"/>
      <point x="310" y="34" type="curve" smooth="yes"/>
      <point x="219" y="34"/>
      <point x="171" y="78"/>
      <point x="171" y="170" type="curve" smooth="yes"/>
      <point x="171" y="445" type="line"/>
      <point x="371" y="445" type="line"/>
      <point x="371" y="484" type="line"/>
      <point x="171" y="484" type="line"/>
      <point x="171" y="635" type="line"/>
      <point x="125" y="635" type="line"/>
      <point x="125" y="484" type="line"/>
      <point x="4" y="484" type="line"/>
      <point x="4" y="445" type="line"/>
      <point x="125" y="445" type="line"/>
      <point x="125" y="161" type="line" smooth="yes"/>
      <point x="125" y="52"/>
      <point x="195" y="-8"/>
    </contour>
  </outline>
</glyph>
<glyph name="x" format="2">
  <advance width="621"/>
  <unicode hex="0078"/>
  <anchor x="311" y="0" name="bottom"/>
  <anchor x="311" y="484" name="top"/>
  <outline>
    <contour>
      <point x="35" y="0" type="line"/>
      <point x="97" y="0" type="line"/>
      <point x="320" y="225" type="line"/>
      <point x="302" y="225" type="line"/>
      <point x="522" y="0" type="line"/>
      <point x="588" y="0" type="line"/>
      <point x="331" y="260" type="line"/>
      <point x="331" y="239" type="line"/>
      <point x="574" y="484" type="line"/>
      <point x="512" y="484" type="line"/>
      <point x="303" y="272" type="line"/>
      <point x="320" y="272" type="line"/>
      <point x="113" y="484" type="line"/>
      <point x="48" y="484" type="line"/>
      <point x="294" y="236" type="line"/>
      <point x="294" y="264" type="line"/>
    </contour>
  </outline>
</glyph>
<glyph name="y" format="2">
  <advance width="620"/>
  <unicode hex="0079"/>
  <anchor x="457" y="0" name="bottom"/>
  <anchor x="310" y="484" name="top"/>
  <outline>
    <contour>
      <point x="189" y="-180" type="line"/>
      <point x="242" y="-180" type="line"/>
      <point x="595" y="484" type="line"/>
      <point x="541" y="484" type="line"/>
      <point x="300" y="21" type="line"/>
      <point x="322" y="21" type="line"/>
      <point x="81" y="484" type="line"/>
      <point x="25" y="484" type="line"/>
      <point x="294" y="-21" type="line"/>
      <point x="294" y="15" type="line"/>
    </contour>
  </outline>
</glyph>
<glyph name="z" format="2">
  <advance width="558"/>
  <unicode hex="007A"/>
  <anchor x="289" y="0" name="bottom"/>
  <anchor x="289" y="484" name="top"/>
  <outline>
    <contour>
      <point x="72" y="0" type="line"/>
      <point x="520" y="0" type="line"/>
      <point x="520" y="39" type="line"/>
      <point x="117" y="39" type="line"/>
      <point x="117" y="22" type="line"/>
      <point x="506" y="452" type="line"/>
      <point x="506" y="484" type="line"/>
      <point x="72" y="484" type="line"/>
      <point x="72" y="445" type="line"/>
      <point x="461" y="445" type="line"/>
      <point x="461" y="462" type="line"/>
      <point x="72" y="32" type="line"/>
    </contour>
  </outline>
</glyph>
<glyph name="asciitilde" format="2">
  <advance width="748"/>
  <unicode hex="007E"/>
  <outline>
    <contour>
      <point x="506" y="222" type="curve" smooth="yes"/>
      <point x="567" y="222"/>
      <point x="604" y="246"/>
      <point x="645" y="316" type="curve"/>
      <point x="604" y="335" type="line"/>
      <point x="573" y="280"/>
      <point x="550" y="264"/>
      <point x="508" y="264" type="curve" smooth="yes"/>
      <point x="481" y="264"/>
      <point x="456" y="275"/>
      <point x="389" y="305" type="curve" smooth="yes"/>
      <point x="307" y="341"/>
      <point x="278" y="351"/>
      <point x="240" y="351" type="curve" smooth="yes"/>
      <point x="182" y="351"/>
      <point x="144" y="327"/>
      <point x="103" y="257" type="curve"/>
      <point x="144" y="238" type="line"/>
      <point x="175" y="293"/>
      <point x="198" y="309"/>
      <point x="242" y="309" type="curve" smooth="yes"/>
      <point x="273" y="309"/>
      <point x="290" y="299"/>
      <point x="359" y="268" type="curve" smooth="yes"/>
      <point x="438" y="232"/>
      <point x="467" y="222"/>
    </contour>
  </outline>
</glyph>
<glyph name="exclamdown" format="2">
  <advance width="252"/>
  <unicode hex="00A1"/>
  <outline>
    <contour>
      <point x="96" y="-180" type="line"/>
      <point x="156" y="-180" type="line"/>
      <point x="141" y="319" type="line"/>
      <point x="111" y="319" type="line"/>
    </contour>
    <contour>
      <point x="88" y="410" type="line"/>
      <point x="164" y="410" type="line"/>
      <point x="164" y="484" type="line"/>
      <point x="88" y="484" type="line"/>
    </contour>
  </outline>
</glyph>
<glyph name="sterling" format="2">
  <advance width="748"/>
  <unicode hex="00A3"/>
  <outline>
    <contour>
      <point x="67" y="0" type="line"/>
      <point x="683" y="0" type="line"/>
      <point x="683" y="42" type="line"/>
      <point x="254" y="42" type="line"/>
      <point x="254" y="334" type="line"/>
      <point x="496" y="334" type="line"/>
      <point x="496" y="372" type="line"/>
      <point x="254" y="372" type="line"/>
      <point x="254" y="523" type="line" smooth="yes"/>
      <point x="254" y="627"/>
      <point x="319" y="669"/>
      <point x="443" y="669" type="curve" smooth="yes"/>
      <point x="539" y="669"/>
      <point x="610" y="642"/>
      <point x="669" y="583" type="curve"/>
      <point x="699" y="623" type="line"/>
      <point x="638" y="681"/>
      <point x="544" y="713"/>
      <point x="453" y="713" type="curve" smooth="yes"/>
      <point x="291" y="713"/>
      <point x="208" y="653"/>
      <point x="208" y="521" type="curve" smooth="yes"/>
      <point x="208" y="372" type="line"/>
      <point x="67" y="372" type="line"/>
      <point x="67" y="334" type="line"/>
      <point x="208" y="334" type="line"/>
      <point x="208" y="42" type="line"/>
      <point x="67" y="42" type="line"/>
    </contour>
  </outline>
</glyph>
<glyph name="yen" format="2">
  <advance width="748"/>
  <unicode hex="00A5"/>
  <outline>
    <contour>
      <point x="351" y="0" type="line"/>
      <point x="397" y="0" type="line"/>
      <point x="397" y="188" type="line"/>
      <point x="653" y="188" type="line"/>
      <point x="653" y="226" type="line"/>
      <point x="397" y="226" type="line"/>
      <point x="397" y="338" type="line"/>
      <point x="653" y="338" type="line"/>
      <point x="653" y="376" type="line"/>
      <point x="423" y="376" type="line"/>
      <point x="423" y="369" type="line"/>
      <point x="741" y="705" type="line"/>
      <point x="685" y="705" type="line"/>
      <point x="365" y="365" type="line"/>
      <point x="383" y="365" type="line"/>
      <point x="63" y="705" type="line"/>
      <point x="7" y="705" type="line"/>
      <point x="325" y="369" type="line"/>
      <point x="325" y="376" type="line"/>
      <point x="95" y="376" type="line"/>
      <point x="95" y="338" type="line"/>
      <point x="351" y="338" type="line"/>
      <point x="351" y="226" type="line"/>
      <point x="95" y="226" type="line"/>
      <point x="95" y="188" type="line"/>
      <point x="351" y="188" type="line"/>
    </contour>
  </outline>
</glyph>
<glyph name="section" format="2">
  <advance width="642"/>
  <unicode hex="00A7"/>
  <outline>
    <contour>
      <point x="294" y="-188" type="curve" smooth="yes"/>
      <point x="443" y="-188"/>
      <point x="535" y="-122"/>
      <point x="535" y="-14" type="curve" smooth="yes"/>
      <point x="535" y="15"/>
      <point x="529" y="40"/>
      <point x="516" y="66" type="curve"/>
      <point x="510" y="51" type="line"/>
      <point x="558" y="86"/>
      <point x="585" y="135"/>
      <point x="585" y="187" type="curve" smooth="yes"/>
      <point x="585" y="262"/>
      <point x="541" y="303"/>
      <point x="406" y="356" type="curve" smooth="yes"/>
      <point x="288" y="402" type="line" smooth="yes"/>
      <point x="197" y="437"/>
      <point x="156" y="480"/>
      <point x="156" y="541" type="curve" smooth="yes"/>
      <point x="156" y="622"/>
      <point x="226" y="671"/>
      <point x="343" y="671" type="curve" smooth="yes"/>
      <point x="420" y="671"/>
      <point x="499" y="646"/>
      <point x="546" y="607" type="curve"/>
      <point x="571" y="643" type="line"/>
      <point x="523" y="686"/>
      <point x="439" y="712"/>
      <point x="348" y="712" type="curve" smooth="yes"/>
      <point x="199" y="712"/>
      <point x="107" y="646"/>
      <point x="107" y="538" type="curve" smooth="yes"/>
      <point x="107" y="509"/>
      <point x="113" y="484"/>
      <point x="126" y="458" type="curve"/>
      <point x="132" y="473" type="line"/>
      <point x="84" y="438"/>
      <point x="57" y="389"/>
      <point x="57" y="337" type="curve" smooth="yes"/>
      <point x="57" y="262"/>
      <point x="101" y="221"/>
      <point x="236" y="168" type="curve" smooth="yes"/>
      <point x="354" y="122" type="line" smooth="yes"/>
      <point x="445" y="87"/>
      <point x="486" y="44"/>
      <point x="486" y="-17" type="curve" smooth="yes"/>
      <point x="486" y="-98"/>
      <point x="416" y="-147"/>
      <point x="299" y="-147" type="curve" smooth="yes"/>
      <point x="213" y="-147"/>
      <point x="131" y="-123"/>
      <point x="81" y="-83" type="curve"/>
      <point x="56" y="-119" type="line"/>
      <point x="106" y="-163"/>
      <point x="192" y="-188"/>
    </contour>
    <contour>
      <point x="103" y="347" type="curve" smooth="yes"/>
      <point x="103" y="386"/>
      <point x="122" y="418"/>
      <point x="160" y="442" type="curve"/>
      <point x="137" y="443" type="line"/>
      <point x="165" y="409"/>
      <point x="220" y="381"/>
      <point x="288" y="355" type="curve" smooth="yes"/>
      <point x="387" y="317" type="line" smooth="yes"/>
      <point x="504" y="272"/>
      <point x="539" y="239"/>
      <point x="539" y="177" type="curve" smooth="yes"/>
      <point x="539" y="138"/>
      <point x="520" y="106"/>
      <point x="482" y="82" type="curve"/>
      <point x="505" y="81" type="line"/>
      <point x="477" y="115"/>
      <point x="422" y="143"/>
      <point x="354" y="169" type="curve" smooth="yes"/>
      <point x="255" y="207" type="line" smooth="yes"/>
      <point x="139" y="252"/>
      <point x="103" y="285"/>
    </contour>
  </outline>
</glyph>
<glyph name="plusminus" format="2">
  <advance width="748"/>
  <unicode hex="00B1"/>
  <outline>
    <contour>
      <point x="351" y="114" type="line"/>
      <point x="397" y="114" type="line"/>
      <point x="397" y="303" type="line"/>
      <point x="645" y="303" type="line"/>
      <point x="645" y="343" type="line"/>
      <point x="397" y="343" type="line"/>
      <point x="397" y="532" type="line"/>
      <point x="351" y="532" type="line"/>
      <point x="351" y="343" type="line"/>
      <point x="103" y="343" type="line"/>
      <point x="103" y="303" type="line"/>
      <point x="351" y="303" type="line"/>
    </contour>
    <contour>
      <point x="103" y="0" type="line"/>
      <point x="645" y="0" type="line"/>
      <point x="645" y="40" type="line"/>
      <point x="103" y="40" type="line"/>
    </contour>
  </outline>
</glyph>
<glyph name="micro" format="2">
  <advance width="679"/>
  <unicode hex="00B5"/>
  <outline>
    <contour>
      <point x="105" y="-180" type="line"/>
      <point x="151" y="-180" type="line"/>
      <point x="147" y="79" type="line"/>
      <point x="137" y="79" type="line"/>
      <point x="169" y="15"/>
      <point x="236" y="-8"/>
      <point x="318" y="-8" type="curve" smooth="yes"/>
      <point x="431" y="-8"/>
      <point x="501" y="43"/>
      <point x="537" y="122" type="curve"/>
      <point x="527" y="122" type="line"/>
      <point x="527" y="0" type="line"/>
      <point x="572" y="0" type="line"/>
      <point x="572" y="484" type="line"/>
      <point x="526" y="484" type="line"/>
      <point x="526" y="228" type="line" smooth="yes"/>
      <point x="526" y="112"/>
      <point x="448" y="34"/>
      <point x="317" y="34" type="curve" smooth="yes"/>
      <point x="211" y="34"/>
      <point x="151" y="78"/>
      <point x="151" y="205" type="curve" smooth="yes"/>
      <point x="151" y="484" type="line"/>
      <point x="105" y="484" type="line"/>
    </contour>
  </outline>
</glyph>
<glyph name="paragraph" format="2">
  <advance width="682"/>
  <unicode hex="00B6"/>
  <outline>
    <contour>
      <point x="294" y="-180" type="line"/>
      <point x="340" y="-180" type="line"/>
      <point x="340" y="664" type="line"/>
      <point x="518" y="664" type="line"/>
      <point x="518" y="-180" type="line"/>
      <point x="564" y="-180" type="line"/>
      <point x="564" y="705" type="line"/>
      <point x="295" y="705" type="line" smooth="yes"/>
      <point x="151" y="705"/>
      <point x="62" y="634"/>
      <point x="62" y="519" type="curve" smooth="yes"/>
      <point x="62" y="404"/>
      <point x="151" y="332"/>
      <point x="294" y="332" type="curve"/>
    </contour>
  </outline>
</glyph>
<glyph name="questiondown" format="2">
  <advance width="526"/>
  <unicode hex="00BF"/>
  <outline>
    <contour>
      <point x="253" y="-187" type="curve" smooth="yes"/>
      <point x="360" y="-187"/>
      <point x="464" y="-149"/>
      <point x="527" y="-86" type="curve"/>
      <point x="502" y="-47" type="line"/>
      <point x="429" y="-112"/>
      <point x="349" y="-143"/>
      <point x="254" y="-143" type="curve" smooth="yes"/>
      <point x="145" y="-143"/>
      <point x="86" y="-107"/>
      <point x="86" y="-40" type="curve" smooth="yes"/>
      <point x="86" y="7"/>
      <point x="115" y="50"/>
      <point x="185" y="107" type="curve" smooth="yes"/>
      <point x="280" y="184"/>
      <point x="302" y="240"/>
      <point x="302" y="299" type="curve" smooth="yes"/>
      <point x="302" y="319" type="line"/>
      <point x="272" y="319" type="line"/>
      <point x="270" y="297" type="line" smooth="yes"/>
      <point x="265" y="247"/>
      <point x="244" y="208"/>
      <point x="151" y="133" type="curve" smooth="yes"/>
      <point x="69" y="66"/>
      <point x="37" y="17"/>
      <point x="37" y="-41" type="curve" smooth="yes"/>
      <point x="37" y="-132"/>
      <point x="119" y="-187"/>
    </contour>
    <contour>
      <point x="249" y="410" type="line"/>
      <point x="325" y="410" type="line"/>
      <point x="325" y="484" type="line"/>
      <point x="249" y="484" type="line"/>
    </contour>
  </outline>
</glyph>
<glyph name="multiply" format="2">
  <advance width="748"/>
  <unicode hex="00D7"/>
  <outline>
    <contour>
      <point x="161" y="45" type="line"/>
      <point x="374" y="258" type="line"/>
      <point x="587" y="45" type="line"/>
      <point x="616" y="74" type="line"/>
      <point x="402" y="286" type="line"/>
      <point x="616" y="500" type="line"/>
      <point x="587" y="529" type="line"/>
      <point x="373" y="315" type="line"/>
      <point x="157" y="529" type="line"/>
      <point x="132" y="500" type="line"/>
      <point x="345" y="287" type="line"/>
      <point x="132" y="74" type="line"/>
    </contour>
  </outline>
</glyph>
<glyph name="divide" format="2">
  <advance width="748"/>
  <unicode hex="00F7"/>
  <outline>
    <contour>
      <point x="103" y="267" type="line"/>
      <point x="645" y="267" type="line"/>
      <point x="645" y="307" type="line"/>
      <point x="103" y="307" type="line"/>
    </contour>
    <contour>
      <point x="336" y="49" type="line"/>
      <point x="412" y="49" type="line"/>
      <point x="412" y="123" type="line"/>
      <point x="336" y="123" type="line"/>
    </contour>
    <contour>
      <point x="336" y="451" type="line"/>
      <point x="412" y="451" type="line"/>
      <point x="412" y="525" type="line"/>
      <point x="336" y="525" type="line"/>
    </contour>
  </outline>
</glyph>
<glyph name="hbar" format="2">
  <advance width="687"/>
  <unicode hex="0127"/>
  <outline>
    <contour>
      <point x="107" y="0" type="line"/>
      <point x="153" y="0" type="line"/>
      <point x="153" y="269" type="line" smooth="yes"/>
      <point x="153" y="375"/>
      <point x="236" y="450"/>
      <point x="372" y="450" type="curve" smooth="yes"/>
      <point x="477" y="450"/>
      <point x="536" y="406"/>
      <point x="536" y="294" type="curve" smooth="yes"/>
      <point x="536" y="0" type="line"/>
      <point x="582" y="0" type="line"/>
      <point x="582" y="298" type="line" smooth="yes"/>
      <point x="582" y="425"/>
      <point x="512" y="492"/>
      <point x="372" y="492" type="curve" smooth="yes"/>
      <point x="254" y="492"/>
      <point x="172" y="444"/>
      <point x="138" y="358" type="curve"/>
      <point x="153" y="358" type="line"/>
      <point x="153" y="560" type="line"/>
      <point x="397" y="560" type="line"/>
      <point x="397" y="599" type="line"/>
      <point x="153" y="599" type="line"/>
      <point x="153" y="705" type="line"/>
      <point x="107" y="705" type="line"/>
      <point x="107" y="599" type="line"/>
      <point x="-16" y="599" type="line"/>
      <point x="-16" y="560" type="line"/>
      <point x="107" y="560" type="line"/>
    </contour>
  </outline>
</glyph>
<glyph name="Eng" format="2">
  <advance width="906"/>
  <unicode hex="014A"/>
  <anchor x="453" y="0" name="bottom"/>
  <anchor x="453" y="705" name="top"/>
  <outline>
    <contour>
      <point x="561" y="-193" type="line"/>
      <point x="615" y="-190" type="line" smooth="yes"/>
      <point x="726" y="-184"/>
      <point x="788" y="-122"/>
      <point x="788" y="-19" type="curve" smooth="yes"/>
      <point x="788" y="705" type="line"/>
      <point x="744" y="705" type="line"/>
      <point x="744" y="46" type="line"/>
      <point x="763" y="46" type="line"/>
      <point x="159" y="705" type="line"/>
      <point x="118" y="705" type="line"/>
      <point x="118" y="0" type="line"/>
      <point x="162" y="0" type="line"/>
      <point x="162" y="659" type="line"/>
      <point x="144" y="659" type="line"/>
      <point x="747" y="0" type="line"/>
      <point x="744" y="31" type="line"/>
      <point x="744" y="-21" type="line" smooth="yes"/>
      <point x="744" y="-98"/>
      <point x="697" y="-144"/>
      <point x="609" y="-149" type="curve" smooth="yes"/>
      <point x="558" y="-152" type="line"/>
    </contour>
  </outline>
</glyph>
<glyph name="OE" format="2">
  <advance width="1288"/>
  <unicode hex="0152"/>
  <anchor x="727" y="0" name="bottom"/>
  <anchor x="727" y="705" name="top"/>
  <outline>
    <contour>
      <point x="511" y="0" type="curve" smooth="yes"/>
      <point x="1230" y="0" type="line"/>
      <point x="1230" y="42" type="line"/>
      <point x="750" y="42" type="line"/>
      <point x="750" y="337" type="line"/>
      <point x="1205" y="337" type="line"/>
      <point x="1205" y="379" type="line"/>
      <point x="750" y="379" type="line"/>
      <point x="750" y="663" type="line"/>
      <point x="1230" y="663" type="line"/>
      <point x="1230" y="705" type="line"/>
      <point x="511" y="705" type="line" smooth="yes"/>
      <point x="237" y="705"/>
      <point x="81" y="586"/>
      <point x="81" y="352" type="curve" smooth="yes"/>
      <point x="81" y="119"/>
      <point x="236" y="0"/>
    </contour>
    <contour>
      <point x="515" y="42" type="line" smooth="yes"/>
      <point x="263" y="42"/>
      <point x="130" y="140"/>
      <point x="130" y="352" type="curve" smooth="yes"/>
      <point x="130" y="565"/>
      <point x="263" y="663"/>
      <point x="515" y="663" type="curve" smooth="yes"/>
      <point x="704" y="663" type="line"/>
      <point x="704" y="42" type="line"/>
    </contour>
  </outline>
</glyph>
<glyph name="oe" format="2">
  <advance width="1127"/>
  <unicode hex="0153"/>
  <anchor x="578" y="0" name="bottom"/>
  <anchor x="578" y="484" name="top"/>
  <outline>
    <contour>
      <point x="334" y="-8" type="curve" smooth="yes"/>
      <point x="463" y="-8"/>
      <point x="557" y="53"/>
      <point x="590" y="158" type="curve"/>
      <point x="565" y="158" type="line"/>
      <point x="597" y="53"/>
      <point x="695" y="-8"/>
      <point x="831" y="-8" type="curve" smooth="yes"/>
      <point x="927" y="-8"/>
      <point x="1016" y="21"/>
      <point x="1060" y="66" type="curve"/>
      <point x="1039" y="102" type="line"/>
      <point x="984" y="55"/>
      <point x="921" y="34"/>
      <point x="839" y="34" type="curve" smooth="yes"/>
      <point x="685" y="34"/>
      <point x="602" y="108"/>
      <point x="602" y="240" type="curve" smooth="yes"/>
      <point x="602" y="246" type="line" smooth="yes"/>
      <point x="602" y="372"/>
      <point x="689" y="452"/>
      <point x="824" y="452" type="curve" smooth="yes"/>
      <point x="954" y="452"/>
      <point x="1027" y="383"/>
      <point x="1027" y="260" type="curve"/>
      <point x="1048" y="272" type="line"/>
      <point x="582" y="272" type="line"/>
      <point x="582" y="233" type="line"/>
      <point x="1070" y="233" type="line"/>
      <point x="1070" y="260" type="line" smooth="yes"/>
      <point x="1070" y="406"/>
      <point x="979" y="492"/>
      <point x="825" y="492" type="curve" smooth="yes"/>
      <point x="698" y="492"/>
      <point x="601" y="429"/>
      <point x="567" y="324" type="curve"/>
      <point x="590" y="324" type="line"/>
      <point x="559" y="429"/>
      <point x="463" y="492"/>
      <point x="334" y="492" type="curve" smooth="yes"/>
      <point x="172" y="492"/>
      <point x="66" y="394"/>
      <point x="66" y="242" type="curve" smooth="yes"/>
      <point x="66" y="90"/>
      <point x="172" y="-8"/>
    </contour>
    <contour>
      <point x="334" y="34" type="curve" smooth="yes"/>
      <point x="198" y="34"/>
      <point x="114" y="113"/>
      <point x="114" y="242" type="curve" smooth="yes"/>
      <point x="114" y="371"/>
      <point x="198" y="450"/>
      <point x="334" y="450" type="curve" smooth="yes"/>
      <point x="470" y="450"/>
      <point x="554" y="371"/>
      <point x="554" y="242" type="curve" smooth="yes"/>
      <point x="554" y="113"/>
      <point x="470" y="34"/>
    </contour>
  </outline>
</glyph>
<glyph name="Bhook" format="2">
  <advance width="949"/>
  <unicode hex="0181"/>
  <outline>
    <contour>
      <point x="244" y="0" type="line"/>
      <point x="594" y="0" type="line" smooth="yes"/>
      <point x="770" y="0"/>
      <point x="863" y="65"/>
      <point x="863" y="188" type="curve" smooth="yes"/>
      <point x="863" y="295"/>
      <point x="792" y="356"/>
      <point x="657" y="365" type="curve"/>
      <point x="657" y="351" type="line"/>
      <point x="780" y="369"/>
      <point x="843" y="428"/>
      <point x="843" y="524" type="curve" smooth="yes"/>
      <point x="843" y="642"/>
      <point x="750" y="705"/>
      <point x="578" y="705" type="curve" smooth="yes"/>
      <point x="209" y="705" type="line" smooth="yes"/>
      <point x="64" y="705"/>
      <point x="0" y="658"/>
      <point x="0" y="552" type="curve" smooth="yes"/>
      <point x="0" y="504" type="line"/>
      <point x="44" y="504" type="line"/>
      <point x="44" y="552" type="line" smooth="yes"/>
      <point x="44" y="630"/>
      <point x="90" y="663"/>
      <point x="201" y="663" type="curve" smooth="yes"/>
      <point x="244" y="663" type="line"/>
    </contour>
    <contour>
      <point x="290" y="42" type="line"/>
      <point x="290" y="336" type="line"/>
      <point x="596" y="336" type="line" smooth="yes"/>
      <point x="738" y="336"/>
      <point x="814" y="285"/>
      <point x="814" y="190" type="curve" smooth="yes"/>
      <point x="814" y="95"/>
      <point x="735" y="42"/>
      <point x="593" y="42" type="curve" smooth="yes"/>
    </contour>
    <contour>
      <point x="290" y="378" type="line"/>
      <point x="290" y="663" type="line"/>
      <point x="576" y="663" type="line" smooth="yes"/>
      <point x="723" y="663"/>
      <point x="794" y="616"/>
      <point x="794" y="520" type="curve" smooth="yes"/>
      <point x="794" y="424"/>
      <point x="724" y="378"/>
      <point x="578" y="378" type="curve" smooth="yes"/>
    </contour>
  </outline>
</glyph>
<glyph name="Dhook" format="2">
  <advance width="1022"/>
  <unicode hex="018A"/>
  <outline>
    <contour>
      <point x="244" y="0" type="line"/>
      <point x="527" y="0" type="line" smooth="yes"/>
      <point x="801" y="0"/>
      <point x="941" y="119"/>
      <point x="941" y="353" type="curve" smooth="yes"/>
      <point x="941" y="586"/>
      <point x="802" y="705"/>
      <point x="527" y="705" type="curve" smooth="yes"/>
      <point x="209" y="705" type="line" smooth="yes"/>
      <point x="64" y="705"/>
      <point x="0" y="658"/>
      <point x="0" y="552" type="curve" smooth="yes"/>
      <point x="0" y="504" type="line"/>
      <point x="44" y="504" type="line"/>
      <point x="44" y="552" type="line" smooth="yes"/>
      <point x="44" y="630"/>
      <point x="90" y="663"/>
      <point x="201" y="663" type="curve" smooth="yes"/>
      <point x="244" y="663" type="line"/>
    </contour>
    <contour>
      <point x="290" y="42" type="line"/>
      <point x="290" y="663" type="line"/>
      <point x="523" y="663" type="line" smooth="yes"/>
      <point x="775" y="663"/>
      <point x="892" y="565"/>
      <point x="892" y="353" type="curve" smooth="yes"/>
      <point x="892" y="140"/>
      <point x="775" y="42"/>
      <point x="523" y="42" type="curve" smooth="yes"/>
    </contour>
  </outline>
</glyph>
<glyph name="Schwa" format="2">
  <advance width="926"/>
  <unicode hex="018F"/>
  <anchor x="458" y="0" name="bottom"/>
  <anchor x="458" y="705" name="top"/>
  <outline>
    <contour>
      <point x="463" y="-8" type="curve" smooth="yes"/>
      <point x="695" y="-8"/>
      <point x="845" y="126"/>
      <point x="845" y="358" type="curve" smooth="yes"/>
      <point x="845" y="584"/>
      <point x="702" y="713"/>
      <point x="443" y="713" type="curve" smooth="yes"/>
      <point x="310" y="713"/>
      <point x="194" y="678"/>
      <point x="113" y="610" type="curve"/>
      <point x="139" y="572" type="line"/>
      <point x="224" y="640"/>
      <point x="318" y="669"/>
      <point x="437" y="669" type="curve" smooth="yes"/>
      <point x="674" y="669"/>
      <point x="796" y="559"/>
      <point x="796" y="358" type="curve" smooth="yes"/>
      <point x="796" y="155"/>
      <point x="672" y="36"/>
      <point x="462" y="36" type="curve" smooth="yes"/>
      <point x="253" y="36"/>
      <point x="129" y="154"/>
      <point x="129" y="353" type="curve"/>
      <point x="116" y="335" type="line"/>
      <point x="800" y="335" type="line"/>
      <point x="800" y="377" type="line"/>
      <point x="81" y="377" type="line"/>
      <point x="81" y="349" type="line" smooth="yes"/>
      <point x="81" y="130"/>
      <point x="228" y="-8"/>
    </contour>
  </outline>
</glyph>
<glyph name="Yhook" format="2">
  <advance width="710"/>
  <unicode hex="01B3"/>
  <outline>
    <contour>
      <point x="331" y="0" type="line"/>
      <point x="377" y="0" type="line"/>
      <point x="377" y="357" type="line"/>
      <point x="366" y="326" type="line"/>
      <point x="629" y="620" type="line" smooth="yes"/>
      <point x="663" y="658"/>
      <point x="695" y="673"/>
      <point x="741" y="673" type="curve" smooth="yes"/>
      <point x="759" y="673"/>
      <point x="775" y="670"/>
      <point x="799" y="664" type="curve"/>
      <point x="799" y="704" type="line"/>
      <point x="773" y="711"/>
      <point x="760" y="713"/>
      <point x="743" y="713" type="curve" smooth="yes"/>
      <point x="684" y="713"/>
      <point x="642" y="694"/>
      <point x="598" y="645" type="curve" smooth="yes"/>
      <point x="348" y="365" type="line"/>
      <point x="365" y="365" type="line"/>
      <point x="55" y="705" type="line"/>
      <point x="-3" y="705" type="line"/>
      <point x="344" y="326" type="line"/>
      <point x="331" y="357" type="line"/>
    </contour>
  </outline>
</glyph>
<glyph name="yhook" format="2">
  <advance width="680"/>
  <unicode hex="01B4"/>
  <outline>
    <contour>
      <point x="455" y="319" type="curve" smooth="yes"/>
      <point x="300" y="21" type="line"/>
      <point x="322" y="21" type="line"/>
      <point x="81" y="484" type="line"/>
      <point x="25" y="484" type="line"/>
      <point x="290" y="-13" type="line"/>
      <point x="291" y="9" type="line"/>
      <point x="189" y="-180" type="line"/>
      <point x="242" y="-180" type="line"/>
      <point x="508" y="321" type="line" smooth="yes"/>
      <point x="565" y="428"/>
      <point x="595" y="451"/>
      <point x="657" y="451" type="curve" smooth="yes"/>
      <point x="673" y="451"/>
      <point x="687" y="449"/>
      <point x="701" y="445" type="curve"/>
      <point x="707" y="485" type="line"/>
      <point x="689" y="490"/>
      <point x="672" y="492"/>
      <point x="650" y="492" type="curve" smooth="yes"/>
      <point x="554" y="492"/>
      <point x="522" y="447"/>
    </contour>
  </outline>
</glyph>
<glyph name="bhook" format="2">
  <advance width="706"/>
  <unicode hex="0253"/>
  <outline>
    <contour>
      <point x="374" y="-8" type="curve" smooth="yes"/>
      <point x="532" y="-8"/>
      <point x="640" y="90"/>
      <point x="640" y="242" type="curve" smooth="yes"/>
      <point x="640" y="394"/>
      <point x="532" y="492"/>
      <point x="374" y="492" type="curve" smooth="yes"/>
      <point x="259" y="492"/>
      <point x="171" y="438"/>
      <point x="141" y="355" type="curve"/>
      <point x="153" y="355" type="line"/>
      <point x="153" y="559" type="line" smooth="yes"/>
      <point x="153" y="632"/>
      <point x="197" y="672"/>
      <point x="285" y="672" type="curve" smooth="yes"/>
      <point x="300" y="672"/>
      <point x="310" y="671"/>
      <point x="331" y="666" type="curve"/>
      <point x="337" y="706" type="line"/>
      <point x="319" y="711"/>
      <point x="302" y="713"/>
      <point x="280" y="713" type="curve" smooth="yes"/>
      <point x="169" y="713"/>
      <point x="107" y="657"/>
      <point x="107" y="557" type="curve" smooth="yes"/>
      <point x="107" y="0" type="line"/>
      <point x="153" y="0" type="line"/>
      <point x="153" y="129" type="line"/>
      <point x="141" y="129" type="line"/>
      <point x="171" y="46"/>
      <point x="259" y="-8"/>
    </contour>
    <contour>
      <point x="372" y="34" type="curve" smooth="yes"/>
      <point x="236" y="34"/>
      <point x="152" y="114"/>
      <point x="152" y="242" type="curve" smooth="yes"/>
      <point x="152" y="370"/>
      <point x="236" y="450"/>
      <point x="372" y="450" type="curve" smooth="yes"/>
      <point x="508" y="450"/>
      <point x="592" y="370"/>
      <point x="592" y="242" type="curve" smooth="yes"/>
      <point x="592" y="114"/>
      <point x="508" y="34"/>
    </contour>
  </outline>
</glyph>
<glyph name="commaturnedmod" format="2">
  <advance width="500"/>
  <unicode hex="02BB"/>
  <anchor x="251" y="484" name="_top"/>
  <anchor x="251" y="685" name="top"/>
  <outline>
    <contour>
      <point x="211" y="570" type="line"/>
      <point x="287" y="570" type="line"/>
      <point x="287" y="644" type="line"/>
      <point x="240" y="644" type="line"/>
      <point x="255" y="637" type="line"/>
      <point x="255" y="673"/>
      <point x="265" y="694"/>
      <point x="290" y="721" type="curve"/>
      <point x="262" y="744" type="line"/>
      <point x="228" y="714"/>
      <point x="211" y="679"/>
      <point x="211" y="627" type="curve" smooth="yes"/>
    </contour>
  </outline>
</glyph>
<glyph name="ringhalfleft" format="2">
  <advance width="500"/>
  <unicode hex="02BF"/>
  <anchor x="250" y="484" name="_top"/>
  <anchor x="250" y="685" name="top"/>
  <outline>
    <contour>
      <point x="250" y="554" type="curve"/>
      <point x="250" y="590" type="line"/>
      <point x="215" y="590"/>
      <point x="184" y="614"/>
      <point x="184" y="650" type="curve" smooth="yes"/>
      <point x="184" y="687"/>
      <point x="213" y="710"/>
      <point x="250" y="710" type="curve"/>
      <point x="250" y="747" type="line"/>
      <point x="188" y="747"/>
      <point x="143" y="708"/>
      <point x="143" y="650" type="curve" smooth="yes"/>
      <point x="143" y="593"/>
      <point x="189" y="554"/>
    </contour>
  </outline>
</glyph>
<glyph name="secondtonechinese" format="2">
  <advance width="500"/>
  <unicode hex="02CA"/>
  <anchor x="250" y="484" name="_top"/>
  <anchor x="250" y="242" name="top"/>
  <outline>
    <contour>
      <point x="229" y="549" type="line"/>
      <point x="270" y="549" type="line"/>
      <point x="421" y="757" type="line"/>
      <point x="359" y="757" type="line"/>
    </contour>
  </outline>
</glyph>
<glyph name="fourthtofinechinese" format="2">
  <advance width="500"/>
  <unicode hex="02CB"/>
  <anchor x="250" y="484" name="_top"/>
  <anchor x="250" y="685" name="top"/>
  <outline>
    <contour>
      <point x="230" y="549" type="line"/>
      <point x="271" y="549" type="line"/>
      <point x="141" y="757" type="line"/>
      <point x="79" y="757" type="line"/>
    </contour>
  </outline>
</glyph>
<glyph name="gravecomb" format="2">
  <unicode hex="0300"/>
  <anchor x="0" y="484" name="_top"/>
  <anchor x="0" y="685" name="top"/>
  <outline>
    <contour>
      <point x="-20" y="549" type="line"/>
      <point x="21" y="549" type="line"/>
      <point x="-109" y="757" type="line"/>
      <point x="-171" y="757" type="line"/>
    </contour>
  </outline>
</glyph>
<glyph name="brevecomb" format="2">
  <unicode hex="0306"/>
  <anchor x="0" y="484" name="_top"/>
  <anchor x="0" y="685" name="top"/>
  <outline>
    <contour>
      <point x="-1" y="547" type="curve" smooth="yes"/>
      <point x="105" y="547"/>
      <point x="166" y="611"/>
      <point x="178" y="741" type="curve"/>
      <point x="139" y="746" type="line"/>
      <point x="130" y="636"/>
      <point x="86" y="585"/>
      <point x="-1" y="585" type="curve" smooth="yes"/>
      <point x="-88" y="585"/>
      <point x="-132" y="636"/>
      <point x="-141" y="746" type="curve"/>
      <point x="-180" y="741" type="line"/>
      <point x="-168" y="611"/>
      <point x="-107" y="547"/>
    </contour>
  </outline>
</glyph>
<glyph name="dieresiscomb" format="2">
  <unicode hex="0308"/>
  <anchor x="0" y="484" name="_top"/>
  <anchor x="0" y="685" name="top"/>
  <outline>
    <contour>
      <point x="66" y="618" type="line"/>
      <point x="136" y="618" type="line"/>
      <point x="136" y="684" type="line"/>
      <point x="66" y="684" type="line"/>
    </contour>
    <contour>
      <point x="-136" y="618" type="line"/>
      <point x="-66" y="618" type="line"/>
      <point x="-66" y="684" type="line"/>
      <point x="-136" y="684" type="line"/>
    </contour>
  </outline>
</glyph>
<glyph name="ringcomb" format="2">
  <unicode hex="030A"/>
  <anchor x="0" y="484" name="_top"/>
  <anchor x="0" y="685" name="top"/>
  <outline>
    <contour>
      <point x="-1" y="547" type="curve" smooth="yes"/>
      <point x="70" y="547"/>
      <point x="124" y="597"/>
      <point x="124" y="665" type="curve" smooth="yes"/>
      <point x="124" y="733"/>
      <point x="70" y="783"/>
      <point x="-1" y="783" type="curve" smooth="yes"/>
      <point x="-72" y="783"/>
      <point x="-126" y="733"/>
      <point x="-126" y="665" type="curve" smooth="yes"/>
      <point x="-126" y="597"/>
      <point x="-72" y="547"/>
    </contour>
    <contour>
      <point x="-1" y="580" type="curve" smooth="yes"/>
      <point x="-51" y="580"/>
      <point x="-87" y="615"/>
      <point x="-87" y="665" type="curve" smooth="yes"/>
      <point x="-87" y="715"/>
      <point x="-51" y="750"/>
      <point x="-1" y="750" type="curve" smooth="yes"/>
      <point x="49" y="750"/>
      <point x="85" y="715"/>
      <point x="85" y="665" type="curve" smooth="yes"/>
      <point x="85" y="615"/>
      <point x="49" y="580"/>
    </contour>
  </outline>
</glyph>
<glyph name="dblgravecomb" format="2">
  <unicode hex="030F"/>
  <anchor x="0" y="484" name="_top"/>
  <anchor x="0" y="685" name="top"/>
  <outline>
    <contour>
      <point x="51" y="549" type="line"/>
      <point x="81" y="549" type="line"/>
      <point x="8" y="757" type="line"/>
      <point x="-47" y="757" type="line"/>
    </contour>
    <contour>
      <point x="-83" y="549" type="line"/>
      <point x="-52" y="549" type="line"/>
      <point x="-125" y="757" type="line"/>
      <point x="-181" y="757" type="line"/>
    </contour>
  </outline>
</glyph>
<glyph name="commaturnedabovecomb" format="2">
  <unicode hex="0312"/>
  <anchor x="0" y="484" name="_top"/>
  <anchor x="0" y="685" name="top"/>
  <outline>
    <contour>
      <point x="-40" y="570" type="line"/>
      <point x="36" y="570" type="line"/>
      <point x="36" y="644" type="line"/>
      <point x="-11" y="644" type="line"/>
      <point x="4" y="637" type="line"/>
      <point x="4" y="673"/>
      <point x="14" y="694"/>
      <point x="39" y="721" type="curve"/>
      <point x="11" y="744" type="line"/>
      <point x="-23" y="714"/>
      <point x="-40" y="679"/>
      <point x="-40" y="627" type="curve" smooth="yes"/>
    </contour>
  </outline>
</glyph>
<glyph name="horncomb" format="2">
  <unicode hex="031B"/>
  <anchor x="0" y="484" name="_topright"/>
  <outline>
    <contour>
      <point x="15" y="451" type="line"/>
      <point x="137" y="452"/>
      <point x="197" y="496"/>
      <point x="197" y="595" type="curve" smooth="yes"/>
      <point x="197" y="616" type="line"/>
      <point x="152" y="616" type="line"/>
      <point x="152" y="604" type="line" smooth="yes"/>
      <point x="152" y="515"/>
      <point x="114" y="485"/>
      <point x="0" y="484" type="curve"/>
      <point x="0" y="466" type="line"/>
    </contour>
  </outline>
</glyph>
<glyph name="cedillacomb" format="2">
  <unicode hex="0327"/>
  <anchor x="0" y="0" name="_bottom"/>
  <outline>
    <contour>
      <point x="11" y="-190" type="curve" smooth="yes"/>
      <point x="95" y="-190"/>
      <point x="144" y="-161"/>
      <point x="144" y="-111" type="curve" smooth="yes"/>
      <point x="144" y="-69"/>
      <point x="110" y="-46"/>
      <point x="49" y="-46" type="curve" smooth="yes"/>
      <point x="35" y="-46"/>
      <point x="19" y="-48"/>
      <point x="-9" y="-54" type="curve"/>
      <point x="11" y="-55" type="line"/>
      <point x="24" y="20" type="line"/>
      <point x="-19" y="20" type="line"/>
      <point x="-34" y="-75" type="line"/>
      <point x="-18" y="-89" type="line"/>
      <point x="5" y="-81"/>
      <point x="27" y="-79"/>
      <point x="48" y="-79" type="curve" smooth="yes"/>
      <point x="83" y="-79"/>
      <point x="99" y="-89"/>
      <point x="99" y="-110" type="curve" smooth="yes"/>
      <point x="99" y="-138"/>
      <point x="72" y="-153"/>
      <point x="13" y="-153" type="curve" smooth="yes"/>
      <point x="-18" y="-153"/>
      <point x="-39" y="-149"/>
      <point x="-72" y="-136" type="curve"/>
      <point x="-83" y="-171" type="line"/>
      <point x="-62" y="-183"/>
      <point x="-27" y="-190"/>
    </contour>
  </outline>
</glyph>
<glyph name="ogonekcomb" format="2">
  <unicode hex="0328"/>
  <anchor x="0" y="0" name="_ogonek"/>
  <outline>
    <contour>
      <point x="-19" y="-190" type="curve" smooth="yes"/>
      <point x="14" y="-190"/>
      <point x="47" y="-183"/>
      <point x="66" y="-172" type="curve"/>
      <point x="50" y="-139" type="line"/>
      <point x="27" y="-148"/>
      <point x="6" y="-153"/>
      <point x="-17" y="-153" type="curve" smooth="yes"/>
      <point x="-65" y="-153"/>
      <point x="-93" y="-130"/>
      <point x="-93" y="-95" type="curve" smooth="yes"/>
      <point x="-93" y="-55"/>
      <point x="-58" y="-20"/>
      <point x="0" y="0" type="curve"/>
      <point x="-18" y="24" type="line"/>
      <point x="-98" y="-3"/>
      <point x="-137" y="-44"/>
      <point x="-137" y="-97" type="curve" smooth="yes"/>
      <point x="-137" y="-154"/>
      <point x="-93" y="-190"/>
    </contour>
  </outline>
</glyph>
<glyph name="brevebelowcomb" format="2">
  <unicode hex="032E"/>
  <anchor x="0" y="0" name="_bottom"/>
  <anchor x="0" y="-170" name="bottom"/>
  <outline>
    <contour>
      <point x="-1" y="-215" type="curve" smooth="yes"/>
      <point x="101" y="-215"/>
      <point x="164" y="-160"/>
      <point x="178" y="-61" type="curve"/>
      <point x="139" y="-56" type="line"/>
      <point x="128" y="-135"/>
      <point x="81" y="-177"/>
      <point x="-1" y="-177" type="curve" smooth="yes"/>
      <point x="-83" y="-177"/>
      <point x="-130" y="-135"/>
      <point x="-141" y="-56" type="curve"/>
      <point x="-180" y="-61" type="line"/>
      <point x="-166" y="-160"/>
      <point x="-103" y="-215"/>
    </contour>
  </outline>
</glyph>
<glyph name="slashshortcomb" format="2">
  <unicode hex="0337"/>
  <anchor x="0" y="357" name="_center"/>
  <outline>
    <contour>
      <point x="-132" y="272" type="line"/>
      <point x="151" y="406" type="line"/>
      <point x="134" y="442" type="line"/>
      <point x="-149" y="307" type="line"/>
    </contour>
  </outline>
</glyph>
<glyph name="Dje-cy" format="2">
  <advance width="1009"/>
  <unicode hex="0402"/>
  <outline>
    <contour>
      <point x="704" y="-188" type="curve" smooth="yes"/>
      <point x="859" y="-188"/>
      <point x="935" y="-117"/>
      <point x="935" y="30" type="curve" smooth="yes"/>
      <point x="935" y="159" type="line" smooth="yes"/>
      <point x="935" y="341"/>
      <point x="834" y="431"/>
      <point x="632" y="431" type="curve" smooth="yes"/>
      <point x="532" y="431"/>
      <point x="439" y="415"/>
      <point x="384" y="387" type="curve"/>
      <point x="384" y="663" type="line"/>
      <point x="722" y="663" type="line"/>
      <point x="722" y="705" type="line"/>
      <point x="0" y="705" type="line"/>
      <point x="0" y="663" type="line"/>
      <point x="338" y="663" type="line"/>
      <point x="338" y="0" type="line"/>
      <point x="384" y="0" type="line"/>
      <point x="384" y="341" type="line"/>
      <point x="450" y="371"/>
      <point x="533" y="387"/>
      <point x="623" y="387" type="curve" smooth="yes"/>
      <point x="806" y="387"/>
      <point x="889" y="314"/>
      <point x="889" y="153" type="curve" smooth="yes"/>
      <point x="889" y="29" type="line" smooth="yes"/>
      <point x="889" y="-92"/>
      <point x="831" y="-146"/>
      <point x="704" y="-146" type="curve" smooth="yes"/>
      <point x="662" y="-146"/>
      <point x="619" y="-139"/>
      <point x="581" y="-127" type="curve"/>
      <point x="566" y="-167" type="line"/>
      <point x="602" y="-180"/>
      <point x="654" y="-188"/>
    </contour>
  </outline>
</glyph>
<glyph name="Lje-cy" format="2">
  <advance width="1398"/>
  <unicode hex="0409"/>
  <outline>
    <contour>
      <point x="39" y="-13" type="line"/>
      <point x="217" y="58"/>
      <point x="286" y="197"/>
      <point x="286" y="484" type="curve" smooth="yes"/>
      <point x="286" y="663" type="line"/>
      <point x="715" y="663" type="line"/>
      <point x="715" y="0" type="line"/>
      <point x="1062" y="0" type="line" smooth="yes"/>
      <point x="1244" y="0"/>
      <point x="1334" y="64"/>
      <point x="1334" y="192" type="curve" smooth="yes"/>
      <point x="1334" y="319"/>
      <point x="1244" y="380"/>
      <point x="1062" y="380" type="curve" smooth="yes"/>
      <point x="761" y="380" type="line"/>
      <point x="761" y="705" type="line"/>
      <point x="240" y="705" type="line"/>
      <point x="240" y="495" type="line" smooth="yes"/>
      <point x="240" y="218"/>
      <point x="182" y="94"/>
      <point x="21" y="28" type="curve"/>
    </contour>
    <contour>
      <point x="761" y="42" type="line"/>
      <point x="761" y="338" type="line"/>
      <point x="1062" y="338" type="line" smooth="yes"/>
      <point x="1216" y="338"/>
      <point x="1285" y="293"/>
      <point x="1285" y="191" type="curve" smooth="yes"/>
      <point x="1285" y="88"/>
      <point x="1216" y="42"/>
      <point x="1062" y="42" type="curve" smooth="yes"/>
    </contour>
  </outline>
</glyph>
<glyph name="Nje-cy" format="2">
  <advance width="1447"/>
  <unicode hex="040A"/>
  <outline>
    <contour>
      <point x="118" y="0" type="line"/>
      <point x="164" y="0" type="line"/>
      <point x="164" y="337" type="line"/>
      <point x="764" y="337" type="line"/>
      <point x="764" y="0" type="line"/>
      <point x="1111" y="0" type="line" smooth="yes"/>
      <point x="1293" y="0"/>
      <point x="1383" y="64"/>
      <point x="1383" y="192" type="curve" smooth="yes"/>
      <point x="1383" y="319"/>
      <point x="1293" y="380"/>
      <point x="1111" y="380" type="curve" smooth="yes"/>
      <point x="810" y="380" type="line"/>
      <point x="810" y="705" type="line"/>
      <point x="764" y="705" type="line"/>
      <point x="764" y="379" type="line"/>
      <point x="164" y="379" type="line"/>
      <point x="164" y="705" type="line"/>
      <point x="118" y="705" type="line"/>
    </contour>
    <contour>
      <point x="810" y="42" type="line"/>
      <point x="810" y="338" type="line"/>
      <point x="1111" y="338" type="line" smooth="yes"/>
      <point x="1265" y="338"/>
      <point x="1334" y="293"/>
      <point x="1334" y="191" type="curve" smooth="yes"/>
      <point x="1334" y="88"/>
      <point x="1265" y="42"/>
      <point x="1111" y="42" type="curve" smooth="yes"/>
    </contour>
  </outline>
</glyph>
<glyph name="Tshe-cy" format="2">
  <advance width="1031"/>
  <unicode hex="040B"/>
  <outline>
    <contour>
      <point x="338" y="0" type="line"/>
      <point x="384" y="0" type="line"/>
      <point x="384" y="341" type="line"/>
      <point x="450" y="371"/>
      <point x="533" y="387"/>
      <point x="623" y="387" type="curve" smooth="yes"/>
      <point x="823" y="387"/>
      <point x="911" y="317"/>
      <point x="911" y="157" type="curve" smooth="yes"/>
      <point x="911" y="0" type="line"/>
      <point x="957" y="0" type="line"/>
      <point x="957" y="163" type="line" smooth="yes"/>
      <point x="957" y="344"/>
      <point x="850" y="431"/>
      <point x="632" y="431" type="curve" smooth="yes"/>
      <point x="535" y="431"/>
      <point x="443" y="414"/>
      <point x="384" y="387" type="curve"/>
      <point x="384" y="663" type="line"/>
      <point x="722" y="663" type="line"/>
      <point x="722" y="705" type="line"/>
      <point x="0" y="705" type="line"/>
      <point x="0" y="663" type="line"/>
      <point x="338" y="663" type="line"/>
    </contour>
  </outline>
</glyph>
<glyph name="Dzhe-cy" format="2">
  <advance width="923"/>
  <unicode hex="040F"/>
  <outline>
    <contour>
      <point x="440" y="-151" type="line"/>
      <point x="484" y="-151" type="line"/>
      <point x="484" y="0" type="line"/>
      <point x="805" y="0" type="line"/>
      <point x="805" y="705" type="line"/>
      <point x="759" y="705" type="line"/>
      <point x="759" y="42" type="line"/>
      <point x="164" y="42" type="line"/>
      <point x="164" y="705" type="line"/>
      <point x="118" y="705" type="line"/>
      <point x="118" y="0" type="line"/>
      <point x="440" y="0" type="line"/>
    </contour>
  </outline>
</glyph>
<glyph name="Zhe-cy" format="2">
  <advance width="1148"/>
  <unicode hex="0416"/>
  <anchor x="1078" y="0" name="bottomright"/>
  <anchor x="574" y="705" name="top"/>
  <outline>
    <contour>
      <point x="16" y="0" type="line"/>
      <point x="69" y="0" type="line"/>
      <point x="194" y="210" type="line" smooth="yes"/>
      <point x="249" y="303"/>
      <point x="312" y="337"/>
      <point x="419" y="337" type="curve" smooth="yes"/>
      <point x="551" y="337" type="line"/>
      <point x="551" y="0" type="line"/>
      <point x="597" y="0" type="line"/>
      <point x="597" y="337" type="line"/>
      <point x="729" y="337" type="line" smooth="yes"/>
      <point x="836" y="337"/>
      <point x="899" y="303"/>
      <point x="954" y="210" type="curve" smooth="yes"/>
      <point x="1079" y="0" type="line"/>
      <point x="1132" y="0" type="line"/>
      <point x="986" y="240" type="line" smooth="yes"/>
      <point x="931" y="330"/>
      <point x="867" y="370"/>
      <point x="770" y="376" type="curve"/>
      <point x="782" y="359" type="line"/>
      <point x="1082" y="705" type="line"/>
      <point x="1026" y="705" type="line"/>
      <point x="732" y="364" type="line"/>
      <point x="758" y="379" type="line"/>
      <point x="597" y="379" type="line"/>
      <point x="597" y="705" type="line"/>
      <point x="551" y="705" type="line"/>
      <point x="551" y="379" type="line"/>
      <point x="390" y="379" type="line"/>
      <point x="416" y="364" type="line"/>
      <point x="122" y="705" type="line"/>
      <point x="66" y="705" type="line"/>
      <point x="366" y="359" type="line"/>
      <point x="378" y="376" type="line"/>
      <point x="281" y="370"/>
      <point x="216" y="330"/>
      <point x="162" y="240" type="curve" smooth="yes"/>
    </contour>
  </outline>
</glyph>
<glyph name="Ii-cy" format="2">
  <advance width="906"/>
  <unicode hex="0418"/>
  <anchor x="746" y="0" name="bottomright"/>
  <anchor x="453" y="705" name="top"/>
  <outline>
    <contour>
      <point x="118" y="0" type="line"/>
      <point x="160" y="0" type="line"/>
      <point x="761" y="659" type="line"/>
      <point x="744" y="659" type="line"/>
      <point x="744" y="0" type="line"/>
      <point x="788" y="0" type="line"/>
      <point x="788" y="705" type="line"/>
      <point x="746" y="705" type="line"/>
      <point x="144" y="46" type="line"/>
      <point x="162" y="46" type="line"/>
      <point x="162" y="705" type="line"/>
      <point x="118" y="705" type="line"/>
    </contour>
  </outline>
</glyph>
<glyph name="Pe-cy" format="2">
  <advance width="923"/>
  <unicode hex="041F"/>
  <anchor x="760" y="0" name="bottomright"/>
  <outline>
    <contour>
      <point x="118" y="0" type="line"/>
      <point x="164" y="0" type="line"/>
      <point x="164" y="663" type="line"/>
      <point x="759" y="663" type="line"/>
      <point x="759" y="0" type="line"/>
      <point x="805" y="0" type="line"/>
      <point x="805" y="705" type="line"/>
      <point x="118" y="705" type="line"/>
    </contour>
  </outline>
</glyph>
<glyph name="U-cy" format="2">
  <advance width="774"/>
  <unicode hex="0423"/>
  <anchor x="387" y="705" name="top"/>
  <outline>
    <contour>
      <point x="263" y="0" type="line"/>
      <point x="315" y="0" type="line"/>
      <point x="771" y="705" type="line"/>
      <point x="719" y="705" type="line"/>
      <point x="421" y="244" type="line"/>
      <point x="432" y="244" type="line"/>
      <point x="66" y="705" type="line"/>
      <point x="10" y="705" type="line"/>
      <point x="409" y="199" type="line"/>
      <point x="408" y="224" type="line"/>
    </contour>
  </outline>
</glyph>
<glyph name="Tse-cy" format="2">
  <advance width="955"/>
  <unicode hex="0426"/>
  <outline>
    <contour>
      <point x="886" y="-151" type="line"/>
      <point x="930" y="-151" type="line"/>
      <point x="930" y="42" type="line"/>
      <point x="805" y="42" type="line"/>
      <point x="805" y="705" type="line"/>
      <point x="759" y="705" type="line"/>
      <point x="759" y="42" type="line"/>
      <point x="164" y="42" type="line"/>
      <point x="164" y="705" type="line"/>
      <point x="118" y="705" type="line"/>
      <point x="118" y="0" type="line"/>
      <point x="886" y="0" type="line"/>
    </contour>
  </outline>
</glyph>
<glyph name="Sha-cy" format="2">
  <advance width="1289"/>
  <unicode hex="0428"/>
  <outline>
    <contour>
      <point x="118" y="0" type="line"/>
      <point x="1171" y="0" type="line"/>
      <point x="1171" y="705" type="line"/>
      <point x="1124" y="705" type="line"/>
      <point x="1124" y="42" type="line"/>
      <point x="667" y="42" type="line"/>
      <point x="667" y="705" type="line"/>
      <point x="621" y="705" type="line"/>
      <point x="621" y="42" type="line"/>
      <point x="164" y="42" type="line"/>
      <point x="164" y="705" type="line"/>
      <point x="118" y="705" type="line"/>
    </contour>
  </outline>
</glyph>
<glyph name="Shcha-cy" format="2">
  <advance width="1319"/>
  <unicode hex="0429"/>
  <outline>
    <contour>
      <point x="1250" y="-151" type="line"/>
      <point x="1294" y="-151" type="line"/>
      <point x="1294" y="42" type="line"/>
      <point x="1171" y="42" type="line"/>
      <point x="1171" y="705" type="line"/>
      <point x="1124" y="705" type="line"/>
      <point x="1124" y="42" type="line"/>
      <point x="667" y="42" type="line"/>
      <point x="667" y="705" type="line"/>
      <point x="621" y="705" type="line"/>
      <point x="621" y="42" type="line"/>
      <point x="164" y="42" type="line"/>
      <point x="164" y="705" type="line"/>
      <point x="118" y="705" type="line"/>
      <point x="118" y="0" type="line"/>
      <point x="1250" y="0" type="line"/>
    </contour>
  </outline>
</glyph>
<glyph name="Hardsign-cy" format="2">
  <advance width="959"/>
  <unicode hex="042A"/>
  <outline>
    <contour>
      <point x="276" y="0" type="line"/>
      <point x="623" y="0" type="line" smooth="yes"/>
      <point x="805" y="0"/>
      <point x="895" y="64"/>
      <point x="895" y="192" type="curve" smooth="yes"/>
      <point x="895" y="319"/>
      <point x="805" y="380"/>
      <point x="623" y="380" type="curve" smooth="yes"/>
      <point x="322" y="380" type="line"/>
      <point x="322" y="705" type="line"/>
      <point x="0" y="705" type="line"/>
      <point x="0" y="663" type="line"/>
      <point x="276" y="663" type="line"/>
    </contour>
    <contour>
      <point x="322" y="42" type="line"/>
      <point x="322" y="338" type="line"/>
      <point x="623" y="338" type="line" smooth="yes"/>
      <point x="777" y="338"/>
      <point x="846" y="293"/>
      <point x="846" y="191" type="curve" smooth="yes"/>
      <point x="846" y="88"/>
      <point x="777" y="42"/>
      <point x="623" y="42" type="curve" smooth="yes"/>
    </contour>
  </outline>
</glyph>
<glyph name="Yeru-cy" format="2">
  <advance width="1002"/>
  <unicode hex="042B"/>
  <anchor x="501" y="705" name="top"/>
  <outline>
    <contour>
      <point x="118" y="0" type="line"/>
      <point x="427" y="0" type="line" smooth="yes"/>
      <point x="609" y="0"/>
      <point x="699" y="64"/>
      <point x="699" y="192" type="curve" smooth="yes"/>
      <point x="699" y="319"/>
      <point x="609" y="380"/>
      <point x="427" y="380" type="curve" smooth="yes"/>
      <point x="164" y="380" type="line"/>
      <point x="164" y="705" type="line"/>
      <point x="118" y="705" type="line"/>
    </contour>
    <contour>
      <point x="164" y="42" type="line"/>
      <point x="164" y="338" type="line"/>
      <point x="427" y="338" type="line" smooth="yes"/>
      <point x="581" y="338"/>
      <point x="650" y="293"/>
      <point x="650" y="191" type="curve" smooth="yes"/>
      <point x="650" y="88"/>
      <point x="581" y="42"/>
      <point x="427" y="42" type="curve" smooth="yes"/>
    </contour>
    <contour>
      <point x="838" y="0" type="line"/>
      <point x="884" y="0" type="line"/>
      <point x="884" y="705" type="line"/>
      <point x="838" y="705" type="line"/>
    </contour>
  </outline>
</glyph>
<glyph name="Softsign-cy" format="2">
  <advance width="801"/>
  <unicode hex="042C"/>
  <outline>
    <contour>
      <point x="118" y="0" type="line"/>
      <point x="465" y="0" type="line" smooth="yes"/>
      <point x="647" y="0"/>
      <point x="737" y="64"/>
      <point x="737" y="192" type="curve" smooth="yes"/>
      <point x="737" y="319"/>
      <point x="647" y="380"/>
      <point x="465" y="380" type="curve" smooth="yes"/>
      <point x="164" y="380" type="line"/>
      <point x="164" y="705" type="line"/>
      <point x="118" y="705" type="line"/>
    </contour>
    <contour>
      <point x="164" y="42" type="line"/>
      <point x="164" y="338" type="line"/>
      <point x="465" y="338" type="line" smooth="yes"/>
      <point x="619" y="338"/>
      <point x="688" y="293"/>
      <point x="688" y="191" type="curve" smooth="yes"/>
      <point x="688" y="88"/>
      <point x="619" y="42"/>
      <point x="465" y="42" type="curve" smooth="yes"/>
    </contour>
  </outline>
</glyph>
<glyph name="Iu-cy" format="2">
  <advance width="1217"/>
  <unicode hex="042E"/>
  <outline>
    <contour>
      <point x="762" y="-8" type="curve" smooth="yes"/>
      <point x="993" y="-8"/>
      <point x="1136" y="130"/>
      <point x="1136" y="353" type="curve" smooth="yes"/>
      <point x="1136" y="576"/>
      <point x="993" y="713"/>
      <point x="762" y="713" type="curve" smooth="yes"/>
      <point x="540" y="713"/>
      <point x="400" y="586"/>
      <point x="389" y="379" type="curve"/>
      <point x="164" y="379" type="line"/>
      <point x="164" y="705" type="line"/>
      <point x="118" y="705" type="line"/>
      <point x="118" y="0" type="line"/>
      <point x="164" y="0" type="line"/>
      <point x="164" y="337" type="line"/>
      <point x="388" y="337" type="line"/>
      <point x="395" y="123"/>
      <point x="536" y="-8"/>
    </contour>
    <contour>
      <point x="762" y="36" type="curve" smooth="yes"/>
      <point x="558" y="36"/>
      <point x="437" y="154"/>
      <point x="437" y="352" type="curve" smooth="yes"/>
      <point x="437" y="550"/>
      <point x="559" y="669"/>
      <point x="762" y="669" type="curve" smooth="yes"/>
      <point x="966" y="669"/>
      <point x="1087" y="551"/>
      <point x="1087" y="353" type="curve" smooth="yes"/>
      <point x="1087" y="155"/>
      <point x="965" y="36"/>
    </contour>
  </outline>
</glyph>
<glyph name="Ia-cy" format="2">
  <advance width="814"/>
  <unicode hex="042F"/>
  <outline>
    <contour>
      <point x="55" y="0" type="line"/>
      <point x="109" y="0" type="line"/>
      <point x="262" y="226" type="line" smooth="yes"/>
      <point x="308" y="293"/>
      <point x="344" y="310"/>
      <point x="444" y="310" type="curve" smooth="yes"/>
      <point x="650" y="310" type="line"/>
      <point x="650" y="0" type="line"/>
      <point x="696" y="0" type="line"/>
      <point x="696" y="705" type="line"/>
      <point x="370" y="705" type="line" smooth="yes"/>
      <point x="192" y="705"/>
      <point x="97" y="638"/>
      <point x="97" y="513" type="curve" smooth="yes"/>
      <point x="97" y="384"/>
      <point x="198" y="313"/>
      <point x="382" y="313" type="curve"/>
      <point x="378" y="326" type="line"/>
      <point x="370" y="326" type="line" smooth="yes"/>
      <point x="306" y="326"/>
      <point x="260" y="300"/>
      <point x="220" y="241" type="curve" smooth="yes"/>
    </contour>
    <contour>
      <point x="373" y="352" type="line" smooth="yes"/>
      <point x="218" y="352"/>
      <point x="146" y="402"/>
      <point x="146" y="508" type="curve" smooth="yes"/>
      <point x="146" y="613"/>
      <point x="218" y="663"/>
      <point x="373" y="663" type="curve" smooth="yes"/>
      <point x="650" y="663" type="line"/>
      <point x="650" y="352" type="line"/>
    </contour>
  </outline>
</glyph>
<glyph name="ge-cy" format="2">
  <advance width="507"/>
  <unicode hex="0433"/>
  <anchor x="107" y="0" name="bottomright"/>
  <anchor x="162" y="243" name="center"/>
  <anchor x="285" y="484" name="top"/>
  <outline>
    <contour>
      <point x="107" y="0" type="line"/>
      <point x="153" y="0" type="line"/>
      <point x="153" y="444" type="line"/>
      <point x="497" y="444" type="line"/>
      <point x="497" y="484" type="line"/>
      <point x="107" y="484" type="line"/>
    </contour>
  </outline>
</glyph>
<glyph name="zhe-cy" format="2">
  <advance width="928"/>
  <unicode hex="0436"/>
  <anchor x="868" y="0" name="bottomright"/>
  <anchor x="464" y="484" name="top"/>
  <outline>
    <contour>
      <point x="5" y="0" type="line"/>
      <point x="64" y="0" type="line"/>
      <point x="192" y="167" type="line" smooth="yes"/>
      <point x="238" y="227"/>
      <point x="262" y="232"/>
      <point x="346" y="232" type="curve" smooth="yes"/>
      <point x="441" y="232" type="line"/>
      <point x="441" y="0" type="line"/>
      <point x="487" y="0" type="line"/>
      <point x="487" y="232" type="line"/>
      <point x="582" y="232" type="line" smooth="yes"/>
      <point x="666" y="232"/>
      <point x="690" y="227"/>
      <point x="736" y="167" type="curve" smooth="yes"/>
      <point x="864" y="0" type="line"/>
      <point x="923" y="0" type="line"/>
      <point x="787" y="174" type="line" smooth="yes"/>
      <point x="724" y="254"/>
      <point x="700" y="264"/>
      <point x="629" y="269" type="curve"/>
      <point x="652" y="255" type="line"/>
      <point x="888" y="484" type="line"/>
      <point x="827" y="484" type="line"/>
      <point x="608" y="271" type="line"/>
      <point x="487" y="271" type="line"/>
      <point x="487" y="484" type="line"/>
      <point x="441" y="484" type="line"/>
      <point x="441" y="271" type="line"/>
      <point x="320" y="271" type="line"/>
      <point x="101" y="484" type="line"/>
      <point x="40" y="484" type="line"/>
      <point x="276" y="255" type="line"/>
      <point x="299" y="269" type="line"/>
      <point x="228" y="264"/>
      <point x="204" y="254"/>
      <point x="141" y="174" type="curve" smooth="yes"/>
    </contour>
  </outline>
</glyph>
<glyph name="ii-cy" format="2">
  <advance width="696"/>
  <unicode hex="0438"/>
  <anchor x="546" y="0" name="bottomright"/>
  <anchor x="348" y="484" name="top"/>
  <outline>
    <contour>
      <point x="107" y="0" type="line"/>
      <point x="150" y="0" type="line"/>
      <point x="560" y="438" type="line"/>
      <point x="547" y="438" type="line"/>
      <point x="547" y="0" type="line"/>
      <point x="589" y="0" type="line"/>
      <point x="589" y="484" type="line"/>
      <point x="547" y="484" type="line"/>
      <point x="137" y="45" type="line"/>
      <point x="150" y="45" type="line"/>
      <point x="150" y="484" type="line"/>
      <point x="107" y="484" type="line"/>
    </contour>
  </outline>
</glyph>
<glyph name="ka-cy" format="2">
  <advance width="608"/>
  <unicode hex="043A"/>
  <anchor x="551" y="0" name="bottomright"/>
  <anchor x="293" y="243" name="center"/>
  <anchor x="337" y="484" name="top"/>
  <outline>
    <contour>
      <point x="107" y="0" type="line"/>
      <point x="153" y="0" type="line"/>
      <point x="153" y="232" type="line"/>
      <point x="262" y="232" type="line" smooth="yes"/>
      <point x="346" y="232"/>
      <point x="370" y="227"/>
      <point x="416" y="167" type="curve" smooth="yes"/>
      <point x="544" y="0" type="line"/>
      <point x="603" y="0" type="line"/>
      <point x="467" y="174" type="line" smooth="yes"/>
      <point x="404" y="254"/>
      <point x="380" y="264"/>
      <point x="309" y="269" type="curve"/>
      <point x="332" y="255" type="line"/>
      <point x="568" y="484" type="line"/>
      <point x="507" y="484" type="line"/>
      <point x="288" y="271" type="line"/>
      <point x="153" y="271" type="line"/>
      <point x="153" y="484" type="line"/>
      <point x="107" y="484" type="line"/>
    </contour>
  </outline>
</glyph>
<glyph name="en-cy" format="2">
  <advance width="699"/>
  <unicode hex="043D"/>
  <anchor x="546" y="0" name="bottomright"/>
  <outline>
    <contour>
      <point x="107" y="0" type="line"/>
      <point x="153" y="0" type="line"/>
      <point x="153" y="231" type="line"/>
      <point x="546" y="231" type="line"/>
      <point x="546" y="0" type="line"/>
      <point x="592" y="0" type="line"/>
      <point x="592" y="484" type="line"/>
      <point x="546" y="484" type="line"/>
      <point x="546" y="271" type="line"/>
      <point x="153" y="271" type="line"/>
      <point x="153" y="484" type="line"/>
      <point x="107" y="484" type="line"/>
    </contour>
  </outline>
</glyph>
<glyph name="pe-cy" format="2">
  <advance width="695"/>
  <unicode hex="043F"/>
  <anchor x="542" y="0" name="bottomright"/>
  <outline>
    <contour>
      <point x="107" y="0" type="line"/>
      <point x="153" y="0" type="line"/>
      <point x="153" y="445" type="line"/>
      <point x="542" y="445" type="line"/>
      <point x="542" y="0" type="line"/>
      <point x="588" y="0" type="line"/>
      <point x="588" y="484" type="line"/>
      <point x="107" y="484" type="line"/>
    </contour>
  </outline>
</glyph>
<glyph name="ef-cy" format="2">
  <advance width="932"/>
  <unicode hex="0444"/>
  <outline>
    <contour>
      <point x="443" y="-180" type="line"/>
      <point x="489" y="-180" type="line"/>
      <point x="489" y="126" type="line"/>
      <point x="476" y="126" type="line"/>
      <point x="506" y="38"/>
      <point x="568" y="-8"/>
      <point x="655" y="-8" type="curve" smooth="yes"/>
      <point x="783" y="-8"/>
      <point x="866" y="90"/>
      <point x="866" y="242" type="curve" smooth="yes"/>
      <point x="866" y="394"/>
      <point x="783" y="492"/>
      <point x="655" y="492" type="curve" smooth="yes"/>
      <point x="568" y="492"/>
      <point x="506" y="446"/>
      <point x="476" y="358" type="curve"/>
      <point x="489" y="358" type="line"/>
      <point x="489" y="705" type="line"/>
      <point x="443" y="705" type="line"/>
      <point x="443" y="358" type="line"/>
      <point x="456" y="358" type="line"/>
      <point x="426" y="446"/>
      <point x="364" y="492"/>
      <point x="277" y="492" type="curve" smooth="yes"/>
      <point x="149" y="492"/>
      <point x="66" y="394"/>
      <point x="66" y="242" type="curve" smooth="yes"/>
      <point x="66" y="90"/>
      <point x="149" y="-8"/>
      <point x="277" y="-8" type="curve" smooth="yes"/>
      <point x="364" y="-8"/>
      <point x="426" y="38"/>
      <point x="456" y="126" type="curve"/>
      <point x="443" y="126" type="line"/>
    </contour>
    <contour>
      <point x="282" y="34" type="curve" smooth="yes"/>
      <point x="178" y="34"/>
      <point x="114" y="114"/>
      <point x="114" y="242" type="curve" smooth="yes"/>
      <point x="114" y="370"/>
      <point x="178" y="450"/>
      <point x="282" y="450" type="curve" smooth="yes"/>
      <point x="382" y="450"/>
      <point x="444" y="370"/>
      <point x="444" y="242" type="curve" smooth="yes"/>
      <point x="444" y="114"/>
      <point x="382" y="34"/>
    </contour>
    <contour>
      <point x="650" y="34" type="curve" smooth="yes"/>
      <point x="550" y="34"/>
      <point x="488" y="114"/>
      <point x="488" y="242" type="curve" smooth="yes"/>
      <point x="488" y="370"/>
      <point x="550" y="450"/>
      <point x="650" y="450" type="curve" smooth="yes"/>
      <point x="754" y="450"/>
      <point x="818" y="370"/>
      <point x="818" y="242" type="curve" smooth="yes"/>
      <point x="818" y="114"/>
      <point x="754" y="34"/>
    </contour>
  </outline>
</glyph>
<glyph name="shcha-cy" format="2">
  <advance width="973"/>
  <unicode hex="0449"/>
  <outline>
    <contour>
      <point x="892" y="-130" type="line"/>
      <point x="934" y="-130" type="line"/>
      <point x="934" y="39" type="line"/>
      <point x="841" y="39" type="line"/>
      <point x="841" y="484" type="line"/>
      <point x="795" y="484" type="line"/>
      <point x="795" y="39" type="line"/>
      <point x="497" y="39" type="line"/>
      <point x="497" y="484" type="line"/>
      <point x="451" y="484" type="line"/>
      <point x="451" y="39" type="line"/>
      <point x="153" y="39" type="line"/>
      <point x="153" y="484" type="line"/>
      <point x="107" y="484" type="line"/>
      <point x="107" y="0" type="line"/>
      <point x="892" y="0" type="line"/>
    </contour>
  </outline>
</glyph>
<glyph name="hardsign-cy" format="2">
  <advance width="737"/>
  <unicode hex="044A"/>
  <outline>
    <contour>
      <point x="201" y="0" type="line"/>
      <point x="462" y="0" type="line" smooth="yes"/>
      <point x="607" y="0"/>
      <point x="680" y="51"/>
      <point x="680" y="153" type="curve" smooth="yes"/>
      <point x="680" y="254"/>
      <point x="608" y="302"/>
      <point x="462" y="302" type="curve" smooth="yes"/>
      <point x="247" y="302" type="line"/>
      <point x="247" y="484" type="line"/>
      <point x="-1" y="484" type="line"/>
      <point x="-1" y="444" type="line"/>
      <point x="201" y="444" type="line"/>
    </contour>
    <contour>
      <point x="247" y="38" type="line"/>
      <point x="247" y="264" type="line"/>
      <point x="462" y="264" type="line" smooth="yes"/>
      <point x="579" y="264"/>
      <point x="632" y="230"/>
      <point x="632" y="152" type="curve" smooth="yes"/>
      <point x="632" y="73"/>
      <point x="578" y="38"/>
      <point x="462" y="38" type="curve" smooth="yes"/>
    </contour>
  </outline>
</glyph>
<glyph name="e-cy" format="2">
  <advance width="584"/>
  <unicode hex="0454"/>
  <outline>
    <contour>
      <point x="337" y="-8" type="curve" smooth="yes"/>
      <point x="421" y="-8"/>
      <point x="495" y="17"/>
      <point x="546" y="63" type="curve"/>
      <point x="522" y="99" type="line"/>
      <point x="474" y="56"/>
      <point x="409" y="34"/>
      <point x="335" y="34" type="curve" smooth="yes"/>
      <point x="200" y="34"/>
      <point x="116" y="111"/>
      <point x="114" y="237" type="curve"/>
      <point x="103" y="229" type="line"/>
      <point x="442" y="229" type="line"/>
      <point x="442" y="268" type="line"/>
      <point x="103" y="268" type="line"/>
      <point x="114" y="247" type="line"/>
      <point x="116" y="372"/>
      <point x="201" y="450"/>
      <point x="335" y="450" type="curve" smooth="yes"/>
      <point x="407" y="450"/>
      <point x="472" y="428"/>
      <point x="522" y="386" type="curve"/>
      <point x="546" y="421" type="line"/>
      <point x="498" y="466"/>
      <point x="421" y="492"/>
      <point x="337" y="492" type="curve" smooth="yes"/>
      <point x="172" y="492"/>
      <point x="66" y="394"/>
      <point x="66" y="242" type="curve" smooth="yes"/>
      <point x="66" y="90"/>
      <point x="172" y="-8"/>
    </contour>
  </outline>
</glyph>
<glyph name="lje-cy" format="2">
  <advance width="1064"/>
  <unicode hex="0459"/>
  <outline>
    <contour>
      <point x="55" y="-9" type="line"/>
      <point x="190" y="45"/>
      <point x="229" y="129"/>
      <point x="229" y="365" type="curve" smooth="yes"/>
      <point x="229" y="445" type="line"/>
      <point x="528" y="445" type="line"/>
      <point x="528" y="0" type="line"/>
      <point x="789" y="0" type="line" smooth="yes"/>
      <point x="934" y="0"/>
      <point x="1007" y="51"/>
      <point x="1007" y="153" type="curve" smooth="yes"/>
      <point x="1007" y="254"/>
      <point x="935" y="302"/>
      <point x="789" y="302" type="curve" smooth="yes"/>
      <point x="574" y="302" type="line"/>
      <point x="574" y="484" type="line"/>
      <point x="183" y="484" type="line"/>
      <point x="183" y="367" type="line" smooth="yes"/>
      <point x="183" y="148"/>
      <point x="154" y="82"/>
      <point x="33" y="30" type="curve"/>
    </contour>
    <contour>
      <point x="574" y="38" type="line"/>
      <point x="574" y="264" type="line"/>
      <point x="789" y="264" type="line" smooth="yes"/>
      <point x="906" y="264"/>
      <point x="959" y="230"/>
      <point x="959" y="152" type="curve" smooth="yes"/>
      <point x="959" y="73"/>
      <point x="905" y="38"/>
      <point x="789" y="38" type="curve" smooth="yes"/>
    </contour>
  </outline>
</glyph>
<glyph name="nje-cy" format="2">
  <advance width="1082"/>
  <unicode hex="045A"/>
  <outline>
    <contour>
      <point x="107" y="0" type="line"/>
      <point x="153" y="0" type="line"/>
      <point x="153" y="231" type="line"/>
      <point x="546" y="231" type="line"/>
      <point x="546" y="0" type="line"/>
      <point x="807" y="0" type="line" smooth="yes"/>
      <point x="952" y="0"/>
      <point x="1025" y="51"/>
      <point x="1025" y="153" type="curve" smooth="yes"/>
      <point x="1025" y="254"/>
      <point x="953" y="302"/>
      <point x="807" y="302" type="curve" smooth="yes"/>
      <point x="592" y="302" type="line"/>
      <point x="592" y="484" type="line"/>
      <point x="546" y="484" type="line"/>
      <point x="546" y="271" type="line"/>
      <point x="153" y="271" type="line"/>
      <point x="153" y="484" type="line"/>
      <point x="107" y="484" type="line"/>
    </contour>
    <contour>
      <point x="592" y="38" type="line"/>
      <point x="592" y="264" type="line"/>
      <point x="807" y="264" type="line" smooth="yes"/>
      <point x="924" y="264"/>
      <point x="977" y="230"/>
      <point x="977" y="152" type="curve" smooth="yes"/>
      <point x="977" y="73"/>
      <point x="923" y="38"/>
      <point x="807" y="38" type="curve" smooth="yes"/>
    </contour>
  </outline>
</glyph>
<glyph name="Yat-cy" format="2">
  <advance width="872"/>
  <unicode hex="0462"/>
  <outline>
    <contour>
      <point x="189" y="0" type="line"/>
      <point x="536" y="0" type="line" smooth="yes"/>
      <point x="718" y="0"/>
      <point x="808" y="64"/>
      <point x="808" y="192" type="curve" smooth="yes"/>
      <point x="808" y="319"/>
      <point x="718" y="380"/>
      <point x="536" y="380" type="curve" smooth="yes"/>
      <point x="235" y="380" type="line"/>
      <point x="235" y="547" type="line"/>
      <point x="535" y="547" type="line"/>
      <point x="535" y="589" type="line"/>
      <point x="235" y="589" type="line"/>
      <point x="235" y="705" type="line"/>
      <point x="189" y="705" type="line"/>
      <point x="189" y="589" type="line"/>
      <point x="-29" y="589" type="line"/>
      <point x="-29" y="547" type="line"/>
      <point x="189" y="547" type="line"/>
    </contour>
    <contour>
      <point x="235" y="42" type="line"/>
      <point x="235" y="338" type="line"/>
      <point x="536" y="338" type="line" smooth="yes"/>
      <point x="690" y="338"/>
      <point x="759" y="293"/>
      <point x="759" y="191" type="curve" smooth="yes"/>
      <point x="759" y="88"/>
      <point x="690" y="42"/>
      <point x="536" y="42" type="curve" smooth="yes"/>
    </contour>
  </outline>
</glyph>
<glyph name="yat-cy" format="2">
  <advance width="737"/>
  <unicode hex="0463"/>
  <outline>
    <contour>
      <point x="201" y="0" type="line"/>
      <point x="462" y="0" type="line" smooth="yes"/>
      <point x="607" y="0"/>
      <point x="680" y="51"/>
      <point x="680" y="153" type="curve" smooth="yes"/>
      <point x="680" y="254"/>
      <point x="608" y="302"/>
      <point x="462" y="302" type="curve" smooth="yes"/>
      <point x="247" y="302" type="line"/>
      <point x="247" y="445" type="line"/>
      <point x="446" y="445" type="line"/>
      <point x="446" y="484" type="line"/>
      <point x="247" y="484" type="line"/>
      <point x="247" y="705" type="line"/>
      <point x="201" y="705" type="line"/>
      <point x="201" y="484" type="line"/>
      <point x="-1" y="484" type="line"/>
      <point x="-1" y="445" type="line"/>
      <point x="201" y="445" type="line"/>
    </contour>
    <contour>
      <point x="247" y="38" type="line"/>
      <point x="247" y="264" type="line"/>
      <point x="462" y="264" type="line" smooth="yes"/>
      <point x="579" y="264"/>
      <point x="632" y="230"/>
      <point x="632" y="152" type="curve" smooth="yes"/>
      <point x="632" y="73"/>
      <point x="578" y="38"/>
      <point x="462" y="38" type="curve" smooth="yes"/>
    </contour>
  </outline>
</glyph>
<glyph name="Yusbig-cy" format="2">
  <advance width="1116"/>
  <unicode hex="046A"/>
  <outline>
    <contour>
      <point x="16" y="0" type="line"/>
      <point x="69" y="0" type="line"/>
      <point x="194" y="210" type="line" smooth="yes"/>
      <point x="249" y="303"/>
      <point x="312" y="337"/>
      <point x="419" y="337" type="curve" smooth="yes"/>
      <point x="535" y="337" type="line"/>
      <point x="535" y="0" type="line"/>
      <point x="581" y="0" type="line"/>
      <point x="581" y="337" type="line"/>
      <point x="697" y="337" type="line" smooth="yes"/>
      <point x="804" y="337"/>
      <point x="867" y="303"/>
      <point x="922" y="210" type="curve" smooth="yes"/>
      <point x="1047" y="0" type="line"/>
      <point x="1100" y="0" type="line"/>
      <point x="954" y="240" type="line" smooth="yes"/>
      <point x="899" y="330"/>
      <point x="825" y="379"/>
      <point x="691" y="379" type="curve" smooth="yes"/>
      <point x="581" y="379" type="line"/>
      <point x="602" y="365" type="line"/>
      <point x="969" y="705" type="line"/>
      <point x="146" y="705" type="line"/>
      <point x="513" y="365" type="line"/>
      <point x="535" y="379" type="line"/>
      <point x="425" y="379" type="line" smooth="yes"/>
      <point x="291" y="379"/>
      <point x="217" y="330"/>
      <point x="162" y="240" type="curve" smooth="yes"/>
    </contour>
    <contour>
      <point x="556" y="382" type="line"/>
      <point x="220" y="692" type="line"/>
      <point x="220" y="665" type="line"/>
      <point x="895" y="665" type="line"/>
      <point x="895" y="692" type="line"/>
      <point x="559" y="382" type="line"/>
    </contour>
  </outline>
</glyph>
<glyph name="yusbig-cy" format="2">
  <advance width="920"/>
  <unicode hex="046B"/>
  <outline>
    <contour>
      <point x="5" y="0" type="line"/>
      <point x="64" y="0" type="line"/>
      <point x="192" y="167" type="line" smooth="yes"/>
      <point x="238" y="227"/>
      <point x="262" y="232"/>
      <point x="346" y="232" type="curve" smooth="yes"/>
      <point x="437" y="232" type="line"/>
      <point x="437" y="0" type="line"/>
      <point x="483" y="0" type="line"/>
      <point x="483" y="232" type="line"/>
      <point x="574" y="232" type="line" smooth="yes"/>
      <point x="658" y="232"/>
      <point x="682" y="227"/>
      <point x="728" y="167" type="curve" smooth="yes"/>
      <point x="856" y="0" type="line"/>
      <point x="915" y="0" type="line"/>
      <point x="779" y="174" type="line" smooth="yes"/>
      <point x="716" y="254"/>
      <point x="687" y="271"/>
      <point x="575" y="271" type="curve" smooth="yes"/>
      <point x="483" y="271" type="line"/>
      <point x="495" y="261" type="line"/>
      <point x="735" y="484" type="line"/>
      <point x="185" y="484" type="line"/>
      <point x="425" y="261" type="line"/>
      <point x="437" y="271" type="line"/>
      <point x="345" y="271" type="line" smooth="yes"/>
      <point x="233" y="271"/>
      <point x="204" y="254"/>
      <point x="141" y="174" type="curve" smooth="yes"/>
    </contour>
    <contour>
      <point x="459" y="281" type="line"/>
      <point x="263" y="462" type="line"/>
      <point x="263" y="447" type="line"/>
      <point x="657" y="447" type="line"/>
      <point x="657" y="462" type="line"/>
      <point x="461" y="281" type="line"/>
    </contour>
  </outline>
</glyph>
<glyph name="izhitsa-cy" format="2">
  <advance width="651"/>
  <unicode hex="0475"/>
  <outline>
    <contour>
      <point x="287" y="0" type="line"/>
      <point x="341" y="0" type="line"/>
      <point x="530" y="362" type="line" smooth="yes"/>
      <point x="567" y="433"/>
      <point x="600" y="452"/>
      <point x="682" y="454" type="curve"/>
      <point x="678" y="492" type="line"/>
      <point x="581" y="492"/>
      <point x="532" y="469"/>
      <point x="489" y="384" type="curve" smooth="yes"/>
      <point x="302" y="17" type="line"/>
      <point x="328" y="17" type="line"/>
      <point x="85" y="484" type="line"/>
      <point x="29" y="484" type="line"/>
    </contour>
  </outline>
</glyph>
<glyph name="Semisoftsign-cy" format="2">
  <advance width="860"/>
  <unicode hex="048C"/>
  <outline>
    <contour>
      <point x="176" y="0" type="line"/>
      <point x="512" y="0" type="line" smooth="yes"/>
      <point x="694" y="0"/>
      <point x="796" y="64"/>
      <point x="796" y="192" type="curve" smooth="yes"/>
      <point x="796" y="319"/>
      <point x="694" y="380"/>
      <point x="512" y="380" type="curve" smooth="yes"/>
      <point x="222" y="380" type="line"/>
      <point x="222" y="547" type="line"/>
      <point x="402" y="547" type="line"/>
      <point x="402" y="589" type="line"/>
      <point x="222" y="589" type="line"/>
      <point x="222" y="705" type="line"/>
      <point x="176" y="705" type="line"/>
      <point x="176" y="589" type="line"/>
      <point x="-4" y="589" type="line"/>
      <point x="-4" y="547" type="line"/>
      <point x="176" y="547" type="line"/>
    </contour>
    <contour>
      <point x="222" y="42" type="line"/>
      <point x="222" y="338" type="line"/>
      <point x="511" y="338" type="line" smooth="yes"/>
      <point x="668" y="338"/>
      <point x="747" y="291"/>
      <point x="747" y="191" type="curve" smooth="yes"/>
      <point x="747" y="90"/>
      <point x="668" y="42"/>
      <point x="511" y="42" type="curve" smooth="yes"/>
    </contour>
  </outline>
</glyph>
<glyph name="Ertick-cy" format="2">
  <advance width="759"/>
  <unicode hex="048E"/>
  <outline>
    <contour>
      <point x="118" y="0" type="line"/>
      <point x="164" y="0" type="line"/>
      <point x="164" y="295" type="line"/>
      <point x="444" y="295" type="line" smooth="yes"/>
      <point x="482" y="295"/>
      <point x="516" y="298"/>
      <point x="546" y="304" type="curve"/>
      <point x="527" y="311" type="line"/>
      <point x="605" y="213" type="line"/>
      <point x="636" y="239" type="line"/>
      <point x="570" y="323" type="line"/>
      <point x="568" y="309" type="line"/>
      <point x="667" y="335"/>
      <point x="717" y="399"/>
      <point x="717" y="500" type="curve" smooth="yes"/>
      <point x="717" y="638"/>
      <point x="626" y="705"/>
      <point x="444" y="705" type="curve" smooth="yes"/>
      <point x="118" y="705" type="line"/>
    </contour>
    <contour>
      <point x="164" y="337" type="line"/>
      <point x="164" y="663" type="line"/>
      <point x="445" y="663" type="line" smooth="yes"/>
      <point x="599" y="663"/>
      <point x="668" y="613"/>
      <point x="668" y="500" type="curve" smooth="yes"/>
      <point x="668" y="414"/>
      <point x="628" y="365"/>
      <point x="542" y="346" type="curve"/>
      <point x="557" y="339" type="line"/>
      <point x="476" y="442" type="line"/>
      <point x="443" y="416" type="line"/>
      <point x="512" y="330" type="line"/>
      <point x="513" y="341" type="line"/>
      <point x="492" y="338"/>
      <point x="470" y="337"/>
      <point x="445" y="337" type="curve" smooth="yes"/>
    </contour>
  </outline>
</glyph>
<glyph name="ertick-cy" format="2">
  <advance width="706"/>
  <unicode hex="048F"/>
  <outline>
    <contour>
      <point x="107" y="-180" type="line"/>
      <point x="153" y="-180" type="line"/>
      <point x="153" y="126" type="line"/>
      <point x="140" y="126" type="line"/>
      <point x="167" y="44"/>
      <point x="257" y="-8"/>
      <point x="371" y="-8" type="curve" smooth="yes"/>
      <point x="428" y="-8"/>
      <point x="478" y="4"/>
      <point x="519" y="26" type="curve"/>
      <point x="505" y="32" type="line"/>
      <point x="568" y="-37" type="line"/>
      <point x="594" y="-12" type="line"/>
      <point x="539" y="48" type="line"/>
      <point x="539" y="38" type="line"/>
      <point x="603" y="81"/>
      <point x="640" y="152"/>
      <point x="640" y="242" type="curve" smooth="yes"/>
      <point x="640" y="394"/>
      <point x="534" y="492"/>
      <point x="371" y="492" type="curve" smooth="yes"/>
      <point x="257" y="492"/>
      <point x="167" y="440"/>
      <point x="140" y="358" type="curve"/>
      <point x="153" y="358" type="line"/>
      <point x="153" y="484" type="line"/>
      <point x="107" y="484" type="line"/>
    </contour>
    <contour>
      <point x="372" y="34" type="curve" smooth="yes"/>
      <point x="236" y="34"/>
      <point x="152" y="114"/>
      <point x="152" y="242" type="curve" smooth="yes"/>
      <point x="152" y="370"/>
      <point x="236" y="450"/>
      <point x="372" y="450" type="curve" smooth="yes"/>
      <point x="508" y="450"/>
      <point x="592" y="370"/>
      <point x="592" y="242" type="curve" smooth="yes"/>
      <point x="592" y="167"/>
      <point x="563" y="108"/>
      <point x="511" y="72" type="curve"/>
      <point x="521" y="68" type="line"/>
      <point x="454" y="142" type="line"/>
      <point x="426" y="117" type="line"/>
      <point x="488" y="50" type="line"/>
      <point x="490" y="60" type="line"/>
      <point x="457" y="43"/>
      <point x="418" y="34"/>
    </contour>
  </outline>
</glyph>
<glyph name="Ghestroke-cy" format="2">
  <advance width="686"/>
  <unicode hex="0492"/>
  <outline>
    <contour>
      <point x="156" y="0" type="line"/>
      <point x="202" y="0" type="line"/>
      <point x="202" y="336" type="line"/>
      <point x="439" y="336" type="line"/>
      <point x="439" y="377" type="line"/>
      <point x="202" y="377" type="line"/>
      <point x="202" y="663" type="line"/>
      <point x="674" y="663" type="line"/>
      <point x="674" y="705" type="line"/>
      <point x="156" y="705" type="line"/>
      <point x="156" y="377" type="line"/>
      <point x="30" y="377" type="line"/>
      <point x="30" y="336" type="line"/>
      <point x="156" y="336" type="line"/>
    </contour>
  </outline>
</glyph>
<glyph name="ghestroke-cy" format="2">
  <advance width="528"/>
  <unicode hex="0493"/>
  <outline>
    <contour>
      <point x="128" y="0" type="line"/>
      <point x="174" y="0" type="line"/>
      <point x="174" y="223" type="line"/>
      <point x="362" y="223" type="line"/>
      <point x="362" y="262" type="line"/>
      <point x="174" y="262" type="line"/>
      <point x="174" y="444" type="line"/>
      <point x="518" y="444" type="line"/>
      <point x="518" y="484" type="line"/>
      <point x="128" y="484" type="line"/>
      <point x="128" y="262" type="line"/>
      <point x="2" y="262" type="line"/>
      <point x="2" y="223" type="line"/>
      <point x="128" y="223" type="line"/>
    </contour>
  </outline>
</glyph>
<glyph name="Ghemiddlehook-cy" format="2">
  <advance width="789"/>
  <unicode hex="0494"/>
  <outline>
    <contour>
      <point x="484" y="-188" type="curve" smooth="yes"/>
      <point x="634" y="-188"/>
      <point x="715" y="-107"/>
      <point x="715" y="44" type="curve" smooth="yes"/>
      <point x="715" y="163" type="line" smooth="yes"/>
      <point x="715" y="343"/>
      <point x="616" y="431"/>
      <point x="412" y="431" type="curve" smooth="yes"/>
      <point x="316" y="431"/>
      <point x="223" y="415"/>
      <point x="164" y="387" type="curve"/>
      <point x="164" y="663" type="line"/>
      <point x="502" y="663" type="line"/>
      <point x="502" y="705" type="line"/>
      <point x="118" y="705" type="line"/>
      <point x="118" y="0" type="line"/>
      <point x="164" y="0" type="line"/>
      <point x="164" y="341" type="line"/>
      <point x="230" y="371"/>
      <point x="313" y="387"/>
      <point x="403" y="387" type="curve" smooth="yes"/>
      <point x="588" y="387"/>
      <point x="669" y="317"/>
      <point x="669" y="157" type="curve" smooth="yes"/>
      <point x="669" y="43" type="line" smooth="yes"/>
      <point x="669" y="-82"/>
      <point x="607" y="-146"/>
      <point x="484" y="-146" type="curve" smooth="yes"/>
      <point x="438" y="-146"/>
      <point x="395" y="-139"/>
      <point x="361" y="-127" type="curve"/>
      <point x="346" y="-167" type="line"/>
      <point x="382" y="-180"/>
      <point x="434" y="-188"/>
    </contour>
  </outline>
</glyph>
<glyph name="zedescender-cy" format="2">
  <advance width="586"/>
  <unicode hex="0499"/>
  <outline>
    <contour>
      <point x="263" y="-130" type="line"/>
      <point x="309" y="-130" type="line"/>
      <point x="309" y="-7" type="line"/>
      <point x="445" y="-2"/>
      <point x="522" y="48"/>
      <point x="522" y="131" type="curve" smooth="yes"/>
      <point x="522" y="200"/>
      <point x="475" y="241"/>
      <point x="381" y="252" type="curve"/>
      <point x="384" y="245" type="line"/>
      <point x="456" y="259"/>
      <point x="502" y="306"/>
      <point x="502" y="367" type="curve" smooth="yes"/>
      <point x="502" y="447"/>
      <point x="424" y="492"/>
      <point x="285" y="492" type="curve" smooth="yes"/>
      <point x="185" y="492"/>
      <point x="105" y="470"/>
      <point x="58" y="429" type="curve"/>
      <point x="81" y="396" type="line"/>
      <point x="128" y="432"/>
      <point x="198" y="450"/>
      <point x="285" y="450" type="curve" smooth="yes"/>
      <point x="396" y="450"/>
      <point x="454" y="420"/>
      <point x="454" y="363" type="curve" smooth="yes"/>
      <point x="454" y="305"/>
      <point x="397" y="266"/>
      <point x="311" y="266" type="curve" smooth="yes"/>
      <point x="154" y="266" type="line"/>
      <point x="154" y="227" type="line"/>
      <point x="316" y="227" type="line" smooth="yes"/>
      <point x="419" y="227"/>
      <point x="474" y="194"/>
      <point x="474" y="133" type="curve" smooth="yes"/>
      <point x="474" y="67"/>
      <point x="410" y="34"/>
      <point x="284" y="34" type="curve" smooth="yes"/>
      <point x="190" y="34"/>
      <point x="122" y="54"/>
      <point x="64" y="98" type="curve"/>
      <point x="41" y="60" type="line"/>
      <point x="91" y="19"/>
      <point x="169" y="-5"/>
      <point x="263" y="-8" type="curve"/>
    </contour>
  </outline>
</glyph>
<glyph name="kabashkir-cy" format="2">
  <advance width="702"/>
  <unicode hex="04A1"/>
  <outline>
    <contour>
      <point x="201" y="0" type="line"/>
      <point x="247" y="0" type="line"/>
      <point x="247" y="232" type="line"/>
      <point x="356" y="232" type="line" smooth="yes"/>
      <point x="440" y="232"/>
      <point x="464" y="227"/>
      <point x="510" y="167" type="curve" smooth="yes"/>
      <point x="638" y="0" type="line"/>
      <point x="697" y="0" type="line"/>
      <point x="561" y="174" type="line" smooth="yes"/>
      <point x="498" y="254"/>
      <point x="474" y="264"/>
      <point x="403" y="269" type="curve"/>
      <point x="426" y="255" type="line"/>
      <point x="662" y="484" type="line"/>
      <point x="601" y="484" type="line"/>
      <point x="382" y="271" type="line"/>
      <point x="247" y="271" type="line"/>
      <point x="247" y="484" type="line"/>
      <point x="-1" y="484" type="line"/>
      <point x="-1" y="444" type="line"/>
      <point x="201" y="444" type="line"/>
    </contour>
  </outline>
</glyph>
<glyph name="Enghe-cy" format="2">
  <advance width="1148"/>
  <unicode hex="04A4"/>
  <outline>
    <contour>
      <point x="118" y="0" type="line"/>
      <point x="164" y="0" type="line"/>
      <point x="164" y="337" type="line"/>
      <point x="764" y="337" type="line"/>
      <point x="764" y="0" type="line"/>
      <point x="810" y="0" type="line"/>
      <point x="810" y="663" type="line"/>
      <point x="1148" y="663" type="line"/>
      <point x="1148" y="705" type="line"/>
      <point x="764" y="705" type="line"/>
      <point x="764" y="379" type="line"/>
      <point x="164" y="379" type="line"/>
      <point x="164" y="705" type="line"/>
      <point x="118" y="705" type="line"/>
    </contour>
  </outline>
</glyph>
<glyph name="Haabkhasian-cy" format="2">
  <advance width="963"/>
  <unicode hex="04A8"/>
  <outline>
    <contour>
      <point x="462" y="-8" type="curve" smooth="yes"/>
      <point x="692" y="-8"/>
      <point x="858" y="130"/>
      <point x="858" y="329" type="curve" smooth="yes"/>
      <point x="858" y="474"/>
      <point x="774" y="555"/>
      <point x="638" y="555" type="curve" smooth="yes"/>
      <point x="502" y="555"/>
      <point x="418" y="474"/>
      <point x="418" y="329" type="curve" smooth="yes"/>
      <point x="418" y="130"/>
      <point x="576" y="-8"/>
      <point x="812" y="-8" type="curve" smooth="yes"/>
      <point x="885" y="-8"/>
      <point x="942" y="2"/>
      <point x="982" y="23" type="curve"/>
      <point x="969" y="64" type="line"/>
      <point x="925" y="45"/>
      <point x="876" y="36"/>
      <point x="814" y="36" type="curve" smooth="yes"/>
      <point x="610" y="36"/>
      <point x="466" y="150"/>
      <point x="466" y="329" type="curve" smooth="yes"/>
      <point x="466" y="448"/>
      <point x="531" y="512"/>
      <point x="638" y="512" type="curve" smooth="yes"/>
      <point x="745" y="512"/>
      <point x="810" y="448"/>
      <point x="810" y="329" type="curve" smooth="yes"/>
      <point x="810" y="150"/>
      <point x="666" y="36"/>
      <point x="462" y="36" type="curve" smooth="yes"/>
      <point x="247" y="36"/>
      <point x="130" y="148"/>
      <point x="130" y="353" type="curve" smooth="yes"/>
      <point x="130" y="557"/>
      <point x="252" y="669"/>
      <point x="460" y="669" type="curve" smooth="yes"/>
      <point x="479" y="669"/>
      <point x="505" y="667"/>
      <point x="536" y="664" type="curve"/>
      <point x="543" y="706" type="line"/>
      <point x="528" y="710"/>
      <point x="493" y="713"/>
      <point x="461" y="713" type="curve" smooth="yes"/>
      <point x="223" y="713"/>
      <point x="81" y="582"/>
      <point x="81" y="352" type="curve" smooth="yes"/>
      <point x="81" y="126"/>
      <point x="222" y="-8"/>
    </contour>
  </outline>
</glyph>
<glyph name="haabkhasian-cy" format="2">
  <advance width="721"/>
  <unicode hex="04A9"/>
  <outline>
    <contour>
      <point x="353" y="-8" type="curve" smooth="yes"/>
      <point x="517" y="-8"/>
      <point x="639" y="85"/>
      <point x="639" y="219" type="curve" smooth="yes"/>
      <point x="639" y="315"/>
      <point x="575" y="371"/>
      <point x="478" y="371" type="curve" smooth="yes"/>
      <point x="381" y="371"/>
      <point x="317" y="315"/>
      <point x="317" y="219" type="curve" smooth="yes"/>
      <point x="317" y="85"/>
      <point x="440" y="-8"/>
      <point x="605" y="-8" type="curve" smooth="yes"/>
      <point x="657" y="-8"/>
      <point x="704" y="1"/>
      <point x="743" y="18" type="curve"/>
      <point x="726" y="56" type="line"/>
      <point x="691" y="41"/>
      <point x="650" y="33"/>
      <point x="604" y="33" type="curve" smooth="yes"/>
      <point x="462" y="33"/>
      <point x="364" y="103"/>
      <point x="364" y="219" type="curve" smooth="yes"/>
      <point x="364" y="291"/>
      <point x="409" y="330"/>
      <point x="478" y="330" type="curve" smooth="yes"/>
      <point x="547" y="330"/>
      <point x="592" y="291"/>
      <point x="592" y="219" type="curve" smooth="yes"/>
      <point x="592" y="103"/>
      <point x="494" y="32"/>
      <point x="352" y="32" type="curve" smooth="yes"/>
      <point x="200" y="32"/>
      <point x="114" y="110"/>
      <point x="114" y="246" type="curve" smooth="yes"/>
      <point x="114" y="374"/>
      <point x="196" y="450"/>
      <point x="333" y="450" type="curve" smooth="yes"/>
      <point x="376" y="450"/>
      <point x="427" y="441"/>
      <point x="451" y="428" type="curve"/>
      <point x="468" y="468" type="line"/>
      <point x="439" y="483"/>
      <point x="386" y="492"/>
      <point x="333" y="492" type="curve" smooth="yes"/>
      <point x="170" y="492"/>
      <point x="66" y="397"/>
      <point x="66" y="246" type="curve" smooth="yes"/>
      <point x="66" y="86"/>
      <point x="177" y="-8"/>
    </contour>
  </outline>
</glyph>
<glyph name="Tedescender-cy" format="2">
  <advance width="698"/>
  <unicode hex="04AC"/>
  <outline>
    <contour>
      <point x="452" y="-151" type="line"/>
      <point x="497" y="-151" type="line"/>
      <point x="497" y="42" type="line"/>
      <point x="372" y="42" type="line"/>
      <point x="372" y="663" type="line"/>
      <point x="698" y="663" type="line"/>
      <point x="698" y="705" type="line"/>
      <point x="0" y="705" type="line"/>
      <point x="0" y="663" type="line"/>
      <point x="326" y="663" type="line"/>
      <point x="326" y="0" type="line"/>
      <point x="452" y="0" type="line"/>
    </contour>
  </outline>
</glyph>
<glyph name="ustraight-cy" format="2">
  <advance width="620"/>
  <unicode hex="04AF"/>
  <anchor x="310" y="-24" name="center"/>
  <outline>
    <contour>
      <point x="287" y="-180" type="line"/>
      <point x="333" y="-180" type="line"/>
      <point x="333" y="-7" type="line"/>
      <point x="595" y="484" type="line"/>
      <point x="541" y="484" type="line"/>
      <point x="298" y="17" type="line"/>
      <point x="324" y="17" type="line"/>
      <point x="81" y="484" type="line"/>
      <point x="25" y="484" type="line"/>
      <point x="287" y="-7" type="line"/>
    </contour>
  </outline>
</glyph>
<glyph name="tetse-cy" format="2">
  <advance width="807"/>
  <unicode hex="04B5"/>
  <outline>
    <contour>
      <point x="726" y="-130" type="line"/>
      <point x="768" y="-130" type="line"/>
      <point x="768" y="39" type="line"/>
      <point x="675" y="39" type="line"/>
      <point x="675" y="484" type="line"/>
      <point x="629" y="484" type="line"/>
      <point x="629" y="39" type="line"/>
      <point x="247" y="39" type="line"/>
      <point x="247" y="444" type="line"/>
      <point x="449" y="444" type="line"/>
      <point x="449" y="484" type="line"/>
      <point x="-1" y="484" type="line"/>
      <point x="-1" y="444" type="line"/>
      <point x="201" y="444" type="line"/>
      <point x="201" y="0" type="line"/>
      <point x="726" y="0" type="line"/>
    </contour>
  </outline>
</glyph>
<glyph name="Chedescender-cy" format="2">
  <advance width="845"/>
  <unicode hex="04B6"/>
  <outline>
    <contour>
      <point x="774" y="-150" type="line"/>
      <point x="818" y="-150" type="line"/>
      <point x="818" y="42" type="line"/>
      <point x="693" y="42" type="line"/>
      <point x="693" y="705" type="line"/>
      <point x="647" y="705" type="line"/>
      <point x="647" y="364" type="line"/>
      <point x="581" y="334"/>
      <point x="498" y="318"/>
      <point x="408" y="318" type="curve" smooth="yes"/>
      <point x="208" y="318"/>
      <point x="120" y="388"/>
      <point x="120" y="548" type="curve" smooth="yes"/>
      <point x="120" y="705" type="line"/>
      <point x="74" y="705" type="line"/>
      <point x="74" y="542" type="line" smooth="yes"/>
      <point x="74" y="361"/>
      <point x="181" y="274"/>
      <point x="399" y="274" type="curve" smooth="yes"/>
      <point x="496" y="274"/>
      <point x="588" y="291"/>
      <point x="647" y="318" type="curve"/>
      <point x="647" y="0" type="line"/>
      <point x="774" y="0" type="line"/>
    </contour>
  </outline>
</glyph>
<glyph name="Cheverticalstroke-cy" format="2">
  <advance width="811"/>
  <unicode hex="04B8"/>
  <outline>
    <contour>
      <point x="647" y="0" type="line"/>
      <point x="693" y="0" type="line"/>
      <point x="693" y="705" type="line"/>
      <point x="647" y="705" type="line"/>
      <point x="647" y="364" type="line"/>
      <point x="581" y="334"/>
      <point x="498" y="318"/>
      <point x="408" y="318" type="curve"/>
      <point x="415" y="308" type="line"/>
      <point x="415" y="499" type="line"/>
      <point x="374" y="499" type="line"/>
      <point x="374" y="308" type="line"/>
      <point x="397" y="318" type="line"/>
      <point x="205" y="321"/>
      <point x="120" y="391"/>
      <point x="120" y="548" type="curve" smooth="yes"/>
      <point x="120" y="705" type="line"/>
      <point x="74" y="705" type="line"/>
      <point x="74" y="542" type="line" smooth="yes"/>
      <point x="74" y="363"/>
      <point x="178" y="276"/>
      <point x="391" y="274" type="curve"/>
      <point x="374" y="286" type="line"/>
      <point x="374" y="116" type="line"/>
      <point x="415" y="116" type="line"/>
      <point x="415" y="286" type="line"/>
      <point x="399" y="274" type="line"/>
      <point x="496" y="274"/>
      <point x="588" y="291"/>
      <point x="647" y="318" type="curve"/>
    </contour>
  </outline>
</glyph>
<glyph name="Cheabkhasian-cy" format="2">
  <advance width="1096"/>
  <unicode hex="04BC"/>
  <anchor x="709" y="0" name="ogonek"/>
  <outline>
    <contour>
      <point x="653" y="-8" type="curve" smooth="yes"/>
      <point x="788" y="-8"/>
      <point x="903" y="28"/>
      <point x="983" y="95" type="curve"/>
      <point x="957" y="133" type="line"/>
      <point x="875" y="67"/>
      <point x="781" y="36"/>
      <point x="659" y="36" type="curve" smooth="yes"/>
      <point x="428" y="36"/>
      <point x="304" y="140"/>
      <point x="300" y="337" type="curve"/>
      <point x="291" y="328" type="line"/>
      <point x="1015" y="328" type="line"/>
      <point x="1015" y="356" type="line" smooth="yes"/>
      <point x="1015" y="575"/>
      <point x="868" y="713"/>
      <point x="633" y="713" type="curve" smooth="yes"/>
      <point x="401" y="713"/>
      <point x="257" y="580"/>
      <point x="251" y="361" type="curve"/>
      <point x="261" y="370" type="line"/>
      <point x="220" y="370" type="line" smooth="yes"/>
      <point x="114" y="370"/>
      <point x="75" y="402"/>
      <point x="75" y="484" type="curve" smooth="yes"/>
      <point x="75" y="542" type="line"/>
      <point x="31" y="542" type="line"/>
      <point x="31" y="481" type="line" smooth="yes"/>
      <point x="31" y="374"/>
      <point x="89" y="328"/>
      <point x="222" y="328" type="curve" smooth="yes"/>
      <point x="262" y="328" type="line"/>
      <point x="251" y="337" type="line"/>
      <point x="255" y="116"/>
      <point x="400" y="-8"/>
    </contour>
    <contour>
      <point x="634" y="669" type="curve" smooth="yes"/>
      <point x="843" y="669"/>
      <point x="967" y="551"/>
      <point x="967" y="352" type="curve"/>
      <point x="980" y="370" type="line"/>
      <point x="293" y="370" type="line"/>
      <point x="300" y="362" type="line"/>
      <point x="306" y="556"/>
      <point x="429" y="669"/>
    </contour>
  </outline>
</glyph>
<glyph name="Eltail-cy" format="2">
  <advance width="908"/>
  <unicode hex="04C5"/>
  <outline>
    <contour>
      <point x="792" y="-150" type="line"/>
      <point x="834" y="-150" type="line"/>
      <point x="911" y="42" type="line"/>
      <point x="787" y="42" type="line"/>
      <point x="787" y="705" type="line"/>
      <point x="240" y="705" type="line"/>
      <point x="240" y="495" type="line" smooth="yes"/>
      <point x="240" y="218"/>
      <point x="182" y="94"/>
      <point x="21" y="28" type="curve"/>
      <point x="39" y="-13" type="line"/>
      <point x="217" y="58"/>
      <point x="286" y="197"/>
      <point x="286" y="484" type="curve" smooth="yes"/>
      <point x="286" y="663" type="line"/>
      <point x="741" y="663" type="line"/>
      <point x="741" y="0" type="line"/>
      <point x="854" y="0" type="line"/>
    </contour>
  </outline>
</glyph>
<glyph name="Emtail-cy" format="2">
  <advance width="1047"/>
  <unicode hex="04CD"/>
  <outline>
    <contour>
      <point x="933" y="-150" type="line"/>
      <point x="975" y="-150" type="line"/>
      <point x="1052" y="42" type="line"/>
      <point x="924" y="42" type="line"/>
      <point x="924" y="705" type="line"/>
      <point x="883" y="705" type="line"/>
      <point x="512" y="140" type="line"/>
      <point x="534" y="140" type="line"/>
      <point x="162" y="705" type="line"/>
      <point x="120" y="705" type="line"/>
      <point x="120" y="0" type="line"/>
      <point x="165" y="0" type="line"/>
      <point x="165" y="644" type="line"/>
      <point x="154" y="640" type="line"/>
      <point x="505" y="110" type="line"/>
      <point x="542" y="110" type="line"/>
      <point x="890" y="640" type="line"/>
      <point x="879" y="644" type="line"/>
      <point x="879" y="0" type="line"/>
      <point x="995" y="0" type="line"/>
    </contour>
  </outline>
</glyph>
<glyph name="dzeabkhasian-cy" format="2">
  <advance width="584"/>
  <unicode hex="04E1"/>
  <outline>
    <contour>
      <point x="272" y="-188" type="curve" smooth="yes"/>
      <point x="451" y="-188"/>
      <point x="544" y="-112"/>
      <point x="544" y="12" type="curve" smooth="yes"/>
      <point x="544" y="137"/>
      <point x="448" y="203"/>
      <point x="283" y="203" type="curve" smooth="yes"/>
      <point x="207" y="203" type="line"/>
      <point x="204" y="183" type="line"/>
      <point x="506" y="452" type="line"/>
      <point x="506" y="484" type="line"/>
      <point x="44" y="484" type="line"/>
      <point x="44" y="445" type="line"/>
      <point x="454" y="445" type="line"/>
      <point x="454" y="458" type="line"/>
      <point x="156" y="189" type="line"/>
      <point x="156" y="164" type="line"/>
      <point x="289" y="164" type="line" smooth="yes"/>
      <point x="419" y="164"/>
      <point x="496" y="114"/>
      <point x="496" y="11" type="curve" smooth="yes"/>
      <point x="496" y="-87"/>
      <point x="423" y="-146"/>
      <point x="270" y="-146" type="curve" smooth="yes"/>
      <point x="183" y="-146"/>
      <point x="112" y="-128"/>
      <point x="50" y="-89" type="curve"/>
      <point x="26" y="-126" type="line"/>
      <point x="82" y="-165"/>
      <point x="174" y="-188"/>
    </contour>
  </outline>
</glyph>
<glyph name="gestrokehook-cy" format="2">
  <advance width="528"/>
  <unicode hex="04FB"/>
  <outline>
    <contour>
      <point x="115" y="-180" type="line"/>
      <point x="154" y="-177" type="line" smooth="yes"/>
      <point x="244" y="-170"/>
      <point x="300" y="-116"/>
      <point x="300" y="1" type="curve" smooth="yes"/>
      <point x="300" y="39" type="line"/>
      <point x="174" y="39" type="line"/>
      <point x="174" y="223" type="line"/>
      <point x="362" y="223" type="line"/>
      <point x="362" y="262" type="line"/>
      <point x="174" y="262" type="line"/>
      <point x="174" y="444" type="line"/>
      <point x="518" y="444" type="line"/>
      <point x="518" y="484" type="line"/>
      <point x="128" y="484" type="line"/>
      <point x="128" y="262" type="line"/>
      <point x="2" y="262" type="line"/>
      <point x="2" y="223" type="line"/>
      <point x="128" y="223" type="line"/>
      <point x="128" y="0" type="line"/>
      <point x="257" y="0" type="line"/>
      <point x="257" y="-89"/>
      <point x="227" y="-129"/>
      <point x="153" y="-136" type="curve" smooth="yes"/>
      <point x="112" y="-140" type="line"/>
    </contour>
  </outline>
</glyph>
<glyph name="Hahook-cy" format="2">
  <advance width="778"/>
  <unicode hex="04FC"/>
  <outline>
    <contour>
      <point x="508" y="-183" type="line"/>
      <point x="642" y="-173"/>
      <point x="712" y="-120"/>
      <point x="712" y="-30" type="curve" smooth="yes"/>
      <point x="712" y="41"/>
      <point x="669" y="87"/>
      <point x="619" y="142" type="curve" smooth="yes"/>
      <point x="412" y="368" type="line"/>
      <point x="412" y="356" type="line"/>
      <point x="731" y="705" type="line"/>
      <point x="671" y="705" type="line"/>
      <point x="386" y="389" type="line"/>
      <point x="397" y="389" type="line"/>
      <point x="106" y="705" type="line"/>
      <point x="46" y="705" type="line"/>
      <point x="366" y="356" type="line"/>
      <point x="366" y="368" type="line"/>
      <point x="28" y="0" type="line"/>
      <point x="88" y="0" type="line"/>
      <point x="399" y="339" type="line"/>
      <point x="377" y="339" type="line"/>
      <point x="570" y="129" type="line" smooth="yes"/>
      <point x="631" y="63"/>
      <point x="667" y="22"/>
      <point x="667" y="-34" type="curve" smooth="yes"/>
      <point x="667" y="-98"/>
      <point x="619" y="-131"/>
      <point x="501" y="-145" type="curve"/>
    </contour>
  </outline>
</glyph>
<glyph name="hahook-cy" format="2">
  <advance width="621"/>
  <unicode hex="04FD"/>
  <outline>
    <contour>
      <point x="401" y="-183" type="line"/>
      <point x="519" y="-175"/>
      <point x="580" y="-130"/>
      <point x="580" y="-54" type="curve" smooth="yes"/>
      <point x="580" y="-3"/>
      <point x="556" y="32"/>
      <point x="464" y="125" type="curve" smooth="yes"/>
      <point x="331" y="260" type="line"/>
      <point x="331" y="239" type="line"/>
      <point x="574" y="484" type="line"/>
      <point x="512" y="484" type="line"/>
      <point x="303" y="272" type="line"/>
      <point x="320" y="272" type="line"/>
      <point x="113" y="484" type="line"/>
      <point x="48" y="484" type="line"/>
      <point x="294" y="236" type="line"/>
      <point x="294" y="264" type="line"/>
      <point x="35" y="0" type="line"/>
      <point x="97" y="0" type="line"/>
      <point x="320" y="225" type="line"/>
      <point x="302" y="225" type="line"/>
      <point x="427" y="99" type="line" smooth="yes"/>
      <point x="512" y="14"/>
      <point x="533" y="-17"/>
      <point x="533" y="-58" type="curve" smooth="yes"/>
      <point x="533" y="-110"/>
      <point x="492" y="-134"/>
      <point x="392" y="-145" type="curve"/>
    </contour>
  </outline>
</glyph>
<glyph name="Reversedze-cy" format="2">
  <advance width="799"/>
  <unicode hex="0510"/>
  <outline>
    <contour>
      <point x="410" y="-8" type="curve" smooth="yes"/>
      <point x="550" y="-8"/>
      <point x="669" y="25"/>
      <point x="742" y="86" type="curve"/>
      <point x="718" y="125" type="line"/>
      <point x="637" y="63"/>
      <point x="541" y="36"/>
      <point x="409" y="36" type="curve" smooth="yes"/>
      <point x="228" y="36"/>
      <point x="135" y="87"/>
      <point x="135" y="191" type="curve" smooth="yes"/>
      <point x="135" y="285"/>
      <point x="212" y="335"/>
      <point x="368" y="335" type="curve" smooth="yes"/>
      <point x="587" y="335" type="line"/>
      <point x="587" y="378" type="line"/>
      <point x="370" y="378" type="line" smooth="yes"/>
      <point x="238" y="378"/>
      <point x="157" y="439"/>
      <point x="157" y="529" type="curve" smooth="yes"/>
      <point x="157" y="623"/>
      <point x="245" y="669"/>
      <point x="406" y="669" type="curve" smooth="yes"/>
      <point x="532" y="669"/>
      <point x="623" y="641"/>
      <point x="693" y="581" type="curve"/>
      <point x="718" y="618" type="line"/>
      <point x="653" y="679"/>
      <point x="540" y="713"/>
      <point x="404" y="713" type="curve" smooth="yes"/>
      <point x="218" y="713"/>
      <point x="108" y="649"/>
      <point x="108" y="534" type="curve" smooth="yes"/>
      <point x="108" y="447"/>
      <point x="171" y="375"/>
      <point x="276" y="356" type="curve"/>
      <point x="276" y="366" type="line"/>
      <point x="153" y="348"/>
      <point x="86" y="286"/>
      <point x="86" y="191" type="curve" smooth="yes"/>
      <point x="86" y="65"/>
      <point x="203" y="-8"/>
    </contour>
  </outline>
</glyph>
<glyph name="reversedze-cy" format="2">
  <advance width="586"/>
  <unicode hex="0511"/>
  <outline>
    <contour>
      <point x="303" y="-8" type="curve" smooth="yes"/>
      <point x="406" y="-8"/>
      <point x="492" y="16"/>
      <point x="545" y="60" type="curve"/>
      <point x="522" y="98" type="line"/>
      <point x="464" y="54"/>
      <point x="396" y="34"/>
      <point x="302" y="34" type="curve" smooth="yes"/>
      <point x="176" y="34"/>
      <point x="112" y="67"/>
      <point x="112" y="133" type="curve" smooth="yes"/>
      <point x="112" y="194"/>
      <point x="167" y="227"/>
      <point x="270" y="227" type="curve" smooth="yes"/>
      <point x="432" y="227" type="line"/>
      <point x="432" y="266" type="line"/>
      <point x="275" y="266" type="line" smooth="yes"/>
      <point x="189" y="266"/>
      <point x="132" y="305"/>
      <point x="132" y="363" type="curve" smooth="yes"/>
      <point x="132" y="420"/>
      <point x="190" y="450"/>
      <point x="301" y="450" type="curve" smooth="yes"/>
      <point x="388" y="450"/>
      <point x="458" y="432"/>
      <point x="505" y="396" type="curve"/>
      <point x="528" y="429" type="line"/>
      <point x="481" y="470"/>
      <point x="401" y="492"/>
      <point x="301" y="492" type="curve" smooth="yes"/>
      <point x="162" y="492"/>
      <point x="84" y="447"/>
      <point x="84" y="367" type="curve" smooth="yes"/>
      <point x="84" y="306"/>
      <point x="131" y="258"/>
      <point x="204" y="245" type="curve"/>
      <point x="206" y="252" type="line"/>
      <point x="112" y="241"/>
      <point x="64" y="200"/>
      <point x="64" y="131" type="curve" smooth="yes"/>
      <point x="64" y="43"/>
      <point x="151" y="-8"/>
    </contour>
  </outline>
</glyph>
<glyph name="elhook-cy" format="2">
  <advance width="681"/>
  <unicode hex="0513"/>
  <outline>
    <contour>
      <point x="347" y="-193" type="line"/>
      <point x="401" y="-190" type="line" smooth="yes"/>
      <point x="512" y="-184"/>
      <point x="574" y="-122"/>
      <point x="574" y="-19" type="curve" smooth="yes"/>
      <point x="574" y="484" type="line"/>
      <point x="183" y="484" type="line"/>
      <point x="183" y="367" type="line" smooth="yes"/>
      <point x="183" y="148"/>
      <point x="154" y="82"/>
      <point x="33" y="30" type="curve"/>
      <point x="55" y="-9" type="line"/>
      <point x="190" y="45"/>
      <point x="229" y="129"/>
      <point x="229" y="365" type="curve" smooth="yes"/>
      <point x="229" y="445" type="line"/>
      <point x="528" y="445" type="line"/>
      <point x="528" y="-21" type="line" smooth="yes"/>
      <point x="528" y="-98"/>
      <point x="482" y="-144"/>
      <point x="395" y="-149" type="curve" smooth="yes"/>
      <point x="344" y="-152" type="line"/>
    </contour>
  </outline>
</glyph>
<glyph name="Pedescender-cy" format="2">
  <advance width="957"/>
  <unicode hex="0524"/>
  <outline>
    <contour>
      <point x="887" y="-150" type="line"/>
      <point x="931" y="-150" type="line"/>
      <point x="931" y="42" type="line"/>
      <point x="805" y="42" type="line"/>
      <point x="805" y="705" type="line"/>
      <point x="118" y="705" type="line"/>
      <point x="118" y="0" type="line"/>
      <point x="164" y="0" type="line"/>
      <point x="164" y="663" type="line"/>
      <point x="759" y="663" type="line"/>
      <point x="759" y="0" type="line"/>
      <point x="887" y="0" type="line"/>
    </contour>
  </outline>
</glyph>
<glyph name="Germandbls" format="2">
  <advance width="863"/>
  <unicode hex="1E9E"/>
  <outline>
    <contour>
      <point x="511" y="-8" type="curve" smooth="yes"/>
      <point x="684" y="-8"/>
      <point x="777" y="61"/>
      <point x="777" y="183" type="curve" smooth="yes"/>
      <point x="777" y="293"/>
      <point x="696" y="354"/>
      <point x="560" y="367" type="curve"/>
      <point x="560" y="353" type="line"/>
      <point x="655" y="367"/>
      <point x="729" y="431"/>
      <point x="729" y="526" type="curve" smooth="yes"/>
      <point x="729" y="646"/>
      <point x="622" y="713"/>
      <point x="439" y="713" type="curve" smooth="yes"/>
      <point x="233" y="713"/>
      <point x="118" y="628"/>
      <point x="118" y="469" type="curve" smooth="yes"/>
      <point x="118" y="0" type="line"/>
      <point x="164" y="0" type="line"/>
      <point x="164" y="466" type="line" smooth="yes"/>
      <point x="164" y="602"/>
      <point x="256" y="670"/>
      <point x="442" y="670" type="curve" smooth="yes"/>
      <point x="601" y="670"/>
      <point x="680" y="620"/>
      <point x="680" y="523" type="curve" smooth="yes"/>
      <point x="680" y="427"/>
      <point x="605" y="376"/>
      <point x="465" y="376" type="curve" smooth="yes"/>
      <point x="313" y="376" type="line"/>
      <point x="313" y="334" type="line"/>
      <point x="500" y="334" type="line" smooth="yes"/>
      <point x="654" y="334"/>
      <point x="728" y="286"/>
      <point x="728" y="187" type="curve" smooth="yes"/>
      <point x="728" y="88"/>
      <point x="655" y="35"/>
      <point x="510" y="35" type="curve" smooth="yes"/>
      <point x="422" y="35"/>
      <point x="357" y="54"/>
      <point x="292" y="105" type="curve"/>
      <point x="264" y="67" type="line"/>
      <point x="322" y="18"/>
      <point x="409" y="-8"/>
    </contour>
  </outline>
</glyph>
<glyph name="figuredash" format="2">
  <advance width="748"/>
  <unicode hex="2012"/>
  <outline>
    <contour>
      <point x="92" y="248" type="line"/>
      <point x="656" y="248" type="line"/>
      <point x="656" y="283" type="line"/>
      <point x="92" y="283" type="line"/>
    </contour>
  </outline>
</glyph>
<glyph name="dagger" format="2">
  <advance width="371"/>
  <unicode hex="2020"/>
  <outline>
    <contour>
      <point x="167" y="157" type="line"/>
      <point x="205" y="157" type="line"/>
      <point x="205" y="551" type="line"/>
      <point x="351" y="551" type="line"/>
      <point x="351" y="585" type="line"/>
      <point x="205" y="585" type="line"/>
      <point x="205" y="705" type="line"/>
      <point x="167" y="705" type="line"/>
      <point x="167" y="585" type="line"/>
      <point x="21" y="585" type="line"/>
      <point x="21" y="551" type="line"/>
      <point x="167" y="551" type="line"/>
    </contour>
  </outline>
</glyph>
<glyph name="guilsinglright" format="2">
  <advance width="283"/>
  <unicode hex="203A"/>
  <outline>
    <contour>
      <point x="98" y="92" type="line"/>
      <point x="213" y="253" type="line"/>
      <point x="213" y="277" type="line"/>
      <point x="98" y="438" type="line"/>
      <point x="63" y="420" type="line"/>
      <point x="163" y="265" type="line"/>
      <point x="63" y="110" type="line"/>
    </contour>
  </outline>
</glyph>
<glyph name="fraction" format="2">
  <advance width="186"/>
  <unicode hex="2044"/>
  <outline>
    <contour>
      <point x="-152" y="-21" type="line"/>
      <point x="370" y="702" type="line"/>
      <point x="338" y="726" type="line"/>
      <point x="-184" y="3" type="line"/>
    </contour>
  </outline>
</glyph>
<glyph name="commercialMinusSign" format="2">
  <advance width="748"/>
  <unicode hex="2052"/>
  <outline>
    <contour>
      <point x="242" y="-55" type="line"/>
      <point x="556" y="728" type="line"/>
      <point x="516" y="744" type="line"/>
      <point x="202" y="-39" type="line"/>
    </contour>
    <contour>
      <point x="498" y="53" type="line"/>
      <point x="574" y="53" type="line"/>
      <point x="574" y="127" type="line"/>
      <point x="498" y="127" type="line"/>
    </contour>
    <contour>
      <point x="174" y="578" type="line"/>
      <point x="250" y="578" type="line"/>
      <point x="250" y="652" type="line"/>
      <point x="174" y="652" type="line"/>
    </contour>
  </outline>
</glyph>
<glyph name="franc" format="2">
  <advance width="748"/>
  <unicode hex="20A3"/>
  <outline>
    <contour>
      <point x="160" y="0" type="line"/>
      <point x="206" y="0" type="line"/>
      <point x="206" y="157" type="line"/>
      <point x="492" y="157" type="line"/>
      <point x="492" y="195" type="line"/>
      <point x="206" y="195" type="line"/>
      <point x="206" y="346" type="line"/>
      <point x="648" y="346" type="line"/>
      <point x="648" y="388" type="line"/>
      <point x="206" y="388" type="line"/>
      <point x="206" y="663" type="line"/>
      <point x="673" y="663" type="line"/>
      <point x="673" y="705" type="line"/>
      <point x="160" y="705" type="line"/>
      <point x="160" y="195" type="line"/>
      <point x="65" y="195" type="line"/>
      <point x="65" y="157" type="line"/>
      <point x="160" y="157" type="line"/>
    </contour>
  </outline>
</glyph>
<glyph name="naira" format="2">
  <advance width="748"/>
  <unicode hex="20A6"/>
  <outline>
    <contour>
      <point x="144" y="0" type="line"/>
      <point x="189" y="0" type="line"/>
      <point x="189" y="645" type="line"/>
      <point x="169" y="645" type="line"/>
      <point x="563" y="0" type="line"/>
      <point x="604" y="0" type="line"/>
      <point x="604" y="258" type="line"/>
      <point x="732" y="258" type="line"/>
      <point x="732" y="296" type="line"/>
      <point x="604" y="296" type="line"/>
      <point x="604" y="408" type="line"/>
      <point x="732" y="408" type="line"/>
      <point x="732" y="446" type="line"/>
      <point x="604" y="446" type="line"/>
      <point x="604" y="705" type="line"/>
      <point x="559" y="705" type="line"/>
      <point x="559" y="60" type="line"/>
      <point x="580" y="60" type="line"/>
      <point x="185" y="705" type="line"/>
      <point x="144" y="705" type="line"/>
      <point x="144" y="446" type="line"/>
      <point x="16" y="446" type="line"/>
      <point x="16" y="408" type="line"/>
      <point x="144" y="408" type="line"/>
      <point x="144" y="296" type="line"/>
      <point x="16" y="296" type="line"/>
      <point x="16" y="258" type="line"/>
      <point x="144" y="258" type="line"/>
    </contour>
  </outline>
</glyph>
<glyph name="peseta" format="2">
  <advance width="748"/>
  <unicode hex="20A7"/>
  <outline>
    <contour>
      <point x="146" y="0" type="line"/>
      <point x="192" y="0" type="line"/>
      <point x="192" y="263" type="line"/>
      <point x="347" y="263" type="line" smooth="yes"/>
      <point x="531" y="263"/>
      <point x="625" y="334"/>
      <point x="628" y="477" type="curve"/>
      <point x="612" y="465" type="line"/>
      <point x="734" y="465" type="line"/>
      <point x="734" y="503" type="line"/>
      <point x="612" y="503" type="line"/>
      <point x="628" y="491" type="line"/>
      <point x="625" y="635"/>
      <point x="531" y="705"/>
      <point x="347" y="705" type="curve" smooth="yes"/>
      <point x="146" y="705" type="line"/>
      <point x="146" y="503" type="line"/>
      <point x="18" y="503" type="line"/>
      <point x="18" y="465" type="line"/>
      <point x="146" y="465" type="line"/>
    </contour>
    <contour>
      <point x="192" y="305" type="line"/>
      <point x="192" y="663" type="line"/>
      <point x="348" y="663" type="line" smooth="yes"/>
      <point x="509" y="663"/>
      <point x="581" y="608"/>
      <point x="581" y="484" type="curve" smooth="yes"/>
      <point x="581" y="360"/>
      <point x="508" y="305"/>
      <point x="348" y="305" type="curve" smooth="yes"/>
    </contour>
  </outline>
</glyph>
<glyph name="won" format="2">
  <advance width="748"/>
  <unicode hex="20A9"/>
  <outline>
    <contour>
      <point x="192" y="0" type="line"/>
      <point x="248" y="0" type="line"/>
      <point x="389" y="664" type="line"/>
      <point x="359" y="664" type="line"/>
      <point x="500" y="0" type="line"/>
      <point x="556" y="0" type="line"/>
      <point x="599" y="261" type="line"/>
      <point x="732" y="261" type="line"/>
      <point x="732" y="299" type="line"/>
      <point x="605" y="299" type="line"/>
      <point x="623" y="411" type="line"/>
      <point x="732" y="411" type="line"/>
      <point x="732" y="449" type="line"/>
      <point x="629" y="449" type="line"/>
      <point x="671" y="705" type="line"/>
      <point x="626" y="705" type="line"/>
      <point x="519" y="24" type="line"/>
      <point x="535" y="24" type="line"/>
      <point x="394" y="705" type="line"/>
      <point x="354" y="705" type="line"/>
      <point x="213" y="24" type="line"/>
      <point x="229" y="24" type="line"/>
      <point x="123" y="705" type="line"/>
      <point x="77" y="705" type="line"/>
      <point x="119" y="449" type="line"/>
      <point x="16" y="449" type="line"/>
      <point x="16" y="411" type="line"/>
      <point x="125" y="411" type="line"/>
      <point x="143" y="299" type="line"/>
      <point x="16" y="299" type="line"/>
      <point x="16" y="261" type="line"/>
      <point x="149" y="261" type="line"/>
    </contour>
  </outline>
</glyph>
<glyph name="dong" format="2">
  <advance width="748"/>
  <unicode hex="20AB"/>
  <outline>
    <contour>
      <point x="345" y="-8" type="curve" smooth="yes"/>
      <point x="456" y="-8"/>
      <point x="536" y="45"/>
      <point x="563" y="126" type="curve"/>
      <point x="550" y="126" type="line"/>
      <point x="550" y="0" type="line"/>
      <point x="596" y="0" type="line"/>
      <point x="596" y="559" type="line"/>
      <point x="694" y="559" type="line"/>
      <point x="694" y="598" type="line"/>
      <point x="596" y="598" type="line"/>
      <point x="596" y="705" type="line"/>
      <point x="550" y="705" type="line"/>
      <point x="550" y="598" type="line"/>
      <point x="354" y="598" type="line"/>
      <point x="354" y="559" type="line"/>
      <point x="550" y="559" type="line"/>
      <point x="550" y="358" type="line"/>
      <point x="563" y="358" type="line"/>
      <point x="536" y="439"/>
      <point x="456" y="492"/>
      <point x="345" y="492" type="curve" smooth="yes"/>
      <point x="195" y="492"/>
      <point x="95" y="394"/>
      <point x="95" y="242" type="curve" smooth="yes"/>
      <point x="95" y="90"/>
      <point x="195" y="-8"/>
    </contour>
    <contour>
      <point x="109" y="-128" type="line"/>
      <point x="596" y="-128" type="line"/>
      <point x="596" y="-90" type="line"/>
      <point x="109" y="-90" type="line"/>
    </contour>
    <contour>
      <point x="347" y="34" type="curve" smooth="yes"/>
      <point x="221" y="34"/>
      <point x="143" y="114"/>
      <point x="143" y="242" type="curve" smooth="yes"/>
      <point x="143" y="370"/>
      <point x="221" y="450"/>
      <point x="347" y="450" type="curve" smooth="yes"/>
      <point x="473" y="450"/>
      <point x="551" y="370"/>
      <point x="551" y="242" type="curve" smooth="yes"/>
      <point x="551" y="114"/>
      <point x="473" y="34"/>
    </contour>
  </outline>
</glyph>
<glyph name="rupeeIndian" format="2">
  <advance width="748"/>
  <unicode hex="20B9"/>
  <outline>
    <contour>
      <point x="586" y="0" type="line"/>
      <point x="640" y="0" type="line"/>
      <point x="445" y="241" type="line" smooth="yes"/>
      <point x="384" y="317"/>
      <point x="341" y="328"/>
      <point x="295" y="328" type="curve" smooth="yes"/>
      <point x="287" y="328" type="line"/>
      <point x="287" y="319" type="line"/>
      <point x="489" y="319"/>
      <point x="588" y="385"/>
      <point x="586" y="519" type="curve"/>
      <point x="572" y="515" type="line"/>
      <point x="722" y="515" type="line"/>
      <point x="722" y="553" type="line"/>
      <point x="568" y="553" type="line"/>
      <point x="584" y="544" type="line"/>
      <point x="576" y="605"/>
      <point x="541" y="649"/>
      <point x="481" y="676" type="curve"/>
      <point x="478" y="667" type="line"/>
      <point x="722" y="667" type="line"/>
      <point x="722" y="705" type="line"/>
      <point x="26" y="705" type="line"/>
      <point x="26" y="667" type="line"/>
      <point x="312" y="667" type="line" smooth="yes"/>
      <point x="448" y="667"/>
      <point x="521" y="628"/>
      <point x="536" y="546" type="curve"/>
      <point x="549" y="553" type="line"/>
      <point x="26" y="553" type="line"/>
      <point x="26" y="515" type="line"/>
      <point x="549" y="515" type="line"/>
      <point x="539" y="519" type="line"/>
      <point x="542" y="406"/>
      <point x="470" y="354"/>
      <point x="312" y="354" type="curve" smooth="yes"/>
      <point x="26" y="354" type="line"/>
      <point x="26" y="312" type="line"/>
      <point x="221" y="312" type="line" smooth="yes"/>
      <point x="313" y="312"/>
      <point x="346" y="296"/>
      <point x="403" y="226" type="curve" smooth="yes"/>
    </contour>
  </outline>
</glyph>
<glyph name="ruble" format="2">
  <advance width="748"/>
  <unicode hex="20BD"/>
  <outline>
    <contour>
      <point x="148" y="0" type="line"/>
      <point x="194" y="0" type="line"/>
      <point x="194" y="156" type="line"/>
      <point x="432" y="156" type="line"/>
      <point x="432" y="194" type="line"/>
      <point x="194" y="194" type="line"/>
      <point x="194" y="306" type="line"/>
      <point x="431" y="306" type="line" smooth="yes"/>
      <point x="616" y="306"/>
      <point x="708" y="372"/>
      <point x="708" y="504" type="curve" smooth="yes"/>
      <point x="708" y="639"/>
      <point x="617" y="705"/>
      <point x="431" y="705" type="curve" smooth="yes"/>
      <point x="148" y="705" type="line"/>
      <point x="148" y="344" type="line"/>
      <point x="20" y="344" type="line"/>
      <point x="20" y="306" type="line"/>
      <point x="148" y="306" type="line"/>
      <point x="148" y="194" type="line"/>
      <point x="20" y="194" type="line"/>
      <point x="20" y="156" type="line"/>
      <point x="148" y="156" type="line"/>
    </contour>
    <contour>
      <point x="194" y="344" type="line"/>
      <point x="194" y="663" type="line"/>
      <point x="432" y="663" type="line" smooth="yes"/>
      <point x="590" y="663"/>
      <point x="661" y="614"/>
      <point x="661" y="504" type="curve" smooth="yes"/>
      <point x="661" y="394"/>
      <point x="590" y="344"/>
      <point x="432" y="344" type="curve" smooth="yes"/>
    </contour>
  </outline>
</glyph>
<glyph name="numero" format="2">
  <advance width="1310"/>
  <unicode hex="2116"/>
  <outline>
    <contour>
      <point x="118" y="0" type="line"/>
      <point x="162" y="0" type="line"/>
      <point x="162" y="659" type="line"/>
      <point x="144" y="659" type="line"/>
      <point x="747" y="0" type="line"/>
      <point x="788" y="0" type="line"/>
      <point x="788" y="705" type="line"/>
      <point x="744" y="705" type="line"/>
      <point x="744" y="46" type="line"/>
      <point x="763" y="46" type="line"/>
      <point x="159" y="705" type="line"/>
      <point x="118" y="705" type="line"/>
    </contour>
    <contour>
      <point x="947" y="270" type="line"/>
      <point x="1275" y="270" type="line"/>
      <point x="1275" y="309" type="line"/>
      <point x="947" y="309" type="line"/>
    </contour>
    <contour>
      <point x="1111" y="413" type="curve" smooth="yes"/>
      <point x="1213" y="413"/>
      <point x="1279" y="472"/>
      <point x="1279" y="563" type="curve" smooth="yes"/>
      <point x="1279" y="654"/>
      <point x="1213" y="713"/>
      <point x="1111" y="713" type="curve" smooth="yes"/>
      <point x="1009" y="713"/>
      <point x="943" y="654"/>
      <point x="943" y="563" type="curve" smooth="yes"/>
      <point x="943" y="472"/>
      <point x="1009" y="413"/>
    </contour>
    <contour>
      <point x="1111" y="446" type="curve" smooth="yes"/>
      <point x="1030" y="446"/>
      <point x="982" y="487"/>
      <point x="982" y="563" type="curve" smooth="yes"/>
      <point x="982" y="639"/>
      <point x="1030" y="680"/>
      <point x="1111" y="680" type="curve" smooth="yes"/>
      <point x="1192" y="680"/>
      <point x="1240" y="639"/>
      <point x="1240" y="563" type="curve" smooth="yes"/>
      <point x="1240" y="487"/>
      <point x="1192" y="446"/>
    </contour>
  </outline>
</glyph>
<glyph name="Ohm" format="2">
  <advance width="748"/>
  <unicode hex="2126"/>
  <outline>
    <contour>
      <point x="64" y="0" type="line"/>
      <point x="316" y="0" type="line"/>
      <point x="316" y="39" type="line"/>
      <point x="185" y="134"/>
      <point x="123" y="245"/>
      <point x="123" y="394" type="curve" smooth="yes"/>
      <point x="123" y="576"/>
      <point x="209" y="669"/>
      <point x="374" y="669" type="curve" smooth="yes"/>
      <point x="539" y="669"/>
      <point x="625" y="576"/>
      <point x="625" y="394" type="curve" smooth="yes"/>
      <point x="625" y="245"/>
      <point x="563" y="134"/>
      <point x="432" y="39" type="curve"/>
      <point x="432" y="0" type="line"/>
      <point x="684" y="0" type="line"/>
      <point x="684" y="41" type="line"/>
      <point x="461" y="41" type="line"/>
      <point x="461" y="25" type="line"/>
      <point x="602" y="111"/>
      <point x="674" y="233"/>
      <point x="674" y="394" type="curve" smooth="yes"/>
      <point x="674" y="598"/>
      <point x="564" y="713"/>
      <point x="374" y="713" type="curve" smooth="yes"/>
      <point x="184" y="713"/>
      <point x="74" y="598"/>
      <point x="74" y="394" type="curve" smooth="yes"/>
      <point x="74" y="233"/>
      <point x="146" y="111"/>
      <point x="287" y="25" type="curve"/>
      <point x="287" y="41" type="line"/>
      <point x="64" y="41" type="line"/>
    </contour>
  </outline>
</glyph>
<glyph name="partialdiff" format="2">
  <advance width="742"/>
  <unicode hex="2202"/>
  <outline>
    <contour>
      <point x="379" y="-8" type="curve" smooth="yes"/>
      <point x="569" y="-8"/>
      <point x="666" y="99"/>
      <point x="666" y="308" type="curve" smooth="yes"/>
      <point x="666" y="582"/>
      <point x="535" y="713"/>
      <point x="261" y="713" type="curve" smooth="yes"/>
      <point x="236" y="713"/>
      <point x="219" y="711"/>
      <point x="193" y="708" type="curve"/>
      <point x="193" y="673" type="line"/>
      <point x="256" y="673" type="line" smooth="yes"/>
      <point x="494" y="673"/>
      <point x="608" y="569"/>
      <point x="617" y="345" type="curve"/>
      <point x="628" y="345" type="line"/>
      <point x="591" y="428"/>
      <point x="498" y="475"/>
      <point x="370" y="475" type="curve" smooth="yes"/>
      <point x="191" y="475"/>
      <point x="84" y="382"/>
      <point x="84" y="237" type="curve" smooth="yes"/>
      <point x="84" y="85"/>
      <point x="201" y="-8"/>
    </contour>
    <contour>
      <point x="378" y="34" type="curve" smooth="yes"/>
      <point x="227" y="34"/>
      <point x="131" y="109"/>
      <point x="131" y="239" type="curve" smooth="yes"/>
      <point x="131" y="360"/>
      <point x="215" y="433"/>
      <point x="369" y="433" type="curve" smooth="yes"/>
      <point x="516" y="433"/>
      <point x="616" y="366"/>
      <point x="616" y="256" type="curve" smooth="yes"/>
      <point x="616" y="113"/>
      <point x="533" y="34"/>
    </contour>
  </outline>
</glyph>
<glyph name="emptyset" format="2">
  <advance width="748"/>
  <unicode hex="2205"/>
  <outline>
    <contour>
      <point x="145" y="-35" type="line"/>
      <point x="223" y="66" type="line"/>
      <point x="267" y="41"/>
      <point x="319" y="27"/>
      <point x="375" y="27" type="curve" smooth="yes"/>
      <point x="548" y="27"/>
      <point x="678" y="164"/>
      <point x="678" y="317" type="curve" smooth="yes"/>
      <point x="678" y="398"/>
      <point x="641" y="475"/>
      <point x="581" y="530" type="curve"/>
      <point x="658" y="630" type="line"/>
      <point x="615" y="663" type="line"/>
      <point x="537" y="562" type="line"/>
      <point x="491" y="590"/>
      <point x="436" y="607"/>
      <point x="375" y="607" type="curve" smooth="yes"/>
      <point x="202" y="607"/>
      <point x="72" y="470"/>
      <point x="72" y="317" type="curve" smooth="yes"/>
      <point x="72" y="231"/>
      <point x="113" y="151"/>
      <point x="179" y="96" type="curve"/>
      <point x="101" y="-5" type="line"/>
    </contour>
    <contour>
      <point x="209" y="135" type="line"/>
      <point x="159" y="179"/>
      <point x="128" y="243"/>
      <point x="128" y="317" type="curve" smooth="yes"/>
      <point x="128" y="455"/>
      <point x="236" y="559"/>
      <point x="375" y="559" type="curve" smooth="yes"/>
      <point x="424" y="559"/>
      <point x="469" y="546"/>
      <point x="507" y="523" type="curve"/>
    </contour>
    <contour>
      <point x="375" y="75" type="curve" smooth="yes"/>
      <point x="330" y="75"/>
      <point x="289" y="86"/>
      <point x="253" y="105" type="curve"/>
      <point x="550" y="490" type="line"/>
      <point x="595" y="447"/>
      <point x="622" y="386"/>
      <point x="622" y="317" type="curve" smooth="yes"/>
      <point x="622" y="179"/>
      <point x="514" y="75"/>
    </contour>
  </outline>
</glyph>
<glyph name="bulletoperator" format="2">
  <advance width="748"/>
  <unicode hex="2219"/>
  <outline>
    <contour>
      <point x="336" y="228" type="line"/>
      <point x="412" y="228" type="line"/>
      <point x="412" y="302" type="line"/>
      <point x="336" y="302" type="line"/>
    </contour>
  </outline>
</glyph>
<glyph name="radical" format="2">
  <advance width="748"/>
  <unicode hex="221A"/>
  <outline>
    <contour>
      <point x="328" y="-180" type="line"/>
      <point x="367" y="-180" type="line"/>
      <point x="730" y="758" type="line"/>
      <point x="679" y="758" type="line"/>
      <point x="331" y="-153" type="line"/>
      <point x="364" y="-153" type="line"/>
      <point x="157" y="304" type="line"/>
      <point x="10" y="304" type="line"/>
      <point x="10" y="265" type="line"/>
      <point x="149" y="265" type="line"/>
      <point x="118" y="275" type="line"/>
    </contour>
  </outline>
</glyph>
<glyph name="notequal" format="2">
  <advance width="748"/>
  <unicode hex="2260"/>
  <outline>
    <contour>
      <point x="254" y="26" type="line"/>
      <point x="326" y="167" type="line"/>
      <point x="645" y="167" type="line"/>
      <point x="645" y="207" type="line"/>
      <point x="346" y="207" type="line"/>
      <point x="428" y="367" type="line"/>
      <point x="645" y="367" type="line"/>
      <point x="645" y="407" type="line"/>
      <point x="448" y="407" type="line"/>
      <point x="510" y="529" type="line"/>
      <point x="474" y="548" type="line"/>
      <point x="402" y="407" type="line"/>
      <point x="103" y="407" type="line"/>
      <point x="103" y="367" type="line"/>
      <point x="382" y="367" type="line"/>
      <point x="300" y="207" type="line"/>
      <point x="103" y="207" type="line"/>
      <point x="103" y="167" type="line"/>
      <point x="280" y="167" type="line"/>
      <point x="218" y="45" type="line"/>
    </contour>
  </outline>
</glyph>
<glyph name="rightanglebracket-math" format="2">
  <advance width="748"/>
  <unicode hex="27E9"/>
  <outline>
    <contour>
      <point x="314" y="-23" type="line"/>
      <point x="466" y="335" type="line"/>
      <point x="466" y="360" type="line"/>
      <point x="314" y="718" type="line"/>
      <point x="278" y="704" type="line"/>
      <point x="426" y="348" type="line"/>
      <point x="278" y="-9" type="line"/>
    </contour>
  </outline>
</glyph>
<glyph name="__bar.Obarred-cy" format="2">
  <advance width="929"/>
  <anchor x="465" y="353" name="_center"/>
  <outline>
    <contour>
      <point x="108" y="337" type="line"/>
      <point x="831" y="337" type="line"/>
      <point x="831" y="379" type="line"/>
      <point x="108" y="379" type="line"/>
    </contour>
  </outline>
</glyph>
<glyph name="__strokehook-cy" format="2">
  <advance width="683"/>
  <anchor x="145" y="0" name="_bottomright"/>
  <outline>
    <contour>
      <point x="116" y="-180" type="line"/>
      <point x="155" y="-177" type="line" smooth="yes"/>
      <point x="245" y="-170"/>
      <point x="301" y="-116"/>
      <point x="301" y="1" type="curve" smooth="yes"/>
      <point x="301" y="42" type="line"/>
      <point x="145" y="42" type="line"/>
      <point x="145" y="0" type="line"/>
      <point x="254" y="0" type="line"/>
      <point x="254" y="-89"/>
      <point x="228" y="-127"/>
      <point x="154" y="-134" type="curve" smooth="yes"/>
      <point x="113" y="-138" type="line"/>
    </contour>
  </outline>
</glyph>
<glyph name="__tail-cy.case" format="2">
  <advance width="3"/>
  <anchor x="-4" y="0" name="_bottomright"/>
  <outline>
    <contour>
      <point x="47" y="-150" type="line"/>
      <point x="89" y="-150" type="line"/>
      <point x="166" y="42" type="line"/>
      <point x="-4" y="42" type="line"/>
      <point x="-4" y="0" type="line"/>
      <point x="109" y="0" type="line"/>
    </contour>
  </outline>
</glyph>
<glyph name="__tail-cy" format="2">
  <advance width="10"/>
  <anchor x="-4" y="0" name="_bottomright"/>
  <outline>
    <contour>
      <point x="18" y="-130" type="line"/>
      <point x="62" y="-130" type="line"/>
      <point x="135" y="40" type="line"/>
      <point x="-4" y="40" type="line"/>
      <point x="-4" y="0" type="line"/>
      <point x="77" y="0" type="line"/>
    </contour>
  </outline>
</glyph>
<glyph name="_part.Qtail" format="2">
  <advance width="929"/>
  <anchor x="464" y="-8" name="_Qtail"/>
  <outline>
    <contour>
      <point x="729" y="-199" type="line"/>
      <point x="762" y="-173" type="line"/>
      <point x="685" y="-71" type="line" smooth="yes"/>
      <point x="639" y="-10"/>
      <point x="603" y="13"/>
      <point x="509" y="13" type="curve"/>
      <point x="464" y="-8" type="line"/>
      <point x="545" y="-8"/>
      <point x="607" y="-34"/>
      <point x="644" y="-84" type="curve" smooth="yes"/>
    </contour>
  </outline>
</glyph>
<glyph name="acutecomb_dotaccentcomb.case" format="2">
  <anchor x="0" y="705" name="_top"/>
  <outline>
    <contour>
      <point x="-74" y="936" type="line"/>
      <point x="0" y="936" type="line"/>
      <point x="0" y="1006" type="line"/>
      <point x="-74" y="1006" type="line"/>
    </contour>
    <contour>
      <point x="-21" y="765" type="line"/>
      <point x="20" y="765" type="line"/>
      <point x="171" y="935" type="line"/>
      <point x="109" y="935" type="line"/>
    </contour>
  </outline>
</glyph>
<glyph name="brevecomb_gravecomb.case" format="2">
  <anchor x="0" y="705" name="_top"/>
  <outline>
    <contour>
      <point x="0" y="760" type="curve" smooth="yes"/>
      <point x="109" y="760"/>
      <point x="170" y="813"/>
      <point x="179" y="914" type="curve"/>
      <point x="140" y="919" type="line"/>
      <point x="134" y="838"/>
      <point x="89" y="798"/>
      <point x="0" y="798" type="curve" smooth="yes"/>
      <point x="-89" y="798"/>
      <point x="-134" y="838"/>
      <point x="-140" y="919" type="curve"/>
      <point x="-179" y="914" type="line"/>
      <point x="-170" y="813"/>
      <point x="-109" y="760"/>
    </contour>
    <contour>
      <point x="-11" y="863" type="line"/>
      <point x="30" y="863" type="line"/>
      <point x="-94" y="1013" type="line"/>
      <point x="-157" y="1013" type="line"/>
    </contour>
  </outline>
</glyph>
<glyph name="brevecomb_gravecomb" format="2">
  <anchor x="0" y="484" name="_top"/>
  <outline>
    <contour>
      <point x="0" y="547" type="curve" smooth="yes"/>
      <point x="109" y="547"/>
      <point x="170" y="600"/>
      <point x="179" y="701" type="curve"/>
      <point x="140" y="706" type="line"/>
      <point x="134" y="625"/>
      <point x="89" y="585"/>
      <point x="0" y="585" type="curve" smooth="yes"/>
      <point x="-89" y="585"/>
      <point x="-134" y="625"/>
      <point x="-140" y="706" type="curve"/>
      <point x="-179" y="701" type="line"/>
      <point x="-170" y="600"/>
      <point x="-109" y="547"/>
    </contour>
    <contour>
      <point x="-11" y="650" type="line"/>
      <point x="30" y="650" type="line"/>
      <point x="-94" y="800" type="line"/>
      <point x="-157" y="800" type="line"/>
    </contour>
  </outline>
</glyph>
<glyph name="brevecomb_hookabovecomb" format="2">
  <anchor x="0" y="484" name="_top"/>
  <outline>
    <contour>
      <point x="0" y="547" type="curve" smooth="yes"/>
      <point x="109" y="547"/>
      <point x="170" y="600"/>
      <point x="179" y="701" type="curve"/>
      <point x="140" y="706" type="line"/>
      <point x="134" y="625"/>
      <point x="89" y="585"/>
      <point x="0" y="585" type="curve" smooth="yes"/>
      <point x="-89" y="585"/>
      <point x="-134" y="625"/>
      <point x="-140" y="706" type="curve"/>
      <point x="-179" y="701" type="line"/>
      <point x="-170" y="600"/>
      <point x="-109" y="547"/>
    </contour>
    <contour>
      <point x="-19" y="650" type="curve"/>
      <point x="20" y="650" type="line"/>
      <point x="20" y="702"/>
      <point x="109" y="693"/>
      <point x="109" y="752" type="curve" smooth="yes"/>
      <point x="109" y="786"/>
      <point x="79" y="804"/>
      <point x="13" y="804" type="curve" smooth="yes"/>
      <point x="-31" y="804"/>
      <point x="-65" y="796"/>
      <point x="-89" y="784" type="curve"/>
      <point x="-78" y="756" type="line"/>
      <point x="-49" y="767"/>
      <point x="-22" y="772"/>
      <point x="7" y="772" type="curve" smooth="yes"/>
      <point x="45" y="772"/>
      <point x="65" y="764"/>
      <point x="65" y="747" type="curve" smooth="yes"/>
      <point x="65" y="711"/>
      <point x="-19" y="716"/>
    </contour>
  </outline>
</glyph>
<glyph name="caroncomb_dotaccentcomb" format="2">
  <anchor x="0" y="484" name="_top"/>
  <outline>
    <contour>
      <point x="-28" y="549" type="line"/>
      <point x="27" y="549" type="line"/>
      <point x="163" y="709" type="line"/>
      <point x="123" y="709" type="line"/>
      <point x="0" y="590" type="line"/>
      <point x="-124" y="709" type="line"/>
      <point x="-164" y="709" type="line"/>
    </contour>
    <contour>
      <point x="-37" y="750" type="line"/>
      <point x="37" y="750" type="line"/>
      <point x="37" y="820" type="line"/>
      <point x="-37" y="820" type="line"/>
    </contour>
  </outline>
</glyph>
<glyph name="circumflexcomb.case" format="2">
  <anchor x="0" y="705" name="_top"/>
  <anchor x="0" y="865" name="top"/>
  <outline>
    <contour>
      <point x="-178" y="765" type="line"/>
      <point x="-138" y="765" type="line"/>
      <point x="0" y="903" type="line"/>
      <point x="138" y="765" type="line"/>
      <point x="178" y="765" type="line"/>
      <point x="28" y="943" type="line"/>
      <point x="-28" y="943" type="line"/>
    </contour>
  </outline>
</glyph>
<glyph name="circumflexcomb_gravecomb" format="2">
  <anchor x="0" y="484" name="_top"/>
  <outline>
    <contour>
      <point x="-168" y="549" type="line"/>
      <point x="-128" y="549" type="line"/>
      <point x="-4" y="677" type="line"/>
      <point x="119" y="549" type="line"/>
      <point x="159" y="549" type="line"/>
      <point x="23" y="717" type="line"/>
      <point x="-32" y="717" type="line"/>
    </contour>
    <contour>
      <point x="146" y="650" type="line"/>
      <point x="187" y="650" type="line"/>
      <point x="79" y="800" type="line"/>
      <point x="16" y="800" type="line"/>
    </contour>
  </outline>
</glyph>
<glyph name="circumflexcomb_hookabovecomb.case" format="2">
  <anchor x="0" y="705" name="_top"/>
  <outline>
    <contour>
      <point x="-168" y="765" type="line"/>
      <point x="-128" y="765" type="line"/>
      <point x="-4" y="893" type="line"/>
      <point x="119" y="765" type="line"/>
      <point x="159" y="765" type="line"/>
      <point x="23" y="933" type="line"/>
      <point x="-32" y="933" type="line"/>
    </contour>
    <contour>
      <point x="112" y="866" type="curve"/>
      <point x="151" y="866" type="line"/>
      <point x="151" y="918"/>
      <point x="240" y="909"/>
      <point x="240" y="968" type="curve" smooth="yes"/>
      <point x="240" y="1002"/>
      <point x="210" y="1020"/>
      <point x="144" y="1020" type="curve" smooth="yes"/>
      <point x="100" y="1020"/>
      <point x="66" y="1012"/>
      <point x="42" y="1000" type="curve"/>
      <point x="53" y="972" type="line"/>
      <point x="82" y="983"/>
      <point x="109" y="988"/>
      <point x="138" y="988" type="curve" smooth="yes"/>
      <point x="176" y="988"/>
      <point x="196" y="980"/>
      <point x="196" y="963" type="curve" smooth="yes"/>
      <point x="196" y="927"/>
      <point x="112" y="932"/>
    </contour>
  </outline>
</glyph>
<glyph name="circumflexcomb_hookabovecomb" format="2">
  <anchor x="0" y="484" name="_top"/>
  <outline>
    <contour>
      <point x="-168" y="549" type="line"/>
      <point x="-128" y="549" type="line"/>
      <point x="-4" y="677" type="line"/>
      <point x="119" y="549" type="line"/>
      <point x="159" y="549" type="line"/>
      <point x="23" y="717" type="line"/>
      <point x="-32" y="717" type="line"/>
    </contour>
    <contour>
      <point x="112" y="650" type="curve"/>
      <point x="151" y="650" type="line"/>
      <point x="151" y="702"/>
      <point x="240" y="693"/>
      <point x="240" y="752" type="curve" smooth="yes"/>
      <point x="240" y="786"/>
      <point x="210" y="804"/>
      <point x="144" y="804" type="curve" smooth="yes"/>
      <point x="100" y="804"/>
      <point x="66" y="796"/>
      <point x="42" y="784" type="curve"/>
      <point x="53" y="756" type="line"/>
      <point x="82" y="767"/>
      <point x="109" y="772"/>
      <point x="138" y="772" type="curve" smooth="yes"/>
      <point x="176" y="772"/>
      <point x="196" y="764"/>
      <point x="196" y="747" type="curve" smooth="yes"/>
      <point x="196" y="711"/>
      <point x="112" y="716"/>
    </contour>
  </outline>
</glyph>
<glyph name="commaturnedabovecomb.case" format="2">
  <anchor x="0" y="705" name="_top"/>
  <anchor x="0" y="865" name="top"/>
  <outline>
    <contour>
      <point x="-36" y="765" type="line"/>
      <point x="40" y="765" type="line"/>
      <point x="40" y="839" type="line"/>
      <point x="-7" y="839" type="line"/>
      <point x="8" y="832" type="line"/>
      <point x="8" y="868"/>
      <point x="18" y="889"/>
      <point x="43" y="916" type="curve"/>
      <point x="15" y="939" type="line"/>
      <point x="-19" y="909"/>
      <point x="-36" y="874"/>
      <point x="-36" y="822" type="curve" smooth="yes"/>
    </contour>
  </outline>
</glyph>
<glyph name="eight.dnom" format="2">
  <advance width="470"/>
  <outline>
    <contour>
      <point x="235" y="-3" type="curve" smooth="yes"/>
      <point x="352" y="-3"/>
      <point x="421" y="40"/>
      <point x="421" y="112" type="curve" smooth="yes"/>
      <point x="421" y="172"/>
      <point x="375" y="212"/>
      <point x="299" y="220" type="curve"/>
      <point x="299" y="212" type="line"/>
      <point x="368" y="224"/>
      <point x="410" y="264"/>
      <point x="410" y="318" type="curve" smooth="yes"/>
      <point x="410" y="385"/>
      <point x="343" y="427"/>
      <point x="235" y="427" type="curve" smooth="yes"/>
      <point x="127" y="427"/>
      <point x="60" y="385"/>
      <point x="60" y="318" type="curve" smooth="yes"/>
      <point x="60" y="264"/>
      <point x="102" y="224"/>
      <point x="171" y="212" type="curve"/>
      <point x="171" y="220" type="line"/>
      <point x="95" y="212"/>
      <point x="49" y="172"/>
      <point x="49" y="112" type="curve" smooth="yes"/>
      <point x="49" y="40"/>
      <point x="118" y="-3"/>
    </contour>
    <contour>
      <point x="235" y="35" type="curve" smooth="yes"/>
      <point x="140" y="35"/>
      <point x="92" y="62"/>
      <point x="92" y="116" type="curve" smooth="yes"/>
      <point x="92" y="170"/>
      <point x="139" y="196"/>
      <point x="235" y="196" type="curve" smooth="yes"/>
      <point x="331" y="196"/>
      <point x="378" y="170"/>
      <point x="378" y="116" type="curve" smooth="yes"/>
      <point x="378" y="62"/>
      <point x="330" y="35"/>
    </contour>
    <contour>
      <point x="235" y="234" type="curve" smooth="yes"/>
      <point x="151" y="234"/>
      <point x="103" y="263"/>
      <point x="103" y="313" type="curve" smooth="yes"/>
      <point x="103" y="361"/>
      <point x="151" y="389"/>
      <point x="235" y="389" type="curve" smooth="yes"/>
      <point x="319" y="389"/>
      <point x="367" y="361"/>
      <point x="367" y="313" type="curve" smooth="yes"/>
      <point x="367" y="263"/>
      <point x="319" y="234"/>
    </contour>
  </outline>
</glyph>
<glyph name="eight.tosf" format="2">
  <advance width="748"/>
  <outline>
    <contour>
      <point x="374" y="-8" type="curve" smooth="yes"/>
      <point x="567" y="-8"/>
      <point x="673" y="63"/>
      <point x="673" y="183" type="curve" smooth="yes"/>
      <point x="673" y="286"/>
      <point x="593" y="354"/>
      <point x="462" y="364" type="curve"/>
      <point x="462" y="352" type="line"/>
      <point x="579" y="368"/>
      <point x="653" y="435"/>
      <point x="653" y="529" type="curve" smooth="yes"/>
      <point x="653" y="643"/>
      <point x="549" y="713"/>
      <point x="374" y="713" type="curve" smooth="yes"/>
      <point x="199" y="713"/>
      <point x="95" y="643"/>
      <point x="95" y="529" type="curve" smooth="yes"/>
      <point x="95" y="435"/>
      <point x="169" y="368"/>
      <point x="286" y="352" type="curve"/>
      <point x="286" y="364" type="line"/>
      <point x="155" y="354"/>
      <point x="75" y="286"/>
      <point x="75" y="183" type="curve" smooth="yes"/>
      <point x="75" y="63"/>
      <point x="181" y="-8"/>
    </contour>
    <contour>
      <point x="374" y="35" type="curve" smooth="yes"/>
      <point x="205" y="35"/>
      <point x="122" y="87"/>
      <point x="122" y="188" type="curve" smooth="yes"/>
      <point x="122" y="288"/>
      <point x="204" y="335"/>
      <point x="374" y="335" type="curve" smooth="yes"/>
      <point x="544" y="335"/>
      <point x="626" y="288"/>
      <point x="626" y="188" type="curve" smooth="yes"/>
      <point x="626" y="87"/>
      <point x="543" y="35"/>
    </contour>
    <contour>
      <point x="374" y="379" type="curve" smooth="yes"/>
      <point x="226" y="379"/>
      <point x="142" y="432"/>
      <point x="142" y="525" type="curve" smooth="yes"/>
      <point x="142" y="618"/>
      <point x="225" y="670"/>
      <point x="374" y="670" type="curve" smooth="yes"/>
      <point x="523" y="670"/>
      <point x="606" y="618"/>
      <point x="606" y="525" type="curve" smooth="yes"/>
      <point x="606" y="432"/>
      <point x="522" y="379"/>
    </contour>
  </outline>
</glyph>
<glyph name="five.dnom" format="2">
  <advance width="470"/>
  <outline>
    <contour>
      <point x="249" y="-3" type="curve" smooth="yes"/>
      <point x="358" y="-3"/>
      <point x="425" y="49"/>
      <point x="425" y="132" type="curve" smooth="yes"/>
      <point x="425" y="214"/>
      <point x="361" y="265"/>
      <point x="260" y="265" type="curve" smooth="yes"/>
      <point x="200" y="265"/>
      <point x="148" y="246"/>
      <point x="120" y="213" type="curve"/>
      <point x="131" y="213" type="line"/>
      <point x="131" y="384" type="line"/>
      <point x="398" y="384" type="line"/>
      <point x="398" y="423" type="line"/>
      <point x="90" y="423" type="line"/>
      <point x="90" y="174" type="line"/>
      <point x="124" y="174" type="line"/>
      <point x="156" y="210"/>
      <point x="198" y="227"/>
      <point x="253" y="227" type="curve" smooth="yes"/>
      <point x="332" y="227"/>
      <point x="381" y="191"/>
      <point x="381" y="132" type="curve" smooth="yes"/>
      <point x="381" y="71"/>
      <point x="333" y="36"/>
      <point x="249" y="36" type="curve" smooth="yes"/>
      <point x="189" y="36"/>
      <point x="139" y="52"/>
      <point x="90" y="87" type="curve"/>
      <point x="71" y="52" type="line"/>
      <point x="114" y="17"/>
      <point x="179" y="-3"/>
    </contour>
  </outline>
</glyph>
<glyph name="five.tosf" format="2">
  <advance width="748"/>
  <outline>
    <contour>
      <point x="385" y="-188" type="curve" smooth="yes"/>
      <point x="556" y="-188"/>
      <point x="660" y="-106"/>
      <point x="660" y="27" type="curve" smooth="yes"/>
      <point x="660" y="153"/>
      <point x="563" y="231"/>
      <point x="408" y="231" type="curve" smooth="yes"/>
      <point x="306" y="231"/>
      <point x="222" y="197"/>
      <point x="179" y="139" type="curve"/>
      <point x="193" y="139" type="line"/>
      <point x="193" y="444" type="line"/>
      <point x="621" y="444" type="line"/>
      <point x="621" y="484" type="line"/>
      <point x="147" y="484" type="line"/>
      <point x="147" y="96" type="line"/>
      <point x="189" y="96" type="line"/>
      <point x="237" y="158"/>
      <point x="307" y="189"/>
      <point x="399" y="189" type="curve" smooth="yes"/>
      <point x="531" y="189"/>
      <point x="612" y="126"/>
      <point x="612" y="22" type="curve" smooth="yes"/>
      <point x="612" y="-84"/>
      <point x="529" y="-146"/>
      <point x="391" y="-146" type="curve" smooth="yes"/>
      <point x="294" y="-146"/>
      <point x="199" y="-115"/>
      <point x="133" y="-62" type="curve"/>
      <point x="108" y="-99" type="line"/>
      <point x="172" y="-155"/>
      <point x="277" y="-188"/>
    </contour>
  </outline>
</glyph>
<glyph name="four.dnom" format="2">
  <advance width="470"/>
  <outline>
    <contour>
      <point x="310" y="0" type="line"/>
      <point x="352" y="0" type="line"/>
      <point x="352" y="93" type="line"/>
      <point x="436" y="93" type="line"/>
      <point x="436" y="129" type="line"/>
      <point x="352" y="129" type="line"/>
      <point x="352" y="423" type="line"/>
      <point x="316" y="423" type="line"/>
      <point x="46" y="126" type="line"/>
      <point x="46" y="93" type="line"/>
      <point x="310" y="93" type="line"/>
    </contour>
    <contour>
      <point x="310" y="129" type="line"/>
      <point x="82" y="129" type="line"/>
      <point x="82" y="116" type="line"/>
      <point x="326" y="379" type="line"/>
      <point x="310" y="379" type="line"/>
    </contour>
  </outline>
</glyph>
<glyph name="ghestroke-cy.loclBSH" format="2">
  <advance width="507"/>
  <outline>
    <contour>
      <point x="107" y="0" type="line"/>
      <point x="153" y="0" type="line"/>
      <point x="153" y="213" type="line"/>
      <point x="392" y="213" type="line"/>
      <point x="392" y="251" type="line"/>
      <point x="153" y="251" type="line"/>
      <point x="153" y="444" type="line"/>
      <point x="497" y="444" type="line"/>
      <point x="497" y="484" type="line"/>
      <point x="107" y="484" type="line"/>
    </contour>
  </outline>
</glyph>
<glyph name="hookabovecomb.case" format="2">
  <anchor x="0" y="705" name="_top"/>
  <anchor x="0" y="865" name="top"/>
  <outline>
    <contour>
      <point x="-21" y="765" type="line"/>
      <point x="20" y="765" type="line"/>
      <point x="20" y="777" type="line" smooth="yes"/>
      <point x="20" y="825"/>
      <point x="112" y="824"/>
      <point x="112" y="880" type="curve" smooth="yes"/>
      <point x="112" y="917"/>
      <point x="73" y="940"/>
      <point x="2" y="940" type="curve" smooth="yes"/>
      <point x="-37" y="940"/>
      <point x="-70" y="933"/>
      <point x="-94" y="920" type="curve"/>
      <point x="-83" y="888" type="line"/>
      <point x="-52" y="899"/>
      <point x="-30" y="904"/>
      <point x="1" y="904" type="curve" smooth="yes"/>
      <point x="44" y="904"/>
      <point x="65" y="894"/>
      <point x="65" y="877" type="curve" smooth="yes"/>
      <point x="65" y="844"/>
      <point x="-21" y="837"/>
      <point x="-21" y="785" type="curve" smooth="yes"/>
    </contour>
  </outline>
</glyph>
<glyph name="hungarumlautcomb.case" format="2">
  <anchor x="0" y="705" name="_top"/>
  <anchor x="0" y="865" name="top"/>
  <outline>
    <contour>
      <point x="-82" y="765" type="line"/>
      <point x="-52" y="765" type="line"/>
      <point x="86" y="943" type="line"/>
      <point x="25" y="943" type="line"/>
    </contour>
    <contour>
      <point x="51" y="765" type="line"/>
      <point x="81" y="765" type="line"/>
      <point x="217" y="943" type="line"/>
      <point x="157" y="943" type="line"/>
    </contour>
  </outline>
</glyph>
<glyph name="macroncomb_dieresiscomb.case" format="2">
  <anchor x="0" y="705" name="_top"/>
  <outline>
    <contour>
      <point x="-174" y="806" type="line"/>
      <point x="174" y="806" type="line"/>
      <point x="174" y="846" type="line"/>
      <point x="-174" y="846" type="line"/>
    </contour>
    <contour>
      <point x="-136" y="906" type="line"/>
      <point x="-64" y="906" type="line"/>
      <point x="-64" y="968" type="line"/>
      <point x="-136" y="968" type="line"/>
    </contour>
    <contour>
      <point x="64" y="906" type="line"/>
      <point x="136" y="906" type="line"/>
      <point x="136" y="968" type="line"/>
      <point x="64" y="968" type="line"/>
    </contour>
  </outline>
</glyph>
<glyph name="macroncomb_dieresiscomb" format="2">
  <anchor x="0" y="484" name="_top"/>
  <outline>
    <contour>
      <point x="-174" y="585" type="line"/>
      <point x="174" y="585" type="line"/>
      <point x="174" y="625" type="line"/>
      <point x="-174" y="625" type="line"/>
    </contour>
    <contour>
      <point x="-136" y="684" type="line"/>
      <point x="-66" y="684" type="line"/>
      <point x="-66" y="746" type="line"/>
      <point x="-136" y="746" type="line"/>
    </contour>
    <contour>
      <point x="66" y="684" type="line"/>
      <point x="136" y="684" type="line"/>
      <point x="136" y="746" type="line"/>
      <point x="66" y="746" type="line"/>
    </contour>
  </outline>
</glyph>
